adventprofmm_thn.ufo
<glyph name="exclam" format="1">
  <advance width="79"/>
  <unicode hex="0021"/>
  <outline>
    <contour>
      <point x="24" y="690" type="curve" smooth="yes"/>
      <point x="33" y="120" type="line"/>
      <point x="48" y="120" type="line"/>
      <point x="56" y="690" type="line" smooth="yes"/>
      <point x="56" y="702"/>
      <point x="52" y="708"/>
      <point x="42" y="708" type="curve" smooth="yes"/>
      <point x="33" y="708"/>
      <point x="24" y="702"/>
    </contour>
    <contour>
      <point x="57" y="18" type="curve" smooth="yes"/>
      <point x="57" y="26"/>
      <point x="50" y="34"/>
      <point x="41" y="34" type="curve" smooth="yes"/>
      <point x="31" y="34"/>
      <point x="23" y="26"/>
      <point x="23" y="18" type="curve" smooth="yes"/>
      <point x="23" y="8"/>
      <point x="31" y="0"/>
      <point x="41" y="0" type="curve" smooth="yes"/>
      <point x="50" y="0"/>
      <point x="57" y="8"/>
    </contour>
  </outline>
</glyph>
<glyph name="quotedbl" format="1">
  <advance width="200"/>
  <unicode hex="0022"/>
  <outline>
    <contour>
      <point x="153" y="721" type="curve" smooth="yes"/>
      <point x="158" y="587" type="line"/>
      <point x="175" y="587" type="line"/>
      <point x="182" y="721" type="line" smooth="yes"/>
      <point x="182" y="741"/>
      <point x="153" y="741"/>
    </contour>
    <contour>
      <point x="18" y="721" type="curve" smooth="yes"/>
      <point x="23" y="587" type="line"/>
      <point x="40" y="587" type="line"/>
      <point x="46" y="721" type="line" smooth="yes"/>
      <point x="46" y="741"/>
      <point x="18" y="741"/>
    </contour>
  </outline>
</glyph>
<glyph name="numbersign" format="1">
  <advance width="584"/>
  <unicode hex="0023"/>
  <outline>
    <contour>
      <point x="565" y="414" type="line"/>
      <point x="565" y="431" type="line"/>
      <point x="422" y="431" type="line"/>
      <point x="485" y="698" type="line"/>
      <point x="466" y="698" type="line"/>
      <point x="404" y="431" type="line"/>
      <point x="215" y="431" type="line"/>
      <point x="276" y="698" type="line"/>
      <point x="257" y="698" type="line"/>
      <point x="196" y="431" type="line"/>
      <point x="18" y="431" type="line"/>
      <point x="18" y="414" type="line"/>
      <point x="190" y="414" type="line"/>
      <point x="151" y="243" type="line"/>
      <point x="18" y="243" type="line"/>
      <point x="18" y="226" type="line"/>
      <point x="146" y="226" type="line"/>
      <point x="94" y="0" type="line"/>
      <point x="112" y="0" type="line"/>
      <point x="165" y="226" type="line"/>
      <point x="356" y="226" type="line"/>
      <point x="304" y="0" type="line"/>
      <point x="322" y="0" type="line"/>
      <point x="375" y="226" type="line"/>
      <point x="565" y="226" type="line"/>
      <point x="565" y="243" type="line"/>
      <point x="378" y="243" type="line"/>
      <point x="419" y="414" type="line"/>
    </contour>
    <contour>
      <point x="209" y="414" type="line"/>
      <point x="399" y="414" type="line"/>
      <point x="360" y="243" type="line"/>
      <point x="169" y="243" type="line"/>
    </contour>
  </outline>
</glyph>
<glyph name="dollar" format="1">
  <advance width="505"/>
  <unicode hex="0024"/>
  <outline>
    <contour>
      <point x="419" y="651" type="curve"/>
      <point x="426" y="669" type="line"/>
      <point x="380" y="694"/>
      <point x="322" y="707"/>
      <point x="267" y="707" type="curve" smooth="yes"/>
      <point x="212" y="707"/>
      <point x="159" y="695"/>
      <point x="120" y="669" type="curve" smooth="yes"/>
      <point x="79" y="642"/>
      <point x="52" y="602"/>
      <point x="48" y="547" type="curve" smooth="yes"/>
      <point x="44" y="459"/>
      <point x="120" y="416"/>
      <point x="208" y="381" type="curve" smooth="yes"/>
      <point x="244" y="365"/>
      <point x="282" y="352"/>
      <point x="317" y="338" type="curve" smooth="yes"/>
      <point x="397" y="304"/>
      <point x="464" y="262"/>
      <point x="465" y="178" type="curve" smooth="yes"/>
      <point x="466" y="124"/>
      <point x="447" y="85"/>
      <point x="415" y="57" type="curve" smooth="yes"/>
      <point x="374" y="21"/>
      <point x="306" y="7"/>
      <point x="263" y="7" type="curve" smooth="yes"/>
      <point x="199" y="7"/>
      <point x="137" y="24"/>
      <point x="105" y="47" type="curve" smooth="yes"/>
      <point x="47" y="87"/>
      <point x="30" y="142"/>
      <point x="30" y="142" type="curve"/>
      <point x="16" y="132" type="line"/>
      <point x="16" y="132"/>
      <point x="34" y="75"/>
      <point x="95" y="32" type="curve" smooth="yes"/>
      <point x="130" y="7"/>
      <point x="195" y="-13"/>
      <point x="263" y="-13" type="curve" smooth="yes"/>
      <point x="324" y="-13"/>
      <point x="387" y="7"/>
      <point x="429" y="43" type="curve" smooth="yes"/>
      <point x="466" y="76"/>
      <point x="487" y="121"/>
      <point x="486" y="177" type="curve" smooth="yes"/>
      <point x="486" y="268"/>
      <point x="411" y="317"/>
      <point x="324" y="355" type="curve" smooth="yes"/>
      <point x="288" y="371"/>
      <point x="251" y="384"/>
      <point x="217" y="398" type="curve" smooth="yes"/>
      <point x="100" y="443"/>
      <point x="67" y="483"/>
      <point x="67" y="542" type="curve" smooth="yes"/>
      <point x="67" y="593"/>
      <point x="98" y="637"/>
      <point x="134" y="658" type="curve" smooth="yes"/>
      <point x="176" y="681"/>
      <point x="223" y="691"/>
      <point x="268" y="690" type="curve" smooth="yes"/>
      <point x="327" y="690"/>
      <point x="382" y="673"/>
    </contour>
    <contour>
      <point x="273" y="815" type="line"/>
      <point x="254" y="815" type="line"/>
      <point x="254" y="-113" type="line"/>
      <point x="273" y="-113" type="line"/>
    </contour>
  </outline>
</glyph>
<glyph name="percent" format="1">
  <advance width="684"/>
  <unicode hex="0025"/>
  <outline>
    <contour>
      <point x="619" y="698" type="line"/>
      <point x="593" y="698" type="line"/>
      <point x="56" y="0" type="line"/>
      <point x="82" y="0" type="line"/>
    </contour>
    <contour>
      <point x="161" y="712" type="curve" smooth="yes"/>
      <point x="80" y="712"/>
      <point x="15" y="647"/>
      <point x="15" y="566" type="curve" smooth="yes"/>
      <point x="15" y="486"/>
      <point x="80" y="421"/>
      <point x="161" y="421" type="curve" smooth="yes"/>
      <point x="241" y="421"/>
      <point x="306" y="486"/>
      <point x="306" y="566" type="curve" smooth="yes"/>
      <point x="306" y="647"/>
      <point x="241" y="712"/>
    </contour>
    <contour>
      <point x="161" y="692" type="curve" smooth="yes"/>
      <point x="230" y="692"/>
      <point x="286" y="636"/>
      <point x="286" y="566" type="curve" smooth="yes"/>
      <point x="286" y="497"/>
      <point x="230" y="441"/>
      <point x="161" y="441" type="curve" smooth="yes"/>
      <point x="91" y="441"/>
      <point x="35" y="497"/>
      <point x="35" y="566" type="curve" smooth="yes"/>
      <point x="35" y="636"/>
      <point x="91" y="692"/>
    </contour>
    <contour>
      <point x="520" y="276" type="curve" smooth="yes"/>
      <point x="441" y="276"/>
      <point x="376" y="211"/>
      <point x="376" y="131" type="curve" smooth="yes"/>
      <point x="376" y="51"/>
      <point x="441" y="-14"/>
      <point x="520" y="-14" type="curve" smooth="yes"/>
      <point x="601" y="-14"/>
      <point x="665" y="51"/>
      <point x="665" y="131" type="curve" smooth="yes"/>
      <point x="665" y="211"/>
      <point x="601" y="276"/>
    </contour>
    <contour>
      <point x="520" y="256" type="curve" smooth="yes"/>
      <point x="590" y="256"/>
      <point x="646" y="200"/>
      <point x="646" y="131" type="curve" smooth="yes"/>
      <point x="646" y="62"/>
      <point x="590" y="7"/>
      <point x="520" y="7" type="curve" smooth="yes"/>
      <point x="452" y="7"/>
      <point x="396" y="62"/>
      <point x="396" y="131" type="curve" smooth="yes"/>
      <point x="396" y="200"/>
      <point x="452" y="256"/>
    </contour>
  </outline>
</glyph>
<glyph name="ampersand" format="1">
  <advance width="504"/>
  <unicode hex="0026"/>
  <outline>
    <contour>
      <point x="381" y="681" type="curve"/>
      <point x="391" y="702" type="line"/>
      <point x="391" y="702"/>
      <point x="280" y="702"/>
      <point x="222" y="702" type="curve" smooth="yes"/>
      <point x="129" y="702"/>
      <point x="77" y="639"/>
      <point x="80" y="553" type="curve" smooth="yes"/>
      <point x="82" y="497"/>
      <point x="118" y="436"/>
      <point x="190" y="403" type="curve"/>
      <point x="186" y="403"/>
      <point x="177" y="403"/>
      <point x="172" y="403" type="curve" smooth="yes"/>
      <point x="37" y="403"/>
      <point x="18" y="318"/>
      <point x="18" y="254" type="curve"/>
      <point x="18" y="254"/>
      <point x="18" y="161"/>
      <point x="18" y="161" type="curve"/>
      <point x="18" y="4"/>
      <point x="139" y="-9"/>
      <point x="212" y="-4" type="curve" smooth="yes"/>
      <point x="274" y="0"/>
      <point x="346" y="36"/>
      <point x="370" y="108" type="curve"/>
      <point x="376" y="46"/>
      <point x="410" y="10"/>
      <point x="475" y="-9" type="curve"/>
      <point x="480" y="9" type="line"/>
      <point x="414" y="31"/>
      <point x="386" y="63"/>
      <point x="386" y="136" type="curve" smooth="yes"/>
      <point x="386" y="382" type="line"/>
      <point x="476" y="382" type="line"/>
      <point x="485" y="403" type="line"/>
      <point x="386" y="403" type="line"/>
      <point x="386" y="505" type="line"/>
      <point x="370" y="505" type="line"/>
      <point x="370" y="403" type="line"/>
      <point x="321" y="403"/>
      <point x="272" y="403"/>
      <point x="263" y="403" type="curve" smooth="yes"/>
      <point x="207" y="403"/>
      <point x="103" y="459"/>
      <point x="103" y="554" type="curve" smooth="yes"/>
      <point x="100" y="628"/>
      <point x="147" y="681"/>
      <point x="226" y="681" type="curve" smooth="yes"/>
      <point x="266" y="681"/>
      <point x="381" y="681"/>
    </contour>
    <contour>
      <point x="370" y="382" type="curve"/>
      <point x="370" y="173" type="line" smooth="yes"/>
      <point x="370" y="91"/>
      <point x="308" y="20"/>
      <point x="212" y="13" type="curve" smooth="yes"/>
      <point x="106" y="5"/>
      <point x="37" y="47"/>
      <point x="37" y="159" type="curve" smooth="yes"/>
      <point x="37" y="165"/>
      <point x="37" y="248"/>
      <point x="37" y="251" type="curve" smooth="yes"/>
      <point x="37" y="326"/>
      <point x="67" y="382"/>
      <point x="170" y="382" type="curve" smooth="yes"/>
      <point x="188" y="382"/>
      <point x="283" y="382"/>
    </contour>
  </outline>
</glyph>
<glyph name="quotesingle" format="1">
  <advance width="66"/>
  <unicode hex="0027"/>
  <outline>
    <contour>
      <point x="18" y="722" type="curve" smooth="yes"/>
      <point x="24" y="587" type="line"/>
      <point x="40" y="587" type="line"/>
      <point x="47" y="722" type="line"/>
      <point x="47" y="741"/>
      <point x="18" y="741"/>
    </contour>
  </outline>
</glyph>
<glyph name="parenleft" format="1">
  <advance width="150"/>
  <unicode hex="0028"/>
  <outline>
    <contour>
      <point x="134" y="798" type="curve"/>
      <point x="124" y="813" type="line"/>
      <point x="51" y="766"/>
      <point x="22" y="723"/>
      <point x="22" y="625" type="curve" smooth="yes"/>
      <point x="22" y="69" type="line" smooth="yes"/>
      <point x="22" y="-29"/>
      <point x="51" y="-72"/>
      <point x="124" y="-119" type="curve"/>
      <point x="135" y="-101" type="line"/>
      <point x="106" y="-80"/>
      <point x="41" y="-50"/>
      <point x="41" y="65" type="curve" smooth="yes"/>
      <point x="41" y="153"/>
      <point x="41" y="316"/>
      <point x="41" y="635" type="curve" smooth="yes"/>
      <point x="41" y="728"/>
      <point x="78" y="759"/>
    </contour>
  </outline>
</glyph>
<glyph name="parenright" format="1">
  <advance width="150"/>
  <unicode hex="0029"/>
  <outline>
    <contour>
      <point x="15" y="798" type="curve"/>
      <point x="25" y="813" type="line"/>
      <point x="99" y="766"/>
      <point x="128" y="723"/>
      <point x="128" y="625" type="curve" smooth="yes"/>
      <point x="128" y="69" type="line" smooth="yes"/>
      <point x="128" y="-29"/>
      <point x="99" y="-72"/>
      <point x="25" y="-119" type="curve"/>
      <point x="14" y="-101" type="line"/>
      <point x="44" y="-80"/>
      <point x="109" y="-50"/>
      <point x="109" y="65" type="curve" smooth="yes"/>
      <point x="109" y="153"/>
      <point x="109" y="316"/>
      <point x="109" y="635" type="curve" smooth="yes"/>
      <point x="109" y="728"/>
      <point x="71" y="759"/>
    </contour>
  </outline>
</glyph>
<glyph name="asterisk" format="1">
  <advance width="321"/>
  <unicode hex="002A"/>
  <outline>
    <contour>
      <point x="143" y="546" type="line"/>
      <point x="64" y="440" type="line"/>
      <point x="82" y="427" type="line"/>
      <point x="159" y="536" type="line"/>
      <point x="241" y="427" type="line"/>
      <point x="257" y="440" type="line"/>
      <point x="175" y="546" type="line"/>
      <point x="305" y="592" type="line"/>
      <point x="298" y="612" type="line"/>
      <point x="168" y="561" type="line"/>
      <point x="169" y="698" type="line"/>
      <point x="147" y="698" type="line"/>
      <point x="148" y="561" type="line"/>
      <point x="22" y="612" type="line"/>
      <point x="15" y="592" type="line"/>
    </contour>
  </outline>
</glyph>
<glyph name="plus" format="1">
  <advance width="355"/>
  <unicode hex="002B"/>
  <outline>
    <contour>
      <point x="168" y="378" type="line"/>
      <point x="18" y="378" type="line"/>
      <point x="18" y="361" type="line"/>
      <point x="168" y="361" type="line"/>
      <point x="168" y="209" type="line"/>
      <point x="187" y="209" type="line"/>
      <point x="187" y="361" type="line"/>
      <point x="337" y="361" type="line"/>
      <point x="337" y="378" type="line"/>
      <point x="187" y="378" type="line"/>
      <point x="187" y="528" type="line"/>
      <point x="168" y="528" type="line"/>
    </contour>
  </outline>
</glyph>
<glyph name="comma" format="1">
  <advance width="82"/>
  <unicode hex="002C"/>
  <outline>
    <contour>
      <point x="16" y="-57" type="curve"/>
      <point x="25" y="-64" type="line"/>
      <point x="25" y="-64"/>
      <point x="64" y="-40"/>
      <point x="64" y="13" type="curve" smooth="yes"/>
      <point x="64" y="23"/>
      <point x="57" y="30"/>
      <point x="47" y="30" type="curve" smooth="yes"/>
      <point x="38" y="30"/>
      <point x="31" y="22"/>
      <point x="31" y="13" type="curve" smooth="yes"/>
      <point x="31" y="5"/>
      <point x="35" y="0"/>
      <point x="42" y="-3" type="curve"/>
      <point x="41" y="-18"/>
      <point x="35" y="-39"/>
    </contour>
  </outline>
</glyph>
<glyph name="hyphen" format="1">
  <advance width="360"/>
  <unicode hex="002D"/>
  <outline>
    <contour>
      <point x="339" y="413" type="line"/>
      <point x="20" y="413" type="line"/>
      <point x="20" y="393" type="line"/>
      <point x="339" y="393" type="line"/>
    </contour>
  </outline>
</glyph>
<glyph name="period" format="1">
  <advance width="73"/>
  <unicode hex="002E"/>
  <outline>
    <contour>
      <point x="36" y="30" type="curve" smooth="yes"/>
      <point x="28" y="30"/>
      <point x="20" y="22"/>
      <point x="20" y="13" type="curve" smooth="yes"/>
      <point x="20" y="3"/>
      <point x="28" y="-4"/>
      <point x="36" y="-4" type="curve" smooth="yes"/>
      <point x="46" y="-4"/>
      <point x="54" y="3"/>
      <point x="54" y="13" type="curve" smooth="yes"/>
      <point x="54" y="22"/>
      <point x="46" y="30"/>
    </contour>
  </outline>
</glyph>
<glyph name="one" format="1">
  <advance width="163"/>
  <unicode hex="0031"/>
  <outline>
    <contour>
      <point x="-13" y="606" type="curve"/>
      <point x="-8" y="590" type="line"/>
      <point x="42" y="602"/>
      <point x="86" y="630"/>
      <point x="120" y="664" type="curve"/>
      <point x="120" y="0" type="line"/>
      <point x="140" y="0" type="line"/>
      <point x="140" y="698" type="line"/>
      <point x="120" y="698" type="line"/>
      <point x="95" y="658"/>
      <point x="38" y="620"/>
    </contour>
  </outline>
</glyph>
<glyph name="two" format="1">
  <advance width="375"/>
  <unicode hex="0032"/>
  <outline>
    <contour>
      <point x="22" y="588" type="curve"/>
      <point x="41" y="581" type="line"/>
      <point x="59" y="642"/>
      <point x="109" y="689"/>
      <point x="194" y="689" type="curve" smooth="yes"/>
      <point x="277" y="689"/>
      <point x="343" y="623"/>
      <point x="341" y="541" type="curve" smooth="yes"/>
      <point x="340" y="504"/>
      <point x="327" y="463"/>
      <point x="299" y="422" type="curve" smooth="yes"/>
      <point x="201" y="286"/>
      <point x="106" y="153"/>
      <point x="10" y="20" type="curve"/>
      <point x="10" y="0" type="line"/>
      <point x="359" y="0" type="line"/>
      <point x="359" y="20" type="line"/>
      <point x="32" y="20" type="line"/>
      <point x="172" y="215"/>
      <point x="243" y="313"/>
      <point x="313" y="411" type="curve" smooth="yes"/>
      <point x="344" y="458"/>
      <point x="360" y="503"/>
      <point x="361" y="546" type="curve" smooth="yes"/>
      <point x="363" y="638"/>
      <point x="283" y="708"/>
      <point x="200" y="708" type="curve" smooth="yes"/>
      <point x="109" y="708"/>
      <point x="51" y="668"/>
    </contour>
  </outline>
</glyph>
<glyph name="three" format="1">
  <advance width="407"/>
  <unicode hex="0033"/>
  <outline>
    <contour>
      <point x="183" y="413" type="curve" smooth="yes"/>
      <point x="140" y="413" type="line"/>
      <point x="340" y="678" type="line"/>
      <point x="340" y="698" type="line"/>
      <point x="51" y="698" type="line"/>
      <point x="51" y="678" type="line"/>
      <point x="316" y="678" type="line"/>
      <point x="103" y="393" type="line"/>
      <point x="189" y="393" type="line" smooth="yes"/>
      <point x="235" y="393"/>
      <point x="278" y="373"/>
      <point x="318" y="338" type="curve" smooth="yes"/>
      <point x="356" y="304"/>
      <point x="376" y="261"/>
      <point x="376" y="207" type="curve" smooth="yes"/>
      <point x="376" y="154"/>
      <point x="359" y="107"/>
      <point x="323" y="67" type="curve" smooth="yes"/>
      <point x="288" y="26"/>
      <point x="240" y="7"/>
      <point x="177" y="7" type="curve" smooth="yes"/>
      <point x="114" y="7"/>
      <point x="63" y="36"/>
      <point x="24" y="94" type="curve"/>
      <point x="7" y="82" type="line"/>
      <point x="45" y="24"/>
      <point x="111" y="-12"/>
      <point x="183" y="-12" type="curve" smooth="yes"/>
      <point x="242" y="-12"/>
      <point x="293" y="9"/>
      <point x="333" y="50" type="curve" smooth="yes"/>
      <point x="374" y="90"/>
      <point x="395" y="141"/>
      <point x="395" y="199" type="curve" smooth="yes"/>
      <point x="395" y="258"/>
      <point x="374" y="309"/>
      <point x="333" y="350" type="curve" smooth="yes"/>
      <point x="293" y="391"/>
      <point x="242" y="413"/>
    </contour>
  </outline>
</glyph>
<glyph name="four" format="1">
  <advance width="429"/>
  <unicode hex="0034"/>
  <outline>
    <contour>
      <point x="346" y="393" type="line"/>
      <point x="414" y="393" type="line"/>
      <point x="419" y="413" type="line"/>
      <point x="346" y="413" type="line"/>
      <point x="346" y="698" type="line"/>
      <point x="327" y="698" type="line"/>
      <point x="327" y="413" type="line"/>
      <point x="31" y="413" type="line"/>
      <point x="189" y="698" type="line"/>
      <point x="169" y="698" type="line"/>
      <point x="-2" y="393" type="line"/>
      <point x="327" y="393" type="line"/>
      <point x="328" y="0" type="line"/>
      <point x="346" y="0" type="line"/>
    </contour>
  </outline>
</glyph>
<glyph name="five" format="1">
  <advance width="406"/>
  <unicode hex="0035"/>
  <outline>
    <contour>
      <point x="63" y="411" type="curve"/>
      <point x="91" y="678" type="line"/>
      <point x="339" y="678" type="line"/>
      <point x="339" y="698" type="line"/>
      <point x="74" y="698" type="line"/>
      <point x="42" y="393" type="line"/>
      <point x="158" y="393" type="line" smooth="yes"/>
      <point x="316" y="393"/>
      <point x="375" y="297"/>
      <point x="375" y="199" type="curve" smooth="yes"/>
      <point x="375" y="76"/>
      <point x="278" y="7"/>
      <point x="183" y="7" type="curve" smooth="yes"/>
      <point x="95" y="7"/>
      <point x="19" y="59"/>
      <point x="19" y="59" type="curve"/>
      <point x="11" y="42" type="line"/>
      <point x="11" y="42"/>
      <point x="89" y="-12"/>
      <point x="184" y="-12" type="curve" smooth="yes"/>
      <point x="298" y="-12"/>
      <point x="394" y="74"/>
      <point x="394" y="198" type="curve" smooth="yes"/>
      <point x="394" y="318"/>
      <point x="320" y="413"/>
      <point x="157" y="413" type="curve" smooth="yes"/>
      <point x="147" y="413"/>
      <point x="74" y="411"/>
    </contour>
  </outline>
</glyph>
<glyph name="six" format="1">
  <advance width="447"/>
  <unicode hex="0036"/>
  <outline>
    <contour>
      <point x="252" y="679" type="curve" smooth="yes"/>
      <point x="290" y="679" type="line"/>
      <point x="290" y="697" type="line"/>
      <point x="256" y="697" type="line" smooth="yes"/>
      <point x="167" y="697"/>
      <point x="95" y="662"/>
      <point x="59" y="614" type="curve" smooth="yes"/>
      <point x="25" y="568"/>
      <point x="12" y="517"/>
      <point x="12" y="462" type="curve" smooth="yes"/>
      <point x="12" y="202" type="line" smooth="yes"/>
      <point x="12" y="143"/>
      <point x="33" y="92"/>
      <point x="75" y="52" type="curve" smooth="yes"/>
      <point x="116" y="11"/>
      <point x="166" y="-10"/>
      <point x="224" y="-10" type="curve" smooth="yes"/>
      <point x="284" y="-10"/>
      <point x="333" y="11"/>
      <point x="374" y="53" type="curve" smooth="yes"/>
      <point x="416" y="94"/>
      <point x="437" y="143"/>
      <point x="437" y="202" type="curve" smooth="yes"/>
      <point x="437" y="261"/>
      <point x="416" y="311"/>
      <point x="374" y="352" type="curve" smooth="yes"/>
      <point x="333" y="393"/>
      <point x="283" y="414"/>
      <point x="223" y="414" type="curve" smooth="yes"/>
      <point x="147" y="414"/>
      <point x="71" y="377"/>
      <point x="32" y="288" type="curve"/>
      <point x="32" y="450" type="line" smooth="yes"/>
      <point x="32" y="540"/>
      <point x="61" y="598"/>
      <point x="106" y="631" type="curve" smooth="yes"/>
      <point x="147" y="662"/>
      <point x="196" y="679"/>
    </contour>
    <contour>
      <point x="224" y="395" type="curve" smooth="yes"/>
      <point x="331" y="395"/>
      <point x="417" y="308"/>
      <point x="417" y="201" type="curve" smooth="yes"/>
      <point x="417" y="95"/>
      <point x="331" y="9"/>
      <point x="224" y="9" type="curve" smooth="yes"/>
      <point x="118" y="9"/>
      <point x="32" y="95"/>
      <point x="32" y="201" type="curve" smooth="yes"/>
      <point x="32" y="308"/>
      <point x="118" y="395"/>
    </contour>
  </outline>
</glyph>
<glyph name="seven" format="1">
  <advance width="392"/>
  <unicode hex="0037"/>
  <outline>
    <contour>
      <point x="398" y="698" type="line"/>
      <point x="7" y="698" type="line"/>
      <point x="7" y="678" type="line"/>
      <point x="375" y="678" type="line"/>
      <point x="18" y="0" type="line"/>
      <point x="38" y="0" type="line"/>
      <point x="398" y="678" type="line"/>
    </contour>
  </outline>
</glyph>
<glyph name="eight" format="1">
  <advance width="435"/>
  <unicode hex="0038"/>
  <outline>
    <contour>
      <point x="217" y="707" type="curve" smooth="yes"/>
      <point x="168" y="707"/>
      <point x="129" y="691"/>
      <point x="97" y="658" type="curve" smooth="yes"/>
      <point x="66" y="625"/>
      <point x="50" y="584"/>
      <point x="50" y="536" type="curve" smooth="yes"/>
      <point x="50" y="505"/>
      <point x="61" y="474"/>
      <point x="80" y="444" type="curve" smooth="yes"/>
      <point x="101" y="416"/>
      <point x="127" y="396"/>
      <point x="158" y="385" type="curve"/>
      <point x="119" y="373"/>
      <point x="78" y="348"/>
      <point x="51" y="311" type="curve" smooth="yes"/>
      <point x="23" y="275"/>
      <point x="9" y="234"/>
      <point x="9" y="191" type="curve" smooth="yes"/>
      <point x="9" y="133"/>
      <point x="29" y="85"/>
      <point x="68" y="46" type="curve" smooth="yes"/>
      <point x="108" y="7"/>
      <point x="157" y="-12"/>
      <point x="217" y="-12" type="curve" smooth="yes"/>
      <point x="275" y="-12"/>
      <point x="324" y="7"/>
      <point x="363" y="46" type="curve" smooth="yes"/>
      <point x="402" y="85"/>
      <point x="422" y="133"/>
      <point x="422" y="191" type="curve" smooth="yes"/>
      <point x="422" y="232"/>
      <point x="408" y="272"/>
      <point x="381" y="310" type="curve" smooth="yes"/>
      <point x="353" y="348"/>
      <point x="317" y="373"/>
      <point x="272" y="385" type="curve"/>
      <point x="305" y="396"/>
      <point x="332" y="416"/>
      <point x="351" y="440" type="curve" smooth="yes"/>
      <point x="373" y="469"/>
      <point x="384" y="502"/>
      <point x="384" y="536" type="curve" smooth="yes"/>
      <point x="384" y="584"/>
      <point x="369" y="625"/>
      <point x="337" y="658" type="curve" smooth="yes"/>
      <point x="306" y="691"/>
      <point x="265" y="707"/>
    </contour>
    <contour>
      <point x="217" y="391" type="curve" smooth="yes"/>
      <point x="169" y="391"/>
      <point x="128" y="414"/>
      <point x="100" y="448" type="curve" smooth="yes"/>
      <point x="80" y="473"/>
      <point x="68" y="505"/>
      <point x="68" y="539" type="curve" smooth="yes"/>
      <point x="68" y="621"/>
      <point x="135" y="687"/>
      <point x="217" y="687" type="curve" smooth="yes"/>
      <point x="299" y="687"/>
      <point x="365" y="621"/>
      <point x="365" y="539" type="curve" smooth="yes"/>
      <point x="365" y="506"/>
      <point x="355" y="476"/>
      <point x="337" y="451" type="curve" smooth="yes"/>
      <point x="310" y="415"/>
      <point x="266" y="391"/>
    </contour>
    <contour>
      <point x="216" y="5" type="curve" smooth="yes"/>
      <point x="112" y="5"/>
      <point x="29" y="88"/>
      <point x="29" y="189" type="curve" smooth="yes"/>
      <point x="29" y="233"/>
      <point x="44" y="274"/>
      <point x="70" y="305" type="curve" smooth="yes"/>
      <point x="105" y="346"/>
      <point x="157" y="373"/>
      <point x="216" y="373" type="curve" smooth="yes"/>
      <point x="277" y="373"/>
      <point x="331" y="344"/>
      <point x="365" y="299" type="curve" smooth="yes"/>
      <point x="389" y="268"/>
      <point x="403" y="231"/>
      <point x="403" y="189" type="curve" smooth="yes"/>
      <point x="403" y="88"/>
      <point x="319" y="5"/>
    </contour>
  </outline>
</glyph>
<glyph name="nine" format="1">
  <advance width="443"/>
  <unicode hex="0039"/>
  <outline>
    <contour>
      <point x="216" y="706" type="curve" smooth="yes"/>
      <point x="156" y="706"/>
      <point x="107" y="685"/>
      <point x="66" y="643" type="curve" smooth="yes"/>
      <point x="25" y="603"/>
      <point x="4" y="553"/>
      <point x="4" y="494" type="curve" smooth="yes"/>
      <point x="4" y="436"/>
      <point x="25" y="385"/>
      <point x="66" y="344" type="curve" smooth="yes"/>
      <point x="107" y="304"/>
      <point x="157" y="283"/>
      <point x="217" y="283" type="curve" smooth="yes"/>
      <point x="294" y="283"/>
      <point x="369" y="319"/>
      <point x="409" y="408" type="curve"/>
      <point x="409" y="246" type="line" smooth="yes"/>
      <point x="409" y="162"/>
      <point x="380" y="98"/>
      <point x="335" y="65" type="curve" smooth="yes"/>
      <point x="294" y="34"/>
      <point x="244" y="20"/>
      <point x="188" y="20" type="curve" smooth="yes"/>
      <point x="150" y="20" type="line"/>
      <point x="150" y="-1" type="line"/>
      <point x="185" y="-1" type="line" smooth="yes"/>
      <point x="273" y="-1"/>
      <point x="342" y="33"/>
      <point x="377" y="82" type="curve" smooth="yes"/>
      <point x="411" y="129"/>
      <point x="428" y="180"/>
      <point x="428" y="234" type="curve" smooth="yes"/>
      <point x="428" y="494" type="line" smooth="yes"/>
      <point x="428" y="553"/>
      <point x="407" y="604"/>
      <point x="366" y="645" type="curve" smooth="yes"/>
      <point x="326" y="685"/>
      <point x="274" y="706"/>
    </contour>
    <contour>
      <point x="216" y="687" type="curve" smooth="yes"/>
      <point x="322" y="687"/>
      <point x="409" y="602"/>
      <point x="409" y="495" type="curve" smooth="yes"/>
      <point x="409" y="388"/>
      <point x="322" y="301"/>
      <point x="216" y="301" type="curve" smooth="yes"/>
      <point x="109" y="301"/>
      <point x="23" y="388"/>
      <point x="23" y="495" type="curve" smooth="yes"/>
      <point x="23" y="602"/>
      <point x="109" y="687"/>
    </contour>
  </outline>
</glyph>
<glyph name="colon" format="1">
  <advance width="77"/>
  <unicode hex="003A"/>
  <outline>
    <contour>
      <point x="55" y="143" type="curve" smooth="yes"/>
      <point x="55" y="153"/>
      <point x="47" y="159"/>
      <point x="38" y="159" type="curve" smooth="yes"/>
      <point x="29" y="159"/>
      <point x="21" y="153"/>
      <point x="21" y="143" type="curve" smooth="yes"/>
      <point x="21" y="134"/>
      <point x="29" y="127"/>
      <point x="38" y="127" type="curve" smooth="yes"/>
      <point x="47" y="127"/>
      <point x="55" y="134"/>
    </contour>
    <contour>
      <point x="55" y="384" type="curve" smooth="yes"/>
      <point x="55" y="393"/>
      <point x="47" y="400"/>
      <point x="38" y="400" type="curve" smooth="yes"/>
      <point x="29" y="400"/>
      <point x="21" y="393"/>
      <point x="21" y="384" type="curve" smooth="yes"/>
      <point x="21" y="374"/>
      <point x="29" y="367"/>
      <point x="38" y="367" type="curve" smooth="yes"/>
      <point x="47" y="367"/>
      <point x="55" y="374"/>
    </contour>
  </outline>
</glyph>
<glyph name="semicolon" format="1">
  <advance width="88"/>
  <unicode hex="003B"/>
  <outline>
    <contour>
      <point x="18" y="68" type="curve"/>
      <point x="26" y="63" type="line"/>
      <point x="26" y="63"/>
      <point x="65" y="87"/>
      <point x="65" y="140" type="curve" smooth="yes"/>
      <point x="65" y="150"/>
      <point x="58" y="156"/>
      <point x="48" y="156" type="curve" smooth="yes"/>
      <point x="40" y="156"/>
      <point x="32" y="148"/>
      <point x="32" y="140" type="curve" smooth="yes"/>
      <point x="32" y="132"/>
      <point x="36" y="125"/>
      <point x="43" y="123" type="curve"/>
      <point x="42" y="109"/>
      <point x="37" y="87"/>
    </contour>
    <contour>
      <point x="66" y="384" type="curve" smooth="yes"/>
      <point x="66" y="393"/>
      <point x="58" y="400"/>
      <point x="50" y="400" type="curve" smooth="yes"/>
      <point x="40" y="400"/>
      <point x="32" y="393"/>
      <point x="32" y="384" type="curve" smooth="yes"/>
      <point x="32" y="374"/>
      <point x="40" y="367"/>
      <point x="50" y="367" type="curve" smooth="yes"/>
      <point x="58" y="367"/>
      <point x="66" y="374"/>
    </contour>
  </outline>
</glyph>
<glyph name="less" format="1">
  <advance width="327"/>
  <unicode hex="003C"/>
  <outline>
    <contour>
      <point x="309" y="94" type="line"/>
      <point x="42" y="356" type="line"/>
      <point x="309" y="623" type="line"/>
      <point x="295" y="635" type="line"/>
      <point x="18" y="358" type="line"/>
      <point x="295" y="79" type="line"/>
    </contour>
  </outline>
</glyph>
<glyph name="greater" format="1">
  <advance width="326"/>
  <unicode hex="003E"/>
  <outline>
    <contour>
      <point x="16" y="94" type="line"/>
      <point x="30" y="79" type="line"/>
      <point x="307" y="358" type="line"/>
      <point x="30" y="635" type="line"/>
      <point x="16" y="623" type="line"/>
      <point x="284" y="356" type="line"/>
    </contour>
  </outline>
</glyph>
<glyph name="question" format="1">
  <advance width="386"/>
  <unicode hex="003F"/>
  <outline>
    <contour>
      <point x="16" y="530" type="curve"/>
      <point x="35" y="530" type="line"/>
      <point x="35" y="639"/>
      <point x="116" y="689"/>
      <point x="193" y="689" type="curve" smooth="yes"/>
      <point x="288" y="689"/>
      <point x="351" y="616"/>
      <point x="351" y="535" type="curve" smooth="yes"/>
      <point x="351" y="482"/>
      <point x="332" y="446"/>
      <point x="288" y="393" type="curve" smooth="yes"/>
      <point x="218" y="310"/>
      <point x="172" y="293"/>
      <point x="172" y="187" type="curve" smooth="yes"/>
      <point x="172" y="119" type="line"/>
      <point x="190" y="119" type="line"/>
      <point x="190" y="119"/>
      <point x="190" y="168"/>
      <point x="190" y="193" type="curve" smooth="yes"/>
      <point x="190" y="271"/>
      <point x="215" y="288"/>
      <point x="295" y="373" type="curve" smooth="yes"/>
      <point x="338" y="419"/>
      <point x="369" y="463"/>
      <point x="369" y="536" type="curve" smooth="yes"/>
      <point x="369" y="646"/>
      <point x="280" y="705"/>
      <point x="193" y="707" type="curve" smooth="yes"/>
      <point x="105" y="708"/>
      <point x="16" y="652"/>
    </contour>
    <contour>
      <point x="182" y="30" type="curve" smooth="yes"/>
      <point x="172" y="30"/>
      <point x="164" y="22"/>
      <point x="164" y="13" type="curve" smooth="yes"/>
      <point x="164" y="3"/>
      <point x="172" y="-4"/>
      <point x="182" y="-4" type="curve" smooth="yes"/>
      <point x="190" y="-4"/>
      <point x="198" y="3"/>
      <point x="198" y="13" type="curve" smooth="yes"/>
      <point x="198" y="22"/>
      <point x="190" y="30"/>
    </contour>
  </outline>
</glyph>
<glyph name="at" format="1">
  <advance width="694"/>
  <unicode hex="0040"/>
  <outline>
    <contour>
      <point x="676" y="472" type="curve"/>
      <point x="667" y="484" type="line"/>
      <point x="629" y="457"/>
      <point x="626" y="437"/>
      <point x="626" y="371" type="curve" smooth="yes"/>
      <point x="626" y="282"/>
      <point x="626" y="218"/>
      <point x="626" y="168" type="curve" smooth="yes"/>
      <point x="626" y="35"/>
      <point x="472" y="-48"/>
      <point x="329" y="-48" type="curve" smooth="yes"/>
      <point x="135" y="-48"/>
      <point x="37" y="53"/>
      <point x="37" y="198" type="curve" smooth="yes"/>
      <point x="37" y="239"/>
      <point x="37" y="283"/>
      <point x="37" y="338" type="curve" smooth="yes"/>
      <point x="37" y="501"/>
      <point x="159" y="561"/>
      <point x="279" y="561" type="curve" smooth="yes"/>
      <point x="400" y="561"/>
      <point x="462" y="508"/>
      <point x="480" y="442" type="curve"/>
      <point x="480" y="442"/>
      <point x="310" y="442"/>
      <point x="294" y="442" type="curve" smooth="yes"/>
      <point x="215" y="442"/>
      <point x="141" y="408"/>
      <point x="141" y="288" type="curve" smooth="yes"/>
      <point x="141" y="222" type="line" smooth="yes"/>
      <point x="141" y="140"/>
      <point x="182" y="61"/>
      <point x="316" y="61" type="curve" smooth="yes"/>
      <point x="389" y="61"/>
      <point x="499" y="69"/>
      <point x="499" y="69" type="curve"/>
      <point x="499" y="69"/>
      <point x="499" y="397"/>
      <point x="499" y="424" type="curve"/>
      <point x="555" y="424" type="line"/>
      <point x="565" y="442" type="line"/>
      <point x="496" y="442" type="line"/>
      <point x="476" y="535"/>
      <point x="382" y="579"/>
      <point x="279" y="579" type="curve" smooth="yes"/>
      <point x="107" y="579"/>
      <point x="18" y="471"/>
      <point x="18" y="333" type="curve" smooth="yes"/>
      <point x="18" y="295"/>
      <point x="18" y="246"/>
      <point x="18" y="201" type="curve" smooth="yes"/>
      <point x="18" y="31"/>
      <point x="141" y="-67"/>
      <point x="324" y="-67" type="curve" smooth="yes"/>
      <point x="483" y="-67"/>
      <point x="642" y="22"/>
      <point x="642" y="170" type="curve" smooth="yes"/>
      <point x="642" y="386" type="line" smooth="yes"/>
      <point x="642" y="442"/>
      <point x="651" y="451"/>
    </contour>
    <contour>
      <point x="289" y="424" type="curve" smooth="yes"/>
      <point x="290" y="424"/>
      <point x="460" y="424"/>
      <point x="483" y="424" type="curve"/>
      <point x="483" y="87" type="line"/>
      <point x="483" y="87"/>
      <point x="385" y="79"/>
      <point x="315" y="79" type="curve" smooth="yes"/>
      <point x="210" y="79"/>
      <point x="157" y="130"/>
      <point x="157" y="227" type="curve" smooth="yes"/>
      <point x="157" y="285" type="line" smooth="yes"/>
      <point x="157" y="372"/>
      <point x="201" y="424"/>
    </contour>
  </outline>
</glyph>
<glyph name="A" format="1">
  <advance width="512"/>
  <unicode hex="0041"/>
  <outline>
    <contour>
      <point x="249" y="698" type="line"/>
      <point x="4" y="0" type="line"/>
      <point x="24" y="0" type="line"/>
      <point x="122" y="280" type="line"/>
      <point x="389" y="280" type="line"/>
      <point x="487" y="0" type="line"/>
      <point x="508" y="0" type="line"/>
      <point x="263" y="698" type="line"/>
    </contour>
    <contour>
      <point x="383" y="299" type="line"/>
      <point x="130" y="299" type="line"/>
      <point x="256" y="658" type="line"/>
    </contour>
  </outline>
</glyph>
<glyph name="B" format="1">
  <advance width="468"/>
  <unicode hex="0042"/>
  <outline>
    <contour>
      <point x="242" y="698" type="curve" smooth="yes"/>
      <point x="22" y="698" type="line"/>
      <point x="22" y="0" type="line"/>
      <point x="252" y="0" type="line" smooth="yes"/>
      <point x="328" y="0"/>
      <point x="385" y="26"/>
      <point x="414" y="69" type="curve" smooth="yes"/>
      <point x="440" y="109"/>
      <point x="454" y="155"/>
      <point x="454" y="208" type="curve" smooth="yes"/>
      <point x="454" y="304"/>
      <point x="414" y="367"/>
      <point x="330" y="399" type="curve"/>
      <point x="330" y="400" type="line" smooth="yes"/>
      <point x="330" y="402"/>
      <point x="330" y="402"/>
      <point x="331" y="403" type="curve"/>
      <point x="383" y="422"/>
      <point x="418" y="480"/>
      <point x="418" y="538" type="curve" smooth="yes"/>
      <point x="418" y="588"/>
      <point x="403" y="627"/>
      <point x="374" y="654" type="curve" smooth="yes"/>
      <point x="343" y="683"/>
      <point x="298" y="698"/>
    </contour>
    <contour>
      <point x="278" y="411" type="curve" smooth="yes"/>
      <point x="41" y="411" type="line"/>
      <point x="41" y="679" type="line"/>
      <point x="234" y="679" type="line" smooth="yes"/>
      <point x="348" y="679"/>
      <point x="399" y="624"/>
      <point x="399" y="541" type="curve" smooth="yes"/>
      <point x="399" y="501"/>
      <point x="386" y="468"/>
      <point x="360" y="444" type="curve" smooth="yes"/>
      <point x="335" y="422"/>
      <point x="308" y="411"/>
    </contour>
    <contour>
      <point x="250" y="19" type="curve" smooth="yes"/>
      <point x="41" y="19" type="line"/>
      <point x="41" y="393" type="line"/>
      <point x="253" y="393" type="line" smooth="yes"/>
      <point x="367" y="393"/>
      <point x="435" y="319"/>
      <point x="435" y="205" type="curve" smooth="yes"/>
      <point x="435" y="90"/>
      <point x="370" y="19"/>
    </contour>
  </outline>
</glyph>
<glyph name="F" format="1">
  <advance width="349"/>
  <unicode hex="0046"/>
  <outline>
    <contour>
      <point x="22" y="0" type="line"/>
      <point x="42" y="0" type="line"/>
      <point x="42" y="393" type="line"/>
      <point x="262" y="393" type="line"/>
      <point x="269" y="411" type="line"/>
      <point x="42" y="411" type="line"/>
      <point x="42" y="678" type="line"/>
      <point x="355" y="678" type="line"/>
      <point x="355" y="698" type="line"/>
      <point x="22" y="698" type="line"/>
    </contour>
  </outline>
</glyph>
<glyph name="I" format="1">
  <advance width="125"/>
  <unicode hex="0049"/>
  <outline>
    <contour>
      <point x="84" y="0" type="line"/>
      <point x="102" y="0" type="line"/>
      <point x="102" y="698" type="line"/>
      <point x="-2" y="698" type="line"/>
      <point x="-2" y="679" type="line"/>
      <point x="84" y="676" type="line"/>
    </contour>
  </outline>
</glyph>
<glyph name="J" format="1">
  <advance width="139"/>
  <unicode hex="004A"/>
  <outline>
    <contour>
      <point x="117" y="122" type="curve" smooth="yes"/>
      <point x="117" y="698" type="line"/>
      <point x="14" y="698" type="line"/>
      <point x="14" y="679" type="line"/>
      <point x="99" y="676" type="line"/>
      <point x="99" y="118" type="line" smooth="yes"/>
      <point x="99" y="35"/>
      <point x="67" y="-10"/>
      <point x="7" y="-19" type="curve"/>
      <point x="13" y="-37" type="line"/>
      <point x="51" y="-31"/>
      <point x="77" y="-15"/>
      <point x="94" y="12" type="curve" smooth="yes"/>
      <point x="110" y="37"/>
      <point x="117" y="73"/>
    </contour>
  </outline>
</glyph>
<glyph name="K" format="1">
  <advance width="421"/>
  <unicode hex="004B"/>
  <outline>
    <contour>
      <point x="22" y="698" type="line"/>
      <point x="22" y="0" type="line"/>
      <point x="41" y="0" type="line"/>
      <point x="41" y="279" type="line"/>
      <point x="137" y="402" type="line"/>
      <point x="397" y="0" type="line"/>
      <point x="418" y="0" type="line"/>
      <point x="150" y="417" type="line"/>
      <point x="366" y="698" type="line"/>
      <point x="344" y="698" type="line"/>
      <point x="41" y="307" type="line"/>
      <point x="41" y="698" type="line"/>
    </contour>
  </outline>
</glyph>
<glyph name="L" format="1">
  <advance width="383"/>
  <unicode hex="004C"/>
  <outline>
    <contour>
      <point x="382" y="20" type="line"/>
      <point x="41" y="20" type="line"/>
      <point x="41" y="698" type="line"/>
      <point x="22" y="698" type="line"/>
      <point x="22" y="0" type="line"/>
      <point x="382" y="0" type="line"/>
    </contour>
  </outline>
</glyph>
<glyph name="R" format="1">
  <advance width="471"/>
  <unicode hex="0052"/>
  <outline>
    <contour>
      <point x="271" y="698" type="curve" smooth="yes"/>
      <point x="22" y="698" type="line"/>
      <point x="22" y="0" type="line"/>
      <point x="41" y="0" type="line"/>
      <point x="41" y="280" type="line"/>
      <point x="264" y="280" type="line" smooth="yes"/>
      <point x="276" y="280"/>
      <point x="288" y="282"/>
      <point x="300" y="283" type="curve"/>
      <point x="435" y="0" type="line"/>
      <point x="455" y="0" type="line"/>
      <point x="319" y="285" type="line"/>
      <point x="414" y="304"/>
      <point x="455" y="374"/>
      <point x="455" y="492" type="curve" smooth="yes"/>
      <point x="455" y="621"/>
      <point x="397" y="698"/>
    </contour>
    <contour>
      <point x="263" y="299" type="curve" smooth="yes"/>
      <point x="41" y="299" type="line"/>
      <point x="41" y="678" type="line"/>
      <point x="272" y="678" type="line" smooth="yes"/>
      <point x="387" y="678"/>
      <point x="436" y="609"/>
      <point x="436" y="492" type="curve" smooth="yes"/>
      <point x="436" y="367"/>
      <point x="385" y="299"/>
    </contour>
  </outline>
</glyph>
<glyph name="S" format="1">
  <advance width="491"/>
  <unicode hex="0053"/>
  <outline>
    <contour>
      <point x="411" y="651" type="curve"/>
      <point x="418" y="670" type="line"/>
      <point x="373" y="694"/>
      <point x="316" y="707"/>
      <point x="260" y="707" type="curve" smooth="yes"/>
      <point x="206" y="707"/>
      <point x="152" y="695"/>
      <point x="112" y="669" type="curve" smooth="yes"/>
      <point x="71" y="643"/>
      <point x="44" y="603"/>
      <point x="42" y="547" type="curve" smooth="yes"/>
      <point x="37" y="460"/>
      <point x="112" y="417"/>
      <point x="200" y="381" type="curve" smooth="yes"/>
      <point x="237" y="366"/>
      <point x="274" y="353"/>
      <point x="309" y="338" type="curve" smooth="yes"/>
      <point x="391" y="304"/>
      <point x="457" y="263"/>
      <point x="458" y="178" type="curve" smooth="yes"/>
      <point x="459" y="124"/>
      <point x="439" y="85"/>
      <point x="408" y="57" type="curve" smooth="yes"/>
      <point x="366" y="22"/>
      <point x="305" y="7"/>
      <point x="241" y="7" type="curve" smooth="yes"/>
      <point x="176" y="7"/>
      <point x="130" y="25"/>
      <point x="97" y="48" type="curve" smooth="yes"/>
      <point x="40" y="88"/>
      <point x="23" y="142"/>
      <point x="23" y="142" type="curve"/>
      <point x="9" y="133" type="line"/>
      <point x="9" y="133"/>
      <point x="26" y="75"/>
      <point x="87" y="32" type="curve" smooth="yes"/>
      <point x="122" y="8"/>
      <point x="172" y="-12"/>
      <point x="241" y="-12" type="curve" smooth="yes"/>
      <point x="317" y="-12"/>
      <point x="380" y="8"/>
      <point x="421" y="44" type="curve" smooth="yes"/>
      <point x="459" y="76"/>
      <point x="480" y="121"/>
      <point x="479" y="177" type="curve" smooth="yes"/>
      <point x="480" y="268"/>
      <point x="404" y="318"/>
      <point x="317" y="355" type="curve" smooth="yes"/>
      <point x="282" y="371"/>
      <point x="244" y="385"/>
      <point x="209" y="398" type="curve" smooth="yes"/>
      <point x="92" y="444"/>
      <point x="61" y="483"/>
      <point x="61" y="543" type="curve" smooth="yes"/>
      <point x="61" y="594"/>
      <point x="90" y="637"/>
      <point x="127" y="658" type="curve" smooth="yes"/>
      <point x="168" y="682"/>
      <point x="216" y="691"/>
      <point x="261" y="691" type="curve" smooth="yes"/>
      <point x="319" y="690"/>
      <point x="375" y="673"/>
    </contour>
  </outline>
</glyph>
<glyph name="T" format="1">
  <advance width="364"/>
  <unicode hex="0054"/>
  <outline>
    <contour>
      <point x="382" y="698" type="line"/>
      <point x="-20" y="698" type="line"/>
      <point x="-20" y="678" type="line"/>
      <point x="169" y="678" type="line"/>
      <point x="170" y="0" type="line"/>
      <point x="188" y="0" type="line"/>
      <point x="188" y="678" type="line"/>
      <point x="382" y="678" type="line"/>
    </contour>
  </outline>
</glyph>
<glyph name="V" format="1">
  <advance width="469"/>
  <unicode hex="0056"/>
  <outline>
    <contour>
      <point x="245" y="0" type="line"/>
      <point x="471" y="698" type="line"/>
      <point x="452" y="698" type="line"/>
      <point x="233" y="26" type="line"/>
      <point x="13" y="698" type="line"/>
      <point x="-6" y="698" type="line"/>
      <point x="223" y="0" type="line"/>
    </contour>
  </outline>
</glyph>
<glyph name="W" format="1">
  <advance width="693"/>
  <unicode hex="0057"/>
  <outline>
    <contour>
      <point x="190" y="36" type="line"/>
      <point x="19" y="698" type="line"/>
      <point x="-2" y="698" type="line"/>
      <point x="180" y="0" type="line"/>
      <point x="201" y="0" type="line"/>
      <point x="346" y="651" type="line"/>
      <point x="491" y="0" type="line"/>
      <point x="512" y="0" type="line"/>
      <point x="692" y="698" type="line"/>
      <point x="670" y="698" type="line"/>
      <point x="502" y="35" type="line"/>
      <point x="356" y="698" type="line"/>
      <point x="335" y="698" type="line"/>
    </contour>
  </outline>
</glyph>
<glyph name="X" format="1">
  <advance width="522"/>
  <unicode hex="0058"/>
  <outline>
    <contour>
      <point x="26" y="698" type="line"/>
      <point x="250" y="363" type="line"/>
      <point x="8" y="0" type="line"/>
      <point x="33" y="0" type="line"/>
      <point x="261" y="345" type="line"/>
      <point x="492" y="0" type="line"/>
      <point x="517" y="0" type="line"/>
      <point x="274" y="363" type="line"/>
      <point x="497" y="698" type="line"/>
      <point x="473" y="698" type="line"/>
      <point x="261" y="381" type="line"/>
      <point x="48" y="698" type="line"/>
    </contour>
  </outline>
</glyph>
<glyph name="backslash" format="1">
  <advance width="372"/>
  <unicode hex="005C"/>
  <outline>
    <contour>
      <point x="35" y="815" type="line"/>
      <point x="14" y="815" type="line"/>
      <point x="338" y="-113" type="line"/>
      <point x="358" y="-113" type="line"/>
    </contour>
  </outline>
</glyph>
<glyph name="bracketright" format="1">
  <advance width="198"/>
  <unicode hex="005D"/>
  <outline>
    <contour>
      <point x="175" y="815" type="line"/>
      <point x="14" y="815" type="line"/>
      <point x="14" y="798" type="line"/>
      <point x="156" y="796" type="line"/>
      <point x="156" y="-95" type="line"/>
      <point x="14" y="-96" type="line"/>
      <point x="14" y="-113" type="line"/>
      <point x="175" y="-113" type="line"/>
    </contour>
  </outline>
</glyph>
<glyph name="asciicircum" format="1">
  <advance width="399"/>
  <unicode hex="005E"/>
  <outline>
    <contour>
      <point x="342" y="779" type="line"/>
      <point x="222" y="897" type="line"/>
      <point x="99" y="778" type="line"/>
      <point x="114" y="763" type="line"/>
      <point x="222" y="867" type="line"/>
      <point x="327" y="763" type="line"/>
    </contour>
  </outline>
</glyph>
<glyph name="grave" format="1">
  <advance width="219"/>
  <unicode hex="0060"/>
  <outline>
    <contour>
      <point x="92" y="727" type="line" smooth="yes"/>
      <point x="89" y="736"/>
      <point x="79" y="741"/>
      <point x="71" y="737" type="curve" smooth="yes"/>
      <point x="63" y="732"/>
      <point x="63" y="722"/>
      <point x="67" y="714" type="curve"/>
      <point x="123" y="613" type="line"/>
      <point x="144" y="613" type="line"/>
    </contour>
  </outline>
</glyph>
<glyph name="a" format="1">
  <advance width="408"/>
  <unicode hex="0061"/>
  <outline>
    <contour>
      <point x="373" y="345" type="curve"/>
      <point x="313" y="374"/>
      <point x="242" y="403"/>
      <point x="169" y="403" type="curve" smooth="yes"/>
      <point x="35" y="403"/>
      <point x="8" y="315"/>
      <point x="8" y="251" type="curve"/>
      <point x="8" y="251"/>
      <point x="8" y="168"/>
      <point x="8" y="168" type="curve"/>
      <point x="8" y="50"/>
      <point x="67" y="-10"/>
      <point x="212" y="-10" type="curve" smooth="yes"/>
      <point x="253" y="-10"/>
      <point x="392" y="0"/>
      <point x="392" y="0" type="curve"/>
      <point x="392" y="0"/>
      <point x="392" y="212"/>
      <point x="392" y="335" type="curve" smooth="yes"/>
      <point x="392" y="395"/>
      <point x="372" y="441"/>
      <point x="331" y="470" type="curve" smooth="yes"/>
      <point x="297" y="495"/>
      <point x="249" y="507"/>
      <point x="184" y="507" type="curve"/>
      <point x="183" y="488" type="line"/>
      <point x="251" y="488"/>
      <point x="288" y="477"/>
      <point x="318" y="457" type="curve" smooth="yes"/>
      <point x="354" y="431"/>
      <point x="373" y="392"/>
    </contour>
    <contour>
      <point x="373" y="322" type="curve"/>
      <point x="373" y="322"/>
      <point x="373" y="18"/>
      <point x="373" y="18" type="curve"/>
      <point x="373" y="18"/>
      <point x="258" y="8"/>
      <point x="212" y="8" type="curve" smooth="yes"/>
      <point x="56" y="4"/>
      <point x="26" y="90"/>
      <point x="26" y="162" type="curve" smooth="yes"/>
      <point x="26" y="185"/>
      <point x="26" y="221"/>
      <point x="26" y="249" type="curve" smooth="yes"/>
      <point x="26" y="323"/>
      <point x="65" y="383"/>
      <point x="168" y="383" type="curve" smooth="yes"/>
      <point x="241" y="383"/>
      <point x="302" y="358"/>
    </contour>
  </outline>
</glyph>
<glyph name="b" format="1">
  <advance width="419"/>
  <unicode hex="0062"/>
  <outline>
    <contour>
      <point x="41" y="470" type="curve"/>
      <point x="41" y="698" type="line"/>
      <point x="22" y="698" type="line"/>
      <point x="22" y="-1" type="line"/>
      <point x="22" y="-1"/>
      <point x="161" y="-11"/>
      <point x="201" y="-11" type="curve" smooth="yes"/>
      <point x="348" y="-11"/>
      <point x="406" y="50"/>
      <point x="406" y="168" type="curve" smooth="yes"/>
      <point x="406" y="169"/>
      <point x="406" y="358"/>
      <point x="406" y="358" type="curve"/>
      <point x="406" y="421"/>
      <point x="362" y="508"/>
      <point x="228" y="508" type="curve" smooth="yes"/>
      <point x="155" y="508"/>
      <point x="92" y="492"/>
    </contour>
    <contour>
      <point x="41" y="18" type="curve"/>
      <point x="41" y="18"/>
      <point x="41" y="450"/>
      <point x="41" y="450" type="curve"/>
      <point x="94" y="474"/>
      <point x="156" y="491"/>
      <point x="229" y="491" type="curve" smooth="yes"/>
      <point x="332" y="491"/>
      <point x="387" y="429"/>
      <point x="387" y="354" type="curve" smooth="yes"/>
      <point x="387" y="330"/>
      <point x="387" y="182"/>
      <point x="387" y="161" type="curve" smooth="yes"/>
      <point x="387" y="89"/>
      <point x="358" y="4"/>
      <point x="201" y="7" type="curve" smooth="yes"/>
      <point x="155" y="8"/>
      <point x="41" y="18"/>
    </contour>
  </outline>
</glyph>
<glyph name="d" format="1">
  <advance width="417"/>
  <unicode hex="0064"/>
  <outline>
    <contour>
      <point x="394" y="-1" type="curve"/>
      <point x="394" y="698" type="line"/>
      <point x="375" y="698" type="line"/>
      <point x="375" y="470" type="line"/>
      <point x="323" y="492"/>
      <point x="262" y="508"/>
      <point x="189" y="508" type="curve" smooth="yes"/>
      <point x="55" y="508"/>
      <point x="10" y="421"/>
      <point x="10" y="358" type="curve"/>
      <point x="10" y="358"/>
      <point x="10" y="169"/>
      <point x="10" y="168" type="curve" smooth="yes"/>
      <point x="10" y="50"/>
      <point x="69" y="-11"/>
      <point x="215" y="-11" type="curve" smooth="yes"/>
      <point x="255" y="-11"/>
      <point x="394" y="-1"/>
    </contour>
    <contour>
      <point x="375" y="450" type="curve"/>
      <point x="375" y="450"/>
      <point x="375" y="18"/>
      <point x="375" y="18" type="curve"/>
      <point x="375" y="18"/>
      <point x="262" y="8"/>
      <point x="216" y="7" type="curve" smooth="yes"/>
      <point x="59" y="4"/>
      <point x="30" y="89"/>
      <point x="30" y="161" type="curve" smooth="yes"/>
      <point x="30" y="182"/>
      <point x="30" y="330"/>
      <point x="30" y="354" type="curve" smooth="yes"/>
      <point x="30" y="429"/>
      <point x="84" y="491"/>
      <point x="187" y="491" type="curve" smooth="yes"/>
      <point x="261" y="491"/>
      <point x="323" y="474"/>
    </contour>
  </outline>
</glyph>
<glyph name="f" format="1">
  <advance width="209"/>
  <unicode hex="0066"/>
  <outline>
    <contour>
      <point x="200" y="687" type="curve"/>
      <point x="204" y="705" type="line"/>
      <point x="193" y="708"/>
      <point x="180" y="708"/>
      <point x="168" y="708" type="curve" smooth="yes"/>
      <point x="98" y="708"/>
      <point x="20" y="670"/>
      <point x="20" y="548" type="curve" smooth="yes"/>
      <point x="20" y="0" type="line"/>
      <point x="40" y="0" type="line"/>
      <point x="40" y="482" type="line"/>
      <point x="183" y="482" type="line"/>
      <point x="190" y="498" type="line"/>
      <point x="40" y="498" type="line"/>
      <point x="40" y="546"/>
      <point x="40" y="547"/>
      <point x="40" y="548" type="curve" smooth="yes"/>
      <point x="40" y="662"/>
      <point x="112" y="693"/>
      <point x="174" y="691" type="curve" smooth="yes"/>
      <point x="183" y="691"/>
      <point x="191" y="689"/>
    </contour>
  </outline>
</glyph>
<glyph name="g" format="1">
  <advance width="398"/>
  <unicode hex="0067"/>
  <outline>
    <contour>
      <point x="380" y="-64" type="curve" smooth="yes"/>
      <point x="380" y="498" type="line"/>
      <point x="360" y="498" type="line"/>
      <point x="360" y="451" type="line"/>
      <point x="310" y="487"/>
      <point x="233" y="506"/>
      <point x="186" y="508" type="curve" smooth="yes"/>
      <point x="76" y="513"/>
      <point x="11" y="450"/>
      <point x="11" y="344" type="curve" smooth="yes"/>
      <point x="11" y="175" type="line" smooth="yes"/>
      <point x="11" y="53"/>
      <point x="74" y="-12"/>
      <point x="185" y="-12" type="curve" smooth="yes"/>
      <point x="246" y="-12"/>
      <point x="337" y="22"/>
      <point x="360" y="80" type="curve"/>
      <point x="360" y="-63" type="line" smooth="yes"/>
      <point x="360" y="-163"/>
      <point x="297" y="-180"/>
      <point x="266" y="-193" type="curve"/>
      <point x="272" y="-210" type="line"/>
      <point x="348" y="-186"/>
      <point x="380" y="-144"/>
    </contour>
    <contour>
      <point x="360" y="426" type="curve"/>
      <point x="360" y="147" type="line" smooth="yes"/>
      <point x="360" y="50"/>
      <point x="258" y="2"/>
      <point x="170" y="8" type="curve" smooth="yes"/>
      <point x="85" y="12"/>
      <point x="31" y="67"/>
      <point x="31" y="168" type="curve" smooth="yes"/>
      <point x="31" y="346" type="line" smooth="yes"/>
      <point x="31" y="450"/>
      <point x="98" y="486"/>
      <point x="170" y="488" type="curve" smooth="yes"/>
      <point x="227" y="491"/>
      <point x="317" y="470"/>
    </contour>
  </outline>
</glyph>
<glyph name="h" format="1">
  <advance width="406"/>
  <unicode hex="0068"/>
  <outline>
    <contour>
      <point x="42" y="471" type="curve"/>
      <point x="42" y="698" type="line"/>
      <point x="22" y="698" type="line"/>
      <point x="22" y="0" type="line"/>
      <point x="42" y="0" type="line"/>
      <point x="42" y="453" type="line"/>
      <point x="78" y="471"/>
      <point x="142" y="490"/>
      <point x="200" y="493" type="curve" smooth="yes"/>
      <point x="308" y="498"/>
      <point x="372" y="459"/>
      <point x="372" y="346" type="curve" smooth="yes"/>
      <point x="372" y="0" type="line"/>
      <point x="391" y="0" type="line"/>
      <point x="391" y="345" type="line" smooth="yes"/>
      <point x="391" y="501"/>
      <point x="274" y="514"/>
      <point x="187" y="508" type="curve" smooth="yes"/>
      <point x="135" y="505"/>
      <point x="74" y="485"/>
    </contour>
  </outline>
</glyph>
<glyph name="i" format="1">
  <advance width="73"/>
  <unicode hex="0069"/>
  <outline>
    <contour>
      <point x="45" y="499" type="line"/>
      <point x="26" y="499" type="line"/>
      <point x="26" y="0" type="line"/>
      <point x="45" y="0" type="line"/>
    </contour>
    <contour>
      <point x="36" y="708" type="curve" smooth="yes"/>
      <point x="26" y="708"/>
      <point x="19" y="701"/>
      <point x="19" y="691" type="curve" smooth="yes"/>
      <point x="19" y="682"/>
      <point x="26" y="674"/>
      <point x="36" y="674" type="curve" smooth="yes"/>
      <point x="45" y="674"/>
      <point x="53" y="682"/>
      <point x="53" y="691" type="curve" smooth="yes"/>
      <point x="53" y="701"/>
      <point x="45" y="708"/>
    </contour>
  </outline>
</glyph>
<glyph name="j" format="1">
  <advance width="142"/>
  <unicode hex="006A"/>
  <outline>
    <contour>
      <point x="114" y="-68" type="curve" smooth="yes"/>
      <point x="114" y="499" type="line"/>
      <point x="12" y="499" type="line"/>
      <point x="12" y="481" type="line"/>
      <point x="97" y="481" type="line"/>
      <point x="97" y="-67" type="line" smooth="yes"/>
      <point x="97" y="-112"/>
      <point x="86" y="-143"/>
      <point x="65" y="-161" type="curve" smooth="yes"/>
      <point x="42" y="-179"/>
      <point x="33" y="-184"/>
      <point x="2" y="-196" type="curve"/>
      <point x="8" y="-213" type="line"/>
      <point x="38" y="-204"/>
      <point x="62" y="-191"/>
      <point x="79" y="-175" type="curve"/>
      <point x="103" y="-150"/>
      <point x="114" y="-116"/>
    </contour>
    <contour>
      <point x="122" y="691" type="curve" smooth="yes"/>
      <point x="122" y="701"/>
      <point x="116" y="707"/>
      <point x="106" y="707" type="curve" smooth="yes"/>
      <point x="97" y="707"/>
      <point x="89" y="701"/>
      <point x="89" y="691" type="curve" smooth="yes"/>
      <point x="89" y="682"/>
      <point x="97" y="674"/>
      <point x="106" y="674" type="curve" smooth="yes"/>
      <point x="116" y="674"/>
      <point x="122" y="682"/>
    </contour>
  </outline>
</glyph>
<glyph name="k" format="1">
  <advance width="389"/>
  <unicode hex="006B"/>
  <outline>
    <contour>
      <point x="154" y="378" type="curve"/>
      <point x="291" y="506" type="line"/>
      <point x="278" y="518" type="line"/>
      <point x="42" y="300" type="line"/>
      <point x="42" y="698" type="line"/>
      <point x="22" y="698" type="line"/>
      <point x="22" y="0" type="line"/>
      <point x="42" y="0" type="line"/>
      <point x="42" y="276" type="line"/>
      <point x="140" y="365" type="line"/>
      <point x="365" y="0" type="line"/>
      <point x="388" y="0" type="line"/>
      <point x="302" y="135"/>
      <point x="224" y="262"/>
    </contour>
  </outline>
</glyph>
<glyph name="m" format="1">
  <advance width="676"/>
  <unicode hex="006D"/>
  <outline>
    <contour>
      <point x="643" y="344" type="curve" smooth="yes"/>
      <point x="643" y="0" type="line"/>
      <point x="660" y="0" type="line"/>
      <point x="660" y="343" type="line" smooth="yes"/>
      <point x="660" y="499"/>
      <point x="565" y="514"/>
      <point x="479" y="507" type="curve" smooth="yes"/>
      <point x="429" y="504"/>
      <point x="362" y="480"/>
      <point x="323" y="454" type="curve"/>
      <point x="289" y="506"/>
      <point x="227" y="512"/>
      <point x="167" y="507" type="curve" smooth="yes"/>
      <point x="116" y="503"/>
      <point x="68" y="486"/>
      <point x="38" y="470" type="curve"/>
      <point x="38" y="498" type="line"/>
      <point x="19" y="498" type="line"/>
      <point x="19" y="0" type="line"/>
      <point x="38" y="0" type="line"/>
      <point x="38" y="451" type="line"/>
      <point x="75" y="470"/>
      <point x="112" y="487"/>
      <point x="172" y="492" type="curve" smooth="yes"/>
      <point x="278" y="499"/>
      <point x="331" y="458"/>
      <point x="331" y="344" type="curve" smooth="yes"/>
      <point x="331" y="0" type="line"/>
      <point x="351" y="0" type="line"/>
      <point x="351" y="343" type="line" smooth="yes"/>
      <point x="351" y="385"/>
      <point x="343" y="417"/>
      <point x="332" y="441" type="curve"/>
      <point x="372" y="464"/>
      <point x="427" y="487"/>
      <point x="483" y="492" type="curve" smooth="yes"/>
      <point x="591" y="499"/>
      <point x="643" y="458"/>
    </contour>
  </outline>
</glyph>
<glyph name="n" format="1">
  <advance width="404"/>
  <unicode hex="006E"/>
  <outline>
    <contour>
      <point x="369" y="345" type="curve" smooth="yes"/>
      <point x="369" y="0" type="line"/>
      <point x="387" y="0" type="line"/>
      <point x="387" y="344" type="line" smooth="yes"/>
      <point x="387" y="501"/>
      <point x="271" y="514"/>
      <point x="184" y="508" type="curve" smooth="yes"/>
      <point x="132" y="505"/>
      <point x="70" y="485"/>
      <point x="38" y="471" type="curve"/>
      <point x="38" y="499" type="line"/>
      <point x="19" y="499" type="line"/>
      <point x="19" y="0" type="line"/>
      <point x="38" y="0" type="line"/>
      <point x="38" y="452" type="line"/>
      <point x="75" y="471"/>
      <point x="139" y="490"/>
      <point x="197" y="493" type="curve" smooth="yes"/>
      <point x="305" y="498"/>
      <point x="369" y="459"/>
    </contour>
  </outline>
</glyph>
<glyph name="o" format="1">
  <advance width="391"/>
  <unicode hex="006F"/>
  <outline>
    <contour>
      <point x="378" y="184" type="curve" smooth="yes"/>
      <point x="378" y="315" type="line" smooth="yes"/>
      <point x="378" y="436"/>
      <point x="315" y="510"/>
      <point x="196" y="510" type="curve" smooth="yes"/>
      <point x="77" y="510"/>
      <point x="9" y="442"/>
      <point x="9" y="315" type="curve" smooth="yes"/>
      <point x="9" y="184" type="line" smooth="yes"/>
      <point x="9" y="77"/>
      <point x="68" y="-10"/>
      <point x="196" y="-10" type="curve" smooth="yes"/>
      <point x="319" y="-10"/>
      <point x="378" y="71"/>
    </contour>
    <contour>
      <point x="359" y="319" type="curve" smooth="yes"/>
      <point x="359" y="184" type="line" smooth="yes"/>
      <point x="359" y="84"/>
      <point x="310" y="8"/>
      <point x="196" y="8" type="curve" smooth="yes"/>
      <point x="85" y="8"/>
      <point x="29" y="85"/>
      <point x="29" y="184" type="curve" smooth="yes"/>
      <point x="29" y="319" type="line" smooth="yes"/>
      <point x="29" y="442"/>
      <point x="100" y="492"/>
      <point x="196" y="492" type="curve" smooth="yes"/>
      <point x="291" y="492"/>
      <point x="359" y="433"/>
    </contour>
  </outline>
</glyph>
<glyph name="p" format="1">
  <advance width="403"/>
  <unicode hex="0070"/>
  <outline>
    <contour>
      <point x="389" y="175" type="curve" smooth="yes"/>
      <point x="389" y="344" type="line" smooth="yes"/>
      <point x="389" y="450"/>
      <point x="323" y="513"/>
      <point x="215" y="508" type="curve" smooth="yes"/>
      <point x="166" y="506"/>
      <point x="90" y="487"/>
      <point x="40" y="451" type="curve"/>
      <point x="40" y="498" type="line"/>
      <point x="20" y="498" type="line"/>
      <point x="20" y="-206" type="line"/>
      <point x="40" y="-212" type="line"/>
      <point x="40" y="80" type="line"/>
      <point x="63" y="22"/>
      <point x="154" y="-12"/>
      <point x="215" y="-12" type="curve" smooth="yes"/>
      <point x="326" y="-12"/>
      <point x="389" y="53"/>
    </contour>
    <contour>
      <point x="372" y="346" type="curve" smooth="yes"/>
      <point x="372" y="168" type="line" smooth="yes"/>
      <point x="372" y="67"/>
      <point x="319" y="9"/>
      <point x="232" y="4" type="curve" smooth="yes"/>
      <point x="144" y="-1"/>
      <point x="40" y="50"/>
      <point x="40" y="147" type="curve" smooth="yes"/>
      <point x="40" y="426" type="line"/>
      <point x="84" y="470"/>
      <point x="176" y="494"/>
      <point x="232" y="493" type="curve" smooth="yes"/>
      <point x="305" y="490"/>
      <point x="372" y="450"/>
    </contour>
  </outline>
</glyph>
<glyph name="q" format="1">
  <advance width="398"/>
  <unicode hex="0071"/>
  <outline>
    <contour>
      <point x="359" y="81" type="curve"/>
      <point x="359" y="-207" type="line"/>
      <point x="378" y="-211" type="line"/>
      <point x="378" y="498" type="line"/>
      <point x="359" y="498" type="line"/>
      <point x="359" y="451" type="line"/>
      <point x="309" y="488"/>
      <point x="232" y="507"/>
      <point x="185" y="509" type="curve" smooth="yes"/>
      <point x="75" y="514"/>
      <point x="10" y="450"/>
      <point x="10" y="345" type="curve" smooth="yes"/>
      <point x="10" y="176" type="line" smooth="yes"/>
      <point x="10" y="54"/>
      <point x="73" y="-11"/>
      <point x="184" y="-11" type="curve" smooth="yes"/>
      <point x="245" y="-11"/>
      <point x="322" y="14"/>
    </contour>
    <contour>
      <point x="359" y="427" type="curve"/>
      <point x="359" y="148" type="line" smooth="yes"/>
      <point x="359" y="51"/>
      <point x="248" y="0"/>
      <point x="169" y="4" type="curve" smooth="yes"/>
      <point x="84" y="11"/>
      <point x="30" y="68"/>
      <point x="30" y="169" type="curve" smooth="yes"/>
      <point x="30" y="348" type="line" smooth="yes"/>
      <point x="30" y="451"/>
      <point x="97" y="491"/>
      <point x="169" y="493" type="curve" smooth="yes"/>
      <point x="226" y="495"/>
      <point x="326" y="459"/>
    </contour>
  </outline>
</glyph>
<glyph name="r" format="1">
  <advance width="291"/>
  <unicode hex="0072"/>
  <outline>
    <contour>
      <point x="289" y="490" type="curve"/>
      <point x="290" y="506" type="line"/>
      <point x="276" y="510"/>
      <point x="261" y="513"/>
      <point x="245" y="513" type="curve" smooth="yes"/>
      <point x="188" y="513"/>
      <point x="120" y="488"/>
      <point x="38" y="453" type="curve"/>
      <point x="38" y="499" type="line"/>
      <point x="19" y="499" type="line"/>
      <point x="19" y="0" type="line"/>
      <point x="38" y="0" type="line"/>
      <point x="38" y="432" type="line"/>
      <point x="136" y="476"/>
      <point x="193" y="494"/>
      <point x="243" y="494" type="curve" smooth="yes"/>
      <point x="258" y="494"/>
      <point x="274" y="493"/>
    </contour>
  </outline>
</glyph>
<glyph name="s" format="1">
  <advance width="372"/>
  <unicode hex="0073"/>
  <outline>
    <contour>
      <point x="306" y="460" type="curve"/>
      <point x="317" y="474" type="line"/>
      <point x="315" y="475"/>
      <point x="266" y="510"/>
      <point x="191" y="510" type="curve" smooth="yes"/>
      <point x="156" y="510"/>
      <point x="117" y="502"/>
      <point x="86" y="483" type="curve" smooth="yes"/>
      <point x="57" y="464"/>
      <point x="36" y="436"/>
      <point x="33" y="395" type="curve" smooth="yes"/>
      <point x="31" y="352"/>
      <point x="50" y="323"/>
      <point x="81" y="300" type="curve" smooth="yes"/>
      <point x="111" y="280"/>
      <point x="151" y="265"/>
      <point x="198" y="249" type="curve" smooth="yes"/>
      <point x="250" y="230"/>
      <point x="285" y="212"/>
      <point x="307" y="194" type="curve" smooth="yes"/>
      <point x="335" y="168"/>
      <point x="343" y="143"/>
      <point x="341" y="114" type="curve" smooth="yes"/>
      <point x="340" y="90"/>
      <point x="330" y="64"/>
      <point x="308" y="43" type="curve" smooth="yes"/>
      <point x="284" y="20"/>
      <point x="244" y="2"/>
      <point x="185" y="2" type="curve" smooth="yes"/>
      <point x="147" y="2"/>
      <point x="117" y="10"/>
      <point x="91" y="22" type="curve" smooth="yes"/>
      <point x="59" y="37"/>
      <point x="37" y="59"/>
      <point x="21" y="81" type="curve"/>
      <point x="8" y="68" type="line"/>
      <point x="26" y="44"/>
      <point x="51" y="21"/>
      <point x="86" y="4" type="curve" smooth="yes"/>
      <point x="112" y="-8"/>
      <point x="145" y="-15"/>
      <point x="185" y="-15" type="curve" smooth="yes"/>
      <point x="246" y="-15"/>
      <point x="289" y="1"/>
      <point x="318" y="26" type="curve" smooth="yes"/>
      <point x="345" y="52"/>
      <point x="358" y="84"/>
      <point x="360" y="113" type="curve" smooth="yes"/>
      <point x="361" y="147"/>
      <point x="353" y="178"/>
      <point x="318" y="208" type="curve" smooth="yes"/>
      <point x="295" y="228"/>
      <point x="258" y="246"/>
      <point x="204" y="266" type="curve" smooth="yes"/>
      <point x="156" y="283"/>
      <point x="120" y="297"/>
      <point x="95" y="315" type="curve" smooth="yes"/>
      <point x="63" y="335"/>
      <point x="50" y="359"/>
      <point x="52" y="394" type="curve" smooth="yes"/>
      <point x="54" y="430"/>
      <point x="74" y="454"/>
      <point x="100" y="470" type="curve" smooth="yes"/>
      <point x="128" y="485"/>
      <point x="161" y="492"/>
      <point x="191" y="492" type="curve" smooth="yes"/>
      <point x="260" y="492"/>
      <point x="306" y="460"/>
    </contour>
  </outline>
</glyph>
<glyph name="v" format="1">
  <advance width="387"/>
  <unicode hex="0076"/>
  <outline>
    <contour>
      <point x="197" y="0" type="line"/>
      <point x="383" y="499" type="line"/>
      <point x="363" y="499" type="line"/>
      <point x="190" y="36" type="line"/>
      <point x="18" y="499" type="line"/>
      <point x="-1" y="499" type="line"/>
      <point x="184" y="0" type="line"/>
    </contour>
  </outline>
</glyph>
<glyph name="w" format="1">
  <advance width="632"/>
  <unicode hex="0077"/>
  <outline>
    <contour>
      <point x="173" y="36" type="line"/>
      <point x="20" y="498" type="line"/>
      <point x="0" y="498" type="line"/>
      <point x="168" y="0" type="line"/>
      <point x="180" y="0" type="line"/>
      <point x="312" y="453" type="line"/>
      <point x="447" y="0" type="line"/>
      <point x="460" y="0" type="line"/>
      <point x="627" y="498" type="line"/>
      <point x="607" y="498" type="line"/>
      <point x="453" y="36" type="line"/>
      <point x="318" y="498" type="line"/>
      <point x="307" y="498" type="line"/>
    </contour>
  </outline>
</glyph>
<glyph name="x" format="1">
  <advance width="354"/>
  <unicode hex="0078"/>
  <outline>
    <contour>
      <point x="18" y="498" type="line"/>
      <point x="169" y="250" type="line"/>
      <point x="11" y="0" type="line"/>
      <point x="33" y="0" type="line"/>
      <point x="180" y="233" type="line"/>
      <point x="320" y="0" type="line"/>
      <point x="341" y="0" type="line"/>
      <point x="191" y="249" type="line"/>
      <point x="344" y="498" type="line"/>
      <point x="322" y="498" type="line"/>
      <point x="180" y="264" type="line"/>
      <point x="41" y="498" type="line"/>
    </contour>
  </outline>
</glyph>
<glyph name="braceleft" format="1">
  <advance width="227"/>
  <unicode hex="007B"/>
  <outline>
    <contour>
      <point x="116" y="515" type="curve" smooth="yes"/>
      <point x="116" y="628" type="line" smooth="yes"/>
      <point x="116" y="773"/>
      <point x="208" y="800"/>
      <point x="211" y="801" type="curve"/>
      <point x="208" y="820" type="line"/>
      <point x="204" y="818"/>
      <point x="98" y="789"/>
      <point x="98" y="628" type="curve" smooth="yes"/>
      <point x="98" y="515" type="line" smooth="yes"/>
      <point x="98" y="459"/>
      <point x="92" y="408"/>
      <point x="29" y="360" type="curve" smooth="yes"/>
      <point x="18" y="352" type="line"/>
      <point x="29" y="344" type="line" smooth="yes"/>
      <point x="92" y="295"/>
      <point x="98" y="245"/>
      <point x="98" y="189" type="curve" smooth="yes"/>
      <point x="98" y="76" type="line" smooth="yes"/>
      <point x="98" y="-85"/>
      <point x="204" y="-116"/>
      <point x="208" y="-117" type="curve"/>
      <point x="212" y="-98" type="line"/>
      <point x="208" y="-97"/>
      <point x="116" y="-69"/>
      <point x="116" y="76" type="curve" smooth="yes"/>
      <point x="116" y="189" type="line" smooth="yes"/>
      <point x="116" y="245"/>
      <point x="110" y="300"/>
      <point x="48" y="352" type="curve"/>
      <point x="110" y="404"/>
      <point x="116" y="459"/>
    </contour>
  </outline>
</glyph>
<glyph name="braceright" format="1">
  <advance width="227"/>
  <unicode hex="007D"/>
  <outline>
    <contour>
      <point x="19" y="820" type="curve"/>
      <point x="14" y="801" type="line"/>
      <point x="18" y="800"/>
      <point x="111" y="773"/>
      <point x="111" y="628" type="curve" smooth="yes"/>
      <point x="111" y="515" type="line" smooth="yes"/>
      <point x="111" y="459"/>
      <point x="117" y="404"/>
      <point x="178" y="352" type="curve"/>
      <point x="117" y="300"/>
      <point x="111" y="245"/>
      <point x="111" y="189" type="curve" smooth="yes"/>
      <point x="111" y="76" type="line" smooth="yes"/>
      <point x="111" y="-69"/>
      <point x="18" y="-97"/>
      <point x="14" y="-98" type="curve"/>
      <point x="18" y="-117" type="line"/>
      <point x="22" y="-116"/>
      <point x="128" y="-85"/>
      <point x="128" y="76" type="curve" smooth="yes"/>
      <point x="128" y="189" type="line" smooth="yes"/>
      <point x="128" y="245"/>
      <point x="133" y="295"/>
      <point x="197" y="344" type="curve" smooth="yes"/>
      <point x="208" y="352" type="line"/>
      <point x="197" y="360" type="line" smooth="yes"/>
      <point x="133" y="408"/>
      <point x="128" y="459"/>
      <point x="128" y="515" type="curve" smooth="yes"/>
      <point x="128" y="628" type="line" smooth="yes"/>
      <point x="128" y="789"/>
      <point x="23" y="818"/>
    </contour>
  </outline>
</glyph>
<glyph name="asciitilde" format="1">
  <advance width="330"/>
  <unicode hex="007E"/>
  <outline>
    <contour>
      <point x="309" y="307" type="curve"/>
      <point x="299" y="322" type="line"/>
      <point x="277" y="302"/>
      <point x="256" y="296"/>
      <point x="235" y="297" type="curve" smooth="yes"/>
      <point x="190" y="299"/>
      <point x="146" y="337"/>
      <point x="96" y="337" type="curve" smooth="yes"/>
      <point x="71" y="337"/>
      <point x="46" y="329"/>
      <point x="19" y="304" type="curve"/>
      <point x="30" y="287" type="line"/>
      <point x="52" y="309"/>
      <point x="74" y="317"/>
      <point x="94" y="317" type="curve" smooth="yes"/>
      <point x="137" y="317"/>
      <point x="187" y="278"/>
      <point x="239" y="278" type="curve" smooth="yes"/>
      <point x="261" y="278"/>
      <point x="285" y="286"/>
    </contour>
  </outline>
</glyph>
<glyph name="exclamdown" format="1">
  <advance width="78"/>
  <unicode hex="00A1"/>
  <outline>
    <contour>
      <point x="55" y="18" type="curve" smooth="yes"/>
      <point x="47" y="588" type="line"/>
      <point x="32" y="588" type="line"/>
      <point x="23" y="18" type="line"/>
      <point x="23" y="7"/>
      <point x="32" y="0"/>
      <point x="40" y="0" type="curve" smooth="yes"/>
      <point x="51" y="0"/>
      <point x="55" y="7"/>
    </contour>
    <contour>
      <point x="56" y="691" type="curve" smooth="yes"/>
      <point x="56" y="701"/>
      <point x="48" y="708"/>
      <point x="40" y="708" type="curve" smooth="yes"/>
      <point x="30" y="708"/>
      <point x="22" y="701"/>
      <point x="22" y="691" type="curve" smooth="yes"/>
      <point x="22" y="682"/>
      <point x="30" y="674"/>
      <point x="40" y="674" type="curve" smooth="yes"/>
      <point x="48" y="674"/>
      <point x="56" y="682"/>
    </contour>
  </outline>
</glyph>
<glyph name="cent" format="1">
  <advance width="356"/>
  <unicode hex="00A2"/>
  <outline>
    <contour>
      <point x="330" y="457" type="curve"/>
      <point x="337" y="476" type="line"/>
      <point x="278" y="504"/>
      <point x="212" y="516"/>
      <point x="155" y="504" type="curve" smooth="yes"/>
      <point x="110" y="494"/>
      <point x="71" y="470"/>
      <point x="46" y="426" type="curve" smooth="yes"/>
      <point x="26" y="394"/>
      <point x="20" y="362"/>
      <point x="18" y="318" type="curve"/>
      <point x="18" y="173" type="line" smooth="yes"/>
      <point x="18" y="75"/>
      <point x="62" y="23"/>
      <point x="130" y="1" type="curve" smooth="yes"/>
      <point x="189" y="-18"/>
      <point x="272" y="-13"/>
      <point x="339" y="5" type="curve"/>
      <point x="334" y="25" type="line"/>
      <point x="334" y="25"/>
      <point x="220" y="-9"/>
      <point x="131" y="21" type="curve" smooth="yes"/>
      <point x="59" y="45"/>
      <point x="36" y="98"/>
      <point x="36" y="175" type="curve" smooth="yes"/>
      <point x="36" y="312" type="line" smooth="yes"/>
      <point x="36" y="355"/>
      <point x="46" y="389"/>
      <point x="63" y="416" type="curve" smooth="yes"/>
      <point x="85" y="453"/>
      <point x="120" y="476"/>
      <point x="163" y="485" type="curve" smooth="yes"/>
      <point x="212" y="496"/>
      <point x="272" y="486"/>
    </contour>
    <contour>
      <point x="204" y="621" type="line"/>
      <point x="187" y="621" type="line"/>
      <point x="187" y="-113" type="line"/>
      <point x="204" y="-113" type="line"/>
    </contour>
  </outline>
</glyph>
<glyph name="sterling" format="1">
  <advance width="397"/>
  <unicode hex="00A3"/>
  <outline>
    <contour>
      <point x="123" y="16" type="curve" smooth="yes"/>
      <point x="20" y="16" type="line"/>
      <point x="20" y="0" type="line"/>
      <point x="378" y="0" type="line"/>
      <point x="378" y="16" type="line"/>
      <point x="211" y="16" type="line"/>
      <point x="243" y="29"/>
      <point x="272" y="51"/>
      <point x="288" y="86" type="curve" smooth="yes"/>
      <point x="327" y="167"/>
      <point x="297" y="251"/>
      <point x="228" y="329" type="curve" smooth="yes"/>
      <point x="215" y="344"/>
      <point x="201" y="359"/>
      <point x="187" y="375" type="curve"/>
      <point x="378" y="375" type="line"/>
      <point x="378" y="396" type="line"/>
      <point x="168" y="396" type="line"/>
      <point x="159" y="405"/>
      <point x="153" y="414"/>
      <point x="147" y="420" type="curve" smooth="yes"/>
      <point x="67" y="509"/>
      <point x="56" y="561"/>
      <point x="79" y="617" type="curve" smooth="yes"/>
      <point x="99" y="663"/>
      <point x="148" y="686"/>
      <point x="190" y="689" type="curve" smooth="yes"/>
      <point x="244" y="692"/>
      <point x="296" y="675"/>
      <point x="339" y="650" type="curve"/>
      <point x="345" y="667" type="line"/>
      <point x="294" y="695"/>
      <point x="234" y="712"/>
      <point x="183" y="705" type="curve" smooth="yes"/>
      <point x="134" y="701"/>
      <point x="88" y="678"/>
      <point x="64" y="627" type="curve" smooth="yes"/>
      <point x="26" y="549"/>
      <point x="69" y="480"/>
      <point x="131" y="408" type="curve"/>
      <point x="134" y="404"/>
      <point x="139" y="400"/>
      <point x="142" y="396" type="curve"/>
      <point x="20" y="396" type="line"/>
      <point x="20" y="375" type="line"/>
      <point x="161" y="375" type="line"/>
      <point x="180" y="353"/>
      <point x="199" y="332"/>
      <point x="213" y="316" type="curve" smooth="yes"/>
      <point x="279" y="243"/>
      <point x="300" y="164"/>
      <point x="271" y="97" type="curve" smooth="yes"/>
      <point x="243" y="34"/>
      <point x="179" y="16"/>
    </contour>
  </outline>
</glyph>
<glyph name="currency" format="1">
  <advance width="416"/>
  <unicode hex="00A4"/>
  <outline>
    <contour>
      <point x="316" y="378" type="curve"/>
      <point x="397" y="459" type="line"/>
      <point x="384" y="472" type="line"/>
      <point x="304" y="392" type="line"/>
      <point x="278" y="414"/>
      <point x="244" y="428"/>
      <point x="208" y="428" type="curve" smooth="yes"/>
      <point x="170" y="428"/>
      <point x="136" y="415"/>
      <point x="111" y="392" type="curve"/>
      <point x="31" y="472" type="line"/>
      <point x="18" y="459" type="line"/>
      <point x="98" y="378" type="line"/>
      <point x="76" y="353"/>
      <point x="63" y="319"/>
      <point x="63" y="283" type="curve" smooth="yes"/>
      <point x="63" y="245"/>
      <point x="76" y="212"/>
      <point x="98" y="186" type="curve"/>
      <point x="18" y="106" type="line"/>
      <point x="31" y="92" type="line"/>
      <point x="111" y="173" type="line"/>
      <point x="137" y="151"/>
      <point x="170" y="137"/>
      <point x="208" y="137" type="curve" smooth="yes"/>
      <point x="244" y="137"/>
      <point x="277" y="151"/>
      <point x="302" y="173" type="curve"/>
      <point x="384" y="92" type="line"/>
      <point x="397" y="106" type="line"/>
      <point x="316" y="186" type="line"/>
      <point x="339" y="212"/>
      <point x="352" y="245"/>
      <point x="352" y="283" type="curve" smooth="yes"/>
      <point x="352" y="319"/>
      <point x="338" y="353"/>
    </contour>
    <contour>
      <point x="208" y="157" type="curve" smooth="yes"/>
      <point x="139" y="157"/>
      <point x="82" y="213"/>
      <point x="82" y="283" type="curve" smooth="yes"/>
      <point x="82" y="351"/>
      <point x="139" y="407"/>
      <point x="208" y="407" type="curve" smooth="yes"/>
      <point x="276" y="407"/>
      <point x="332" y="351"/>
      <point x="332" y="283" type="curve" smooth="yes"/>
      <point x="332" y="213"/>
      <point x="276" y="157"/>
    </contour>
  </outline>
</glyph>
<glyph name="yen" format="1">
  <advance width="502"/>
  <unicode hex="00A5"/>
  <outline>
    <contour>
      <point x="241" y="131" type="line"/>
      <point x="91" y="131" type="line"/>
      <point x="91" y="111" type="line"/>
      <point x="241" y="111" type="line"/>
      <point x="241" y="0" type="line"/>
      <point x="258" y="0" type="line"/>
      <point x="258" y="111" type="line"/>
      <point x="410" y="111" type="line"/>
      <point x="410" y="131" type="line"/>
      <point x="258" y="131" type="line"/>
      <point x="258" y="217" type="line"/>
      <point x="410" y="217" type="line"/>
      <point x="410" y="235" type="line"/>
      <point x="258" y="235" type="line"/>
      <point x="258" y="341" type="line"/>
      <point x="486" y="698" type="line"/>
      <point x="463" y="698" type="line"/>
      <point x="250" y="361" type="line"/>
      <point x="38" y="698" type="line"/>
      <point x="15" y="698" type="line"/>
      <point x="241" y="341" type="line"/>
      <point x="241" y="235" type="line"/>
      <point x="91" y="235" type="line"/>
      <point x="91" y="217" type="line"/>
      <point x="241" y="217" type="line"/>
    </contour>
  </outline>
</glyph>
<glyph name="copyright" format="1">
  <advance width="668"/>
  <unicode hex="00A9"/>
  <outline>
    <contour>
      <point x="649" y="191" type="curve" smooth="yes"/>
      <point x="649" y="319" type="line" smooth="yes"/>
      <point x="649" y="490"/>
      <point x="517" y="577"/>
      <point x="333" y="579" type="curve" smooth="yes"/>
      <point x="150" y="577"/>
      <point x="18" y="490"/>
      <point x="18" y="319" type="curve" smooth="yes"/>
      <point x="18" y="191" type="line" smooth="yes"/>
      <point x="18" y="20"/>
      <point x="150" y="-67"/>
      <point x="333" y="-68" type="curve" smooth="yes"/>
      <point x="517" y="-67"/>
      <point x="649" y="20"/>
    </contour>
    <contour>
      <point x="632" y="316" type="curve" smooth="yes"/>
      <point x="632" y="194" type="line" smooth="yes"/>
      <point x="632" y="33"/>
      <point x="507" y="-51"/>
      <point x="333" y="-52" type="curve" smooth="yes"/>
      <point x="159" y="-51"/>
      <point x="34" y="33"/>
      <point x="34" y="194" type="curve" smooth="yes"/>
      <point x="34" y="316" type="line" smooth="yes"/>
      <point x="34" y="477"/>
      <point x="159" y="561"/>
      <point x="333" y="561" type="curve" smooth="yes"/>
      <point x="507" y="561"/>
      <point x="632" y="477"/>
    </contour>
    <contour>
      <point x="480" y="404" type="curve"/>
      <point x="488" y="420" type="line"/>
      <point x="447" y="442"/>
      <point x="400" y="453"/>
      <point x="346" y="453" type="curve" smooth="yes"/>
      <point x="305" y="453"/>
      <point x="268" y="446"/>
      <point x="240" y="428" type="curve" smooth="yes"/>
      <point x="182" y="393"/>
      <point x="153" y="350"/>
      <point x="153" y="249" type="curve" smooth="yes"/>
      <point x="153" y="165"/>
      <point x="186" y="110"/>
      <point x="234" y="82" type="curve"/>
      <point x="283" y="58"/>
      <point x="330" y="58"/>
      <point x="351" y="58" type="curve" smooth="yes"/>
      <point x="403" y="58"/>
      <point x="457" y="68"/>
      <point x="513" y="90" type="curve"/>
      <point x="507" y="109" type="line"/>
      <point x="448" y="86"/>
      <point x="396" y="75"/>
      <point x="358" y="75" type="curve" smooth="yes"/>
      <point x="319" y="75"/>
      <point x="276" y="80"/>
      <point x="244" y="99" type="curve" smooth="yes"/>
      <point x="202" y="125"/>
      <point x="174" y="174"/>
      <point x="174" y="254" type="curve" smooth="yes"/>
      <point x="174" y="316"/>
      <point x="194" y="364"/>
      <point x="219" y="388" type="curve" smooth="yes"/>
      <point x="243" y="414"/>
      <point x="289" y="435"/>
      <point x="350" y="435" type="curve" smooth="yes"/>
      <point x="391" y="435"/>
      <point x="433" y="425"/>
    </contour>
  </outline>
</glyph>
<glyph name="ordfeminine" format="1">
  <advance width="285"/>
  <unicode hex="00AA"/>
  <outline>
    <contour>
      <point x="269" y="389" type="curve"/>
      <point x="269" y="391"/>
      <point x="269" y="553"/>
      <point x="269" y="553" type="curve"/>
      <point x="269" y="606"/>
      <point x="258" y="645"/>
      <point x="235" y="669" type="curve" smooth="yes"/>
      <point x="212" y="694"/>
      <point x="168" y="707"/>
      <point x="105" y="707" type="curve"/>
      <point x="102" y="691" type="line"/>
      <point x="158" y="690"/>
      <point x="197" y="680"/>
      <point x="221" y="658" type="curve" smooth="yes"/>
      <point x="241" y="639"/>
      <point x="251" y="609"/>
      <point x="251" y="568" type="curve"/>
      <point x="195" y="608"/>
      <point x="144" y="628"/>
      <point x="99" y="628" type="curve" smooth="yes"/>
      <point x="26" y="628"/>
      <point x="1" y="564"/>
      <point x="1" y="515" type="curve" smooth="yes"/>
      <point x="1" y="453"/>
      <point x="20" y="374"/>
      <point x="169" y="378" type="curve" smooth="yes"/>
      <point x="190" y="380"/>
      <point x="222" y="383"/>
    </contour>
    <contour>
      <point x="250" y="547" type="curve"/>
      <point x="250" y="404" type="line"/>
      <point x="186" y="395"/>
      <point x="105" y="389"/>
      <point x="66" y="414" type="curve" smooth="yes"/>
      <point x="29" y="436"/>
      <point x="20" y="468"/>
      <point x="20" y="512" type="curve" smooth="yes"/>
      <point x="20" y="549"/>
      <point x="35" y="612"/>
      <point x="100" y="612" type="curve" smooth="yes"/>
      <point x="143" y="612"/>
      <point x="193" y="590"/>
    </contour>
  </outline>
</glyph>
<glyph name="registered" format="1">
  <advance width="668"/>
  <unicode hex="00AE"/>
  <outline>
    <contour>
      <point x="649" y="191" type="curve" smooth="yes"/>
      <point x="649" y="319" type="line" smooth="yes"/>
      <point x="649" y="490"/>
      <point x="517" y="577"/>
      <point x="333" y="579" type="curve" smooth="yes"/>
      <point x="150" y="577"/>
      <point x="18" y="490"/>
      <point x="18" y="319" type="curve" smooth="yes"/>
      <point x="18" y="191" type="line" smooth="yes"/>
      <point x="18" y="20"/>
      <point x="150" y="-67"/>
      <point x="333" y="-68" type="curve" smooth="yes"/>
      <point x="517" y="-67"/>
      <point x="649" y="20"/>
    </contour>
    <contour>
      <point x="632" y="316" type="curve" smooth="yes"/>
      <point x="632" y="194" type="line" smooth="yes"/>
      <point x="632" y="33"/>
      <point x="507" y="-51"/>
      <point x="333" y="-52" type="curve" smooth="yes"/>
      <point x="159" y="-51"/>
      <point x="34" y="33"/>
      <point x="34" y="194" type="curve" smooth="yes"/>
      <point x="34" y="316" type="line" smooth="yes"/>
      <point x="34" y="477"/>
      <point x="159" y="561"/>
      <point x="333" y="561" type="curve" smooth="yes"/>
      <point x="507" y="561"/>
      <point x="632" y="477"/>
    </contour>
    <contour>
      <point x="174" y="442" type="line"/>
      <point x="174" y="59" type="line"/>
      <point x="194" y="59" type="line"/>
      <point x="194" y="212" type="line"/>
      <point x="407" y="212" type="line"/>
      <point x="490" y="59" type="line"/>
      <point x="510" y="59" type="line"/>
      <point x="428" y="215" type="line"/>
      <point x="483" y="219"/>
      <point x="514" y="246"/>
      <point x="514" y="328" type="curve" smooth="yes"/>
      <point x="513" y="418"/>
      <point x="472" y="442"/>
      <point x="409" y="442" type="curve" smooth="yes"/>
    </contour>
    <contour>
      <point x="417" y="232" type="curve" smooth="yes"/>
      <point x="194" y="232" type="line"/>
      <point x="194" y="422" type="line"/>
      <point x="417" y="422" type="line" smooth="yes"/>
      <point x="474" y="422"/>
      <point x="495" y="393"/>
      <point x="496" y="327" type="curve" smooth="yes"/>
      <point x="496" y="262"/>
      <point x="477" y="232"/>
    </contour>
  </outline>
</glyph>
<glyph name="degree" format="1">
  <advance width="324"/>
  <unicode hex="00B0"/>
  <outline>
    <contour>
      <point x="307" y="563" type="curve" smooth="yes"/>
      <point x="307" y="643"/>
      <point x="242" y="708"/>
      <point x="162" y="708" type="curve" smooth="yes"/>
      <point x="81" y="708"/>
      <point x="16" y="643"/>
      <point x="16" y="563" type="curve" smooth="yes"/>
      <point x="16" y="483"/>
      <point x="81" y="418"/>
      <point x="162" y="418" type="curve" smooth="yes"/>
      <point x="242" y="418"/>
      <point x="307" y="483"/>
    </contour>
    <contour>
      <point x="162" y="689" type="curve" smooth="yes"/>
      <point x="231" y="689"/>
      <point x="287" y="632"/>
      <point x="287" y="563" type="curve" smooth="yes"/>
      <point x="287" y="494"/>
      <point x="231" y="438"/>
      <point x="162" y="438" type="curve" smooth="yes"/>
      <point x="92" y="438"/>
      <point x="36" y="494"/>
      <point x="36" y="563" type="curve" smooth="yes"/>
      <point x="36" y="632"/>
      <point x="92" y="689"/>
    </contour>
  </outline>
</glyph>
<glyph name="plusminus" format="1">
  <advance width="356"/>
  <unicode hex="00B1"/>
  <outline>
    <contour>
      <point x="169" y="246" type="line"/>
      <point x="18" y="246" type="line"/>
      <point x="18" y="226" type="line"/>
      <point x="337" y="226" type="line"/>
      <point x="337" y="246" type="line"/>
      <point x="188" y="246" type="line"/>
      <point x="188" y="396" type="line"/>
      <point x="338" y="396" type="line"/>
      <point x="338" y="414" type="line"/>
      <point x="188" y="414" type="line"/>
      <point x="188" y="563" type="line"/>
      <point x="169" y="563" type="line"/>
      <point x="169" y="414" type="line"/>
      <point x="19" y="414" type="line"/>
      <point x="19" y="396" type="line"/>
      <point x="169" y="396" type="line"/>
    </contour>
  </outline>
</glyph>
<glyph name="paragraph" format="1">
  <advance width="572"/>
  <unicode hex="00B6"/>
  <outline>
    <contour>
      <point x="431" y="282" type="line"/>
      <point x="431" y="1" type="line"/>
      <point x="450" y="1" type="line"/>
      <point x="450" y="681" type="line"/>
      <point x="529" y="679" type="line"/>
      <point x="529" y="1" type="line"/>
      <point x="549" y="1" type="line"/>
      <point x="549" y="700" type="line"/>
      <point x="201" y="700" type="line" smooth="yes"/>
      <point x="75" y="700"/>
      <point x="18" y="624"/>
      <point x="18" y="493" type="curve" smooth="yes"/>
      <point x="18" y="356"/>
      <point x="75" y="282"/>
      <point x="208" y="282" type="curve" smooth="yes"/>
    </contour>
    <contour>
      <point x="200" y="680" type="curve" smooth="yes"/>
      <point x="431" y="680" type="line"/>
      <point x="431" y="300" type="line"/>
      <point x="210" y="300" type="line" smooth="yes"/>
      <point x="87" y="300"/>
      <point x="36" y="370"/>
      <point x="36" y="493" type="curve" smooth="yes"/>
      <point x="36" y="612"/>
      <point x="85" y="680"/>
    </contour>
  </outline>
</glyph>
<glyph name="guillemotright" format="1">
  <advance width="458"/>
  <unicode hex="00BB"/>
  <outline>
    <contour>
      <point x="33" y="79" type="line"/>
      <point x="220" y="266" type="line"/>
      <point x="33" y="453" type="line"/>
      <point x="18" y="440" type="line"/>
      <point x="191" y="266" type="line"/>
      <point x="19" y="96" type="line"/>
    </contour>
    <contour>
      <point x="253" y="79" type="line"/>
      <point x="439" y="266" type="line"/>
      <point x="253" y="453" type="line"/>
      <point x="237" y="440" type="line"/>
      <point x="410" y="266" type="line"/>
      <point x="238" y="96" type="line"/>
    </contour>
  </outline>
</glyph>
<glyph name="questiondown" format="1">
  <advance width="389"/>
  <unicode hex="00BF"/>
  <outline>
    <contour>
      <point x="371" y="162" type="curve"/>
      <point x="351" y="162" type="line"/>
      <point x="351" y="53"/>
      <point x="271" y="3"/>
      <point x="194" y="3" type="curve" smooth="yes"/>
      <point x="98" y="3"/>
      <point x="35" y="76"/>
      <point x="35" y="157" type="curve" smooth="yes"/>
      <point x="35" y="210"/>
      <point x="54" y="246"/>
      <point x="98" y="299" type="curve" smooth="yes"/>
      <point x="168" y="382"/>
      <point x="215" y="398"/>
      <point x="215" y="505" type="curve" smooth="yes"/>
      <point x="215" y="573" type="line"/>
      <point x="196" y="573" type="line"/>
      <point x="196" y="573"/>
      <point x="196" y="522"/>
      <point x="196" y="499" type="curve" smooth="yes"/>
      <point x="196" y="421"/>
      <point x="172" y="404"/>
      <point x="91" y="319" type="curve" smooth="yes"/>
      <point x="48" y="273"/>
      <point x="18" y="229"/>
      <point x="18" y="156" type="curve" smooth="yes"/>
      <point x="18" y="46"/>
      <point x="106" y="-13"/>
      <point x="194" y="-15" type="curve" smooth="yes"/>
      <point x="282" y="-18"/>
      <point x="371" y="40"/>
    </contour>
    <contour>
      <point x="205" y="695" type="curve" smooth="yes"/>
      <point x="196" y="695"/>
      <point x="188" y="689"/>
      <point x="188" y="679" type="curve" smooth="yes"/>
      <point x="188" y="670"/>
      <point x="196" y="662"/>
      <point x="205" y="662" type="curve" smooth="yes"/>
      <point x="215" y="662"/>
      <point x="222" y="670"/>
      <point x="222" y="679" type="curve" smooth="yes"/>
      <point x="222" y="689"/>
      <point x="215" y="695"/>
    </contour>
  </outline>
</glyph>
<glyph name="Agrave" format="1">
  <advance width="512"/>
  <unicode hex="00C0"/>
  <outline>
    <contour>
      <point x="249" y="698" type="line"/>
      <point x="4" y="0" type="line"/>
      <point x="24" y="0" type="line"/>
      <point x="122" y="280" type="line"/>
      <point x="389" y="280" type="line"/>
      <point x="487" y="0" type="line"/>
      <point x="508" y="0" type="line"/>
      <point x="263" y="698" type="line"/>
    </contour>
    <contour>
      <point x="383" y="299" type="line"/>
      <point x="130" y="299" type="line"/>
      <point x="256" y="658" type="line"/>
    </contour>
    <contour>
      <point x="186" y="840" type="curve"/>
      <point x="241" y="740" type="line"/>
      <point x="262" y="740" type="line"/>
      <point x="211" y="855" type="line" smooth="yes"/>
      <point x="207" y="864"/>
      <point x="198" y="869"/>
      <point x="189" y="864" type="curve"/>
      <point x="180" y="859"/>
      <point x="180" y="849"/>
    </contour>
  </outline>
</glyph>
<glyph name="Aacute" format="1">
  <advance width="512"/>
  <unicode hex="00C1"/>
  <outline>
    <contour>
      <point x="249" y="698" type="line"/>
      <point x="4" y="0" type="line"/>
      <point x="24" y="0" type="line"/>
      <point x="122" y="280" type="line"/>
      <point x="389" y="280" type="line"/>
      <point x="487" y="0" type="line"/>
      <point x="508" y="0" type="line"/>
      <point x="263" y="698" type="line"/>
    </contour>
    <contour>
      <point x="383" y="299" type="line"/>
      <point x="130" y="299" type="line"/>
      <point x="256" y="658" type="line"/>
    </contour>
    <contour>
      <point x="306" y="871" type="curve" smooth="yes"/>
      <point x="248" y="741" type="line"/>
      <point x="272" y="741" type="line"/>
      <point x="334" y="856" type="line"/>
      <point x="340" y="865"/>
      <point x="340" y="877"/>
      <point x="330" y="882" type="curve" smooth="yes"/>
      <point x="321" y="887"/>
      <point x="310" y="881"/>
    </contour>
  </outline>
</glyph>
<glyph name="Acircumflex" format="1">
  <advance width="514"/>
  <unicode hex="00C2"/>
  <outline>
    <contour>
      <point x="250" y="698" type="line"/>
      <point x="5" y="0" type="line"/>
      <point x="25" y="0" type="line"/>
      <point x="123" y="280" type="line"/>
      <point x="391" y="280" type="line"/>
      <point x="488" y="0" type="line"/>
      <point x="509" y="0" type="line"/>
      <point x="264" y="698" type="line"/>
    </contour>
    <contour>
      <point x="384" y="299" type="line"/>
      <point x="131" y="299" type="line"/>
      <point x="257" y="658" type="line"/>
    </contour>
    <contour>
      <point x="263" y="846" type="line"/>
      <point x="369" y="741" type="line"/>
      <point x="384" y="757" type="line"/>
      <point x="263" y="875" type="line"/>
      <point x="141" y="756" type="line"/>
      <point x="155" y="741" type="line"/>
    </contour>
  </outline>
</glyph>
<glyph name="Atilde" format="1">
  <advance width="512"/>
  <unicode hex="00C3"/>
  <outline>
    <contour>
      <point x="249" y="698" type="line"/>
      <point x="4" y="0" type="line"/>
      <point x="24" y="0" type="line"/>
      <point x="122" y="280" type="line"/>
      <point x="389" y="280" type="line"/>
      <point x="487" y="0" type="line"/>
      <point x="508" y="0" type="line"/>
      <point x="263" y="698" type="line"/>
    </contour>
    <contour>
      <point x="383" y="299" type="line"/>
      <point x="130" y="299" type="line"/>
      <point x="256" y="658" type="line"/>
    </contour>
    <contour>
      <point x="378" y="787" type="curve"/>
      <point x="370" y="804" type="line"/>
      <point x="346" y="785"/>
      <point x="331" y="781"/>
      <point x="320" y="781" type="curve" smooth="yes"/>
      <point x="286" y="780"/>
      <point x="248" y="813"/>
      <point x="205" y="813" type="curve"/>
      <point x="185" y="812"/>
      <point x="164" y="805"/>
      <point x="143" y="783" type="curve"/>
      <point x="154" y="766" type="line"/>
      <point x="159" y="771"/>
      <point x="177" y="790"/>
      <point x="202" y="791" type="curve" smooth="yes"/>
      <point x="241" y="791"/>
      <point x="277" y="759"/>
      <point x="319" y="759" type="curve"/>
      <point x="338" y="760"/>
      <point x="358" y="767"/>
    </contour>
  </outline>
</glyph>
<glyph name="Adieresis" format="1">
  <advance width="512"/>
  <unicode hex="00C4"/>
  <outline>
    <contour>
      <point x="249" y="698" type="line"/>
      <point x="4" y="0" type="line"/>
      <point x="24" y="0" type="line"/>
      <point x="122" y="280" type="line"/>
      <point x="389" y="280" type="line"/>
      <point x="487" y="0" type="line"/>
      <point x="508" y="0" type="line"/>
      <point x="263" y="698" type="line"/>
    </contour>
    <contour>
      <point x="383" y="299" type="line"/>
      <point x="130" y="299" type="line"/>
      <point x="256" y="658" type="line"/>
    </contour>
    <contour>
      <point x="340" y="817" type="curve" smooth="yes"/>
      <point x="331" y="817"/>
      <point x="323" y="810"/>
      <point x="323" y="801" type="curve" smooth="yes"/>
      <point x="323" y="791"/>
      <point x="331" y="783"/>
      <point x="340" y="783" type="curve" smooth="yes"/>
      <point x="350" y="783"/>
      <point x="356" y="791"/>
      <point x="356" y="801" type="curve" smooth="yes"/>
      <point x="356" y="810"/>
      <point x="350" y="817"/>
    </contour>
    <contour>
      <point x="199" y="801" type="curve" smooth="yes"/>
      <point x="199" y="810"/>
      <point x="191" y="817"/>
      <point x="183" y="817" type="curve" smooth="yes"/>
      <point x="173" y="817"/>
      <point x="165" y="810"/>
      <point x="165" y="801" type="curve" smooth="yes"/>
      <point x="165" y="791"/>
      <point x="173" y="783"/>
      <point x="183" y="783" type="curve" smooth="yes"/>
      <point x="191" y="783"/>
      <point x="199" y="791"/>
    </contour>
  </outline>
</glyph>
<glyph name="Aring" format="1">
  <advance width="514"/>
  <unicode hex="00C5"/>
  <outline>
    <contour>
      <point x="242" y="674" type="line"/>
      <point x="5" y="0" type="line"/>
      <point x="25" y="0" type="line"/>
      <point x="123" y="279" type="line"/>
      <point x="391" y="279" type="line"/>
      <point x="488" y="0" type="line"/>
      <point x="509" y="0" type="line"/>
      <point x="273" y="674" type="line"/>
    </contour>
    <contour>
      <point x="384" y="299" type="line"/>
      <point x="131" y="299" type="line"/>
      <point x="257" y="658" type="line"/>
    </contour>
    <contour>
      <point x="256" y="660" type="curve" smooth="yes"/>
      <point x="320" y="660"/>
      <point x="371" y="711"/>
      <point x="371" y="773" type="curve" smooth="yes"/>
      <point x="371" y="836"/>
      <point x="320" y="888"/>
      <point x="256" y="888" type="curve" smooth="yes"/>
      <point x="194" y="888"/>
      <point x="143" y="836"/>
      <point x="143" y="773" type="curve" smooth="yes"/>
      <point x="143" y="711"/>
      <point x="194" y="660"/>
    </contour>
    <contour>
      <point x="351" y="773" type="curve" smooth="yes"/>
      <point x="351" y="722"/>
      <point x="309" y="680"/>
      <point x="256" y="680" type="curve" smooth="yes"/>
      <point x="205" y="680"/>
      <point x="163" y="722"/>
      <point x="163" y="773" type="curve" smooth="yes"/>
      <point x="163" y="826"/>
      <point x="205" y="868"/>
      <point x="256" y="868" type="curve" smooth="yes"/>
      <point x="309" y="868"/>
      <point x="351" y="826"/>
    </contour>
  </outline>
</glyph>
<glyph name="AE" format="1">
  <advance width="708"/>
  <unicode hex="00C6"/>
  <outline>
    <contour>
      <point x="698" y="20" type="line"/>
      <point x="386" y="20" type="line"/>
      <point x="386" y="393" type="line"/>
      <point x="606" y="393" type="line"/>
      <point x="614" y="413" type="line"/>
      <point x="386" y="413" type="line"/>
      <point x="386" y="678" type="line"/>
      <point x="698" y="678" type="line"/>
      <point x="698" y="698" type="line"/>
      <point x="274" y="698" type="line"/>
      <point x="3" y="0" type="line"/>
      <point x="25" y="0" type="line"/>
      <point x="133" y="279" type="line"/>
      <point x="366" y="279" type="line"/>
      <point x="366" y="0" type="line"/>
      <point x="698" y="0" type="line"/>
    </contour>
    <contour>
      <point x="366" y="678" type="line"/>
      <point x="366" y="299" type="line"/>
      <point x="140" y="299" type="line"/>
      <point x="286" y="678" type="line"/>
    </contour>
  </outline>
</glyph>
<glyph name="Ccedilla" format="1">
  <advance width="384"/>
  <unicode hex="00C7"/>
  <outline>
    <contour>
      <point x="342" y="658" type="curve"/>
      <point x="350" y="675" type="line"/>
      <point x="309" y="697"/>
      <point x="262" y="708"/>
      <point x="208" y="708" type="curve" smooth="yes"/>
      <point x="166" y="708"/>
      <point x="130" y="700"/>
      <point x="101" y="683" type="curve" smooth="yes"/>
      <point x="43" y="647"/>
      <point x="14" y="603"/>
      <point x="14" y="503" type="curve" smooth="yes"/>
      <point x="14" y="183" type="line" smooth="yes"/>
      <point x="14" y="99"/>
      <point x="47" y="42"/>
      <point x="96" y="15" type="curve" smooth="yes"/>
      <point x="144" y="-10"/>
      <point x="193" y="-10"/>
      <point x="213" y="-10" type="curve" smooth="yes"/>
      <point x="264" y="-10"/>
      <point x="318" y="1"/>
      <point x="375" y="23" type="curve"/>
      <point x="369" y="41" type="line"/>
      <point x="310" y="18"/>
      <point x="258" y="7"/>
      <point x="219" y="7" type="curve" smooth="yes"/>
      <point x="180" y="7"/>
      <point x="136" y="12"/>
      <point x="106" y="32" type="curve" smooth="yes"/>
      <point x="64" y="58"/>
      <point x="32" y="106"/>
      <point x="33" y="185" type="curve" smooth="yes"/>
      <point x="33" y="512" type="line" smooth="yes"/>
      <point x="33" y="572"/>
      <point x="55" y="619"/>
      <point x="79" y="643" type="curve" smooth="yes"/>
      <point x="105" y="668"/>
      <point x="151" y="689"/>
      <point x="211" y="689" type="curve" smooth="yes"/>
      <point x="252" y="689"/>
      <point x="295" y="679"/>
    </contour>
    <contour>
      <point x="229" y="-53" type="curve" smooth="yes"/>
      <point x="224" y="-53"/>
      <point x="218" y="-53"/>
      <point x="195" y="-53" type="curve"/>
      <point x="221" y="-7" type="line"/>
      <point x="200" y="-7" type="line"/>
      <point x="172" y="-53" type="line"/>
      <point x="172" y="-73" type="line"/>
      <point x="193" y="-73"/>
      <point x="212" y="-73"/>
      <point x="229" y="-73" type="curve" smooth="yes"/>
      <point x="271" y="-73"/>
      <point x="301" y="-102"/>
      <point x="301" y="-143" type="curve" smooth="yes"/>
      <point x="301" y="-206"/>
      <point x="246" y="-212"/>
      <point x="229" y="-213" type="curve" smooth="yes"/>
      <point x="178" y="-216"/>
      <point x="135" y="-202"/>
      <point x="134" y="-202" type="curve"/>
      <point x="132" y="-210"/>
      <point x="131" y="-212"/>
      <point x="129" y="-219" type="curve"/>
      <point x="162" y="-228"/>
      <point x="185" y="-233"/>
      <point x="230" y="-231" type="curve" smooth="yes"/>
      <point x="273" y="-230"/>
      <point x="319" y="-205"/>
      <point x="319" y="-142" type="curve" smooth="yes"/>
      <point x="319" y="-91"/>
      <point x="280" y="-53"/>
    </contour>
  </outline>
</glyph>
<glyph name="Egrave" format="1">
  <advance width="363"/>
  <unicode hex="00C8"/>
  <outline>
    <contour>
      <point x="352" y="19" type="line"/>
      <point x="40" y="19" type="line"/>
      <point x="40" y="393" type="line"/>
      <point x="261" y="393" type="line"/>
      <point x="267" y="411" type="line"/>
      <point x="40" y="411" type="line"/>
      <point x="40" y="679" type="line"/>
      <point x="354" y="679" type="line"/>
      <point x="354" y="698" type="line"/>
      <point x="21" y="698" type="line"/>
      <point x="21" y="0" type="line"/>
      <point x="352" y="0" type="line"/>
    </contour>
    <contour>
      <point x="120" y="843" type="curve" smooth="yes"/>
      <point x="175" y="743" type="line"/>
      <point x="197" y="743" type="line"/>
      <point x="145" y="857" type="line"/>
      <point x="142" y="866"/>
      <point x="132" y="871"/>
      <point x="124" y="866" type="curve"/>
      <point x="116" y="861"/>
      <point x="116" y="851"/>
    </contour>
  </outline>
</glyph>
<glyph name="Eacute" format="1">
  <advance width="363"/>
  <unicode hex="00C9"/>
  <outline>
    <contour>
      <point x="352" y="19" type="line"/>
      <point x="40" y="19" type="line"/>
      <point x="40" y="393" type="line"/>
      <point x="261" y="393" type="line"/>
      <point x="267" y="411" type="line"/>
      <point x="40" y="411" type="line"/>
      <point x="40" y="679" type="line"/>
      <point x="354" y="679" type="line"/>
      <point x="354" y="698" type="line"/>
      <point x="21" y="698" type="line"/>
      <point x="21" y="0" type="line"/>
      <point x="352" y="0" type="line"/>
    </contour>
    <contour>
      <point x="233" y="871" type="curve" smooth="yes"/>
      <point x="176" y="743" type="line"/>
      <point x="199" y="743" type="line"/>
      <point x="262" y="856" type="line"/>
      <point x="267" y="865"/>
      <point x="267" y="877"/>
      <point x="257" y="882" type="curve"/>
      <point x="248" y="887"/>
      <point x="238" y="881"/>
    </contour>
  </outline>
</glyph>
<glyph name="Ecircumflex" format="1">
  <advance width="364"/>
  <unicode hex="00CA"/>
  <outline>
    <contour>
      <point x="353" y="19" type="line"/>
      <point x="41" y="19" type="line"/>
      <point x="41" y="393" type="line"/>
      <point x="262" y="393" type="line"/>
      <point x="268" y="411" type="line"/>
      <point x="41" y="411" type="line"/>
      <point x="41" y="679" type="line"/>
      <point x="355" y="679" type="line"/>
      <point x="355" y="698" type="line"/>
      <point x="22" y="698" type="line"/>
      <point x="22" y="0" type="line"/>
      <point x="353" y="0" type="line"/>
    </contour>
    <contour>
      <point x="190" y="847" type="line"/>
      <point x="295" y="743" type="line"/>
      <point x="310" y="758" type="line"/>
      <point x="190" y="876" type="line"/>
      <point x="67" y="758" type="line"/>
      <point x="81" y="744" type="line"/>
    </contour>
  </outline>
</glyph>
<glyph name="Edieresis" format="1">
  <advance width="364"/>
  <unicode hex="00CB"/>
  <outline>
    <contour>
      <point x="353" y="19" type="line"/>
      <point x="41" y="19" type="line"/>
      <point x="41" y="393" type="line"/>
      <point x="262" y="393" type="line"/>
      <point x="268" y="411" type="line"/>
      <point x="41" y="411" type="line"/>
      <point x="41" y="679" type="line"/>
      <point x="355" y="679" type="line"/>
      <point x="355" y="698" type="line"/>
      <point x="22" y="698" type="line"/>
      <point x="22" y="0" type="line"/>
      <point x="353" y="0" type="line"/>
    </contour>
    <contour>
      <point x="285" y="802" type="curve" smooth="yes"/>
      <point x="285" y="811"/>
      <point x="277" y="818"/>
      <point x="267" y="818" type="curve" smooth="yes"/>
      <point x="258" y="818"/>
      <point x="251" y="811"/>
      <point x="251" y="802" type="curve" smooth="yes"/>
      <point x="251" y="792"/>
      <point x="258" y="784"/>
      <point x="267" y="784" type="curve" smooth="yes"/>
      <point x="277" y="784"/>
      <point x="285" y="792"/>
    </contour>
    <contour>
      <point x="127" y="802" type="curve" smooth="yes"/>
      <point x="127" y="811"/>
      <point x="119" y="818"/>
      <point x="110" y="818" type="curve" smooth="yes"/>
      <point x="100" y="818"/>
      <point x="92" y="811"/>
      <point x="92" y="802" type="curve" smooth="yes"/>
      <point x="92" y="792"/>
      <point x="100" y="784"/>
      <point x="110" y="784" type="curve" smooth="yes"/>
      <point x="119" y="784"/>
      <point x="127" y="792"/>
    </contour>
  </outline>
</glyph>
<glyph name="Iacute" format="1">
  <advance width="159"/>
  <unicode hex="00CD"/>
  <outline>
    <contour>
      <point x="84" y="0" type="line"/>
      <point x="102" y="0" type="line"/>
      <point x="102" y="698" type="line"/>
      <point x="-2" y="698" type="line"/>
      <point x="-2" y="679" type="line"/>
      <point x="84" y="676" type="line"/>
    </contour>
    <contour>
      <point x="133" y="855" type="curve"/>
      <point x="81" y="740" type="line"/>
      <point x="103" y="740" type="line"/>
      <point x="158" y="840" type="line" smooth="yes"/>
      <point x="163" y="849"/>
      <point x="163" y="859"/>
      <point x="155" y="864" type="curve" smooth="yes"/>
      <point x="146" y="869"/>
      <point x="136" y="864"/>
    </contour>
  </outline>
</glyph>
<glyph name="Icircumflex" format="1">
  <advance width="215"/>
  <unicode hex="00CE"/>
  <outline>
    <contour>
      <point x="99" y="0" type="line"/>
      <point x="118" y="0" type="line"/>
      <point x="118" y="698" type="line"/>
      <point x="13" y="698" type="line"/>
      <point x="13" y="679" type="line"/>
      <point x="99" y="676" type="line"/>
    </contour>
    <contour>
      <point x="109" y="843" type="line"/>
      <point x="213" y="738" type="line"/>
      <point x="229" y="754" type="line"/>
      <point x="109" y="871" type="line"/>
      <point x="-13" y="754" type="line"/>
      <point x="1" y="739" type="line"/>
    </contour>
  </outline>
</glyph>
<glyph name="Idieresis" format="1">
  <advance width="177"/>
  <unicode hex="00CF"/>
  <outline>
    <contour>
      <point x="102" y="0" type="line"/>
      <point x="121" y="0" type="line"/>
      <point x="121" y="698" type="line"/>
      <point x="16" y="698" type="line"/>
      <point x="16" y="679" type="line"/>
      <point x="102" y="676" type="line"/>
    </contour>
    <contour>
      <point x="161" y="817" type="curve" smooth="yes"/>
      <point x="152" y="817"/>
      <point x="144" y="810"/>
      <point x="144" y="800" type="curve" smooth="yes"/>
      <point x="144" y="791"/>
      <point x="152" y="783"/>
      <point x="161" y="783" type="curve" smooth="yes"/>
      <point x="170" y="783"/>
      <point x="178" y="791"/>
      <point x="178" y="800" type="curve" smooth="yes"/>
      <point x="178" y="810"/>
      <point x="170" y="817"/>
    </contour>
    <contour>
      <point x="3" y="817" type="curve" smooth="yes"/>
      <point x="-7" y="817"/>
      <point x="-14" y="810"/>
      <point x="-14" y="800" type="curve" smooth="yes"/>
      <point x="-14" y="791"/>
      <point x="-7" y="783"/>
      <point x="3" y="783" type="curve" smooth="yes"/>
      <point x="12" y="783"/>
      <point x="20" y="791"/>
      <point x="20" y="800" type="curve" smooth="yes"/>
      <point x="20" y="810"/>
      <point x="12" y="817"/>
    </contour>
  </outline>
</glyph>
<glyph name="Eth" format="1">
  <advance width="457"/>
  <unicode hex="00D0"/>
  <outline>
    <contour>
      <point x="210" y="698" type="curve" smooth="yes"/>
      <point x="22" y="698" type="line"/>
      <point x="22" y="0" type="line"/>
      <point x="230" y="0" type="line" smooth="yes"/>
      <point x="371" y="0"/>
      <point x="441" y="67"/>
      <point x="441" y="199" type="curve" smooth="yes"/>
      <point x="441" y="473" type="line" smooth="yes"/>
      <point x="441" y="609"/>
      <point x="360" y="698"/>
    </contour>
    <contour>
      <point x="220" y="20" type="curve" smooth="yes"/>
      <point x="41" y="20" type="line"/>
      <point x="41" y="393" type="line"/>
      <point x="255" y="393" type="line"/>
      <point x="260" y="413" type="line"/>
      <point x="41" y="413" type="line"/>
      <point x="41" y="678" type="line"/>
      <point x="220" y="678" type="line" smooth="yes"/>
      <point x="355" y="678"/>
      <point x="422" y="592"/>
      <point x="422" y="466" type="curve" smooth="yes"/>
      <point x="422" y="213" type="line" smooth="yes"/>
      <point x="422" y="63"/>
      <point x="348" y="20"/>
    </contour>
  </outline>
</glyph>
<glyph name="Ntilde" format="1">
  <advance width="535"/>
  <unicode hex="00D1"/>
  <outline>
    <contour>
      <point x="495" y="32" type="line"/>
      <point x="38" y="698" type="line"/>
      <point x="21" y="698" type="line"/>
      <point x="21" y="0" type="line"/>
      <point x="38" y="0" type="line"/>
      <point x="38" y="668" type="line"/>
      <point x="495" y="0" type="line"/>
      <point x="512" y="0" type="line"/>
      <point x="512" y="698" type="line"/>
      <point x="495" y="698" type="line"/>
    </contour>
    <contour>
      <point x="384" y="794" type="curve"/>
      <point x="375" y="812" type="line"/>
      <point x="352" y="793"/>
      <point x="337" y="789"/>
      <point x="326" y="789" type="curve" smooth="yes"/>
      <point x="291" y="788"/>
      <point x="253" y="822"/>
      <point x="210" y="821" type="curve" smooth="yes"/>
      <point x="190" y="820"/>
      <point x="169" y="813"/>
      <point x="148" y="791" type="curve"/>
      <point x="159" y="773" type="line"/>
      <point x="165" y="779"/>
      <point x="183" y="798"/>
      <point x="208" y="799" type="curve" smooth="yes"/>
      <point x="246" y="799"/>
      <point x="283" y="767"/>
      <point x="324" y="768" type="curve" smooth="yes"/>
      <point x="343" y="768"/>
      <point x="363" y="774"/>
    </contour>
  </outline>
</glyph>
<glyph name="Ograve" format="1">
  <advance width="449"/>
  <unicode hex="00D2"/>
  <outline>
    <contour>
      <point x="14" y="506" type="curve" smooth="yes"/>
      <point x="14" y="185" type="line" smooth="yes"/>
      <point x="14" y="56"/>
      <point x="107" y="-11"/>
      <point x="224" y="-11" type="curve" smooth="yes"/>
      <point x="349" y="-11"/>
      <point x="432" y="63"/>
      <point x="432" y="185" type="curve" smooth="yes"/>
      <point x="432" y="505" type="line" smooth="yes"/>
      <point x="432" y="635"/>
      <point x="356" y="714"/>
      <point x="226" y="714" type="curve" smooth="yes"/>
      <point x="94" y="714"/>
      <point x="14" y="642"/>
    </contour>
    <contour>
      <point x="33" y="184" type="curve" smooth="yes"/>
      <point x="33" y="506" type="line" smooth="yes"/>
      <point x="33" y="621"/>
      <point x="97" y="693"/>
      <point x="223" y="693" type="curve" smooth="yes"/>
      <point x="350" y="693"/>
      <point x="414" y="624"/>
      <point x="414" y="508" type="curve" smooth="yes"/>
      <point x="414" y="184" type="line" smooth="yes"/>
      <point x="414" y="66"/>
      <point x="331" y="8"/>
      <point x="224" y="8" type="curve" smooth="yes"/>
      <point x="117" y="8"/>
      <point x="33" y="77"/>
    </contour>
    <contour>
      <point x="158" y="851" type="curve"/>
      <point x="213" y="751" type="line"/>
      <point x="234" y="751" type="line"/>
      <point x="183" y="866" type="line"/>
      <point x="179" y="875"/>
      <point x="170" y="880"/>
      <point x="162" y="875" type="curve"/>
      <point x="153" y="870"/>
      <point x="153" y="860"/>
    </contour>
  </outline>
</glyph>
<glyph name="multiply" format="1">
  <advance width="296"/>
  <unicode hex="00D7"/>
  <outline>
    <contour>
      <point x="18" y="472" type="line"/>
      <point x="135" y="329" type="line"/>
      <point x="20" y="190" type="line"/>
      <point x="34" y="179" type="line"/>
      <point x="147" y="315" type="line"/>
      <point x="258" y="179" type="line"/>
      <point x="275" y="193" type="line"/>
      <point x="161" y="330" type="line"/>
      <point x="277" y="470" type="line"/>
      <point x="263" y="483" type="line"/>
      <point x="148" y="343" type="line"/>
      <point x="31" y="484" type="line"/>
    </contour>
  </outline>
</glyph>
<glyph name="Ugrave" format="1">
  <advance width="455"/>
  <unicode hex="00D9"/>
  <outline>
    <contour>
      <point x="436" y="185" type="curve" smooth="yes"/>
      <point x="436" y="698" type="line"/>
      <point x="417" y="698" type="line"/>
      <point x="417" y="184" type="line" smooth="yes"/>
      <point x="417" y="122"/>
      <point x="399" y="78"/>
      <point x="362" y="50" type="curve" smooth="yes"/>
      <point x="326" y="22"/>
      <point x="280" y="8"/>
      <point x="228" y="8" type="curve" smooth="yes"/>
      <point x="175" y="8"/>
      <point x="129" y="23"/>
      <point x="92" y="52" type="curve" smooth="yes"/>
      <point x="55" y="81"/>
      <point x="36" y="125"/>
      <point x="36" y="184" type="curve" smooth="yes"/>
      <point x="36" y="698" type="line"/>
      <point x="18" y="698" type="line"/>
      <point x="18" y="185" type="line" smooth="yes"/>
      <point x="18" y="118"/>
      <point x="38" y="68"/>
      <point x="79" y="36" type="curve" smooth="yes"/>
      <point x="121" y="4"/>
      <point x="170" y="-11"/>
      <point x="228" y="-11" type="curve" smooth="yes"/>
      <point x="284" y="-11"/>
      <point x="333" y="4"/>
      <point x="374" y="36" type="curve" smooth="yes"/>
      <point x="415" y="68"/>
      <point x="436" y="118"/>
    </contour>
    <contour>
      <point x="162" y="843" type="curve"/>
      <point x="217" y="743" type="line"/>
      <point x="238" y="743" type="line"/>
      <point x="187" y="857" type="line"/>
      <point x="184" y="866"/>
      <point x="174" y="871"/>
      <point x="165" y="866" type="curve" smooth="yes"/>
      <point x="157" y="861"/>
      <point x="156" y="851"/>
    </contour>
  </outline>
</glyph>
<glyph name="Ucircumflex" format="1">
  <advance width="455"/>
  <unicode hex="00DB"/>
  <outline>
    <contour>
      <point x="436" y="185" type="curve" smooth="yes"/>
      <point x="436" y="698" type="line"/>
      <point x="417" y="698" type="line"/>
      <point x="417" y="184" type="line" smooth="yes"/>
      <point x="417" y="122"/>
      <point x="399" y="78"/>
      <point x="362" y="50" type="curve" smooth="yes"/>
      <point x="326" y="22"/>
      <point x="280" y="8"/>
      <point x="228" y="8" type="curve" smooth="yes"/>
      <point x="175" y="8"/>
      <point x="129" y="23"/>
      <point x="92" y="52" type="curve" smooth="yes"/>
      <point x="55" y="81"/>
      <point x="36" y="125"/>
      <point x="36" y="184" type="curve" smooth="yes"/>
      <point x="36" y="698" type="line"/>
      <point x="18" y="698" type="line"/>
      <point x="18" y="185" type="line" smooth="yes"/>
      <point x="18" y="118"/>
      <point x="38" y="68"/>
      <point x="79" y="36" type="curve" smooth="yes"/>
      <point x="121" y="4"/>
      <point x="170" y="-11"/>
      <point x="228" y="-11" type="curve" smooth="yes"/>
      <point x="284" y="-11"/>
      <point x="333" y="4"/>
      <point x="374" y="36" type="curve" smooth="yes"/>
      <point x="415" y="68"/>
      <point x="436" y="118"/>
    </contour>
    <contour>
      <point x="228" y="847" type="line"/>
      <point x="332" y="744" type="line"/>
      <point x="348" y="759" type="line"/>
      <point x="228" y="877" type="line"/>
      <point x="105" y="758" type="line"/>
      <point x="120" y="744" type="line"/>
    </contour>
  </outline>
</glyph>
<glyph name="Thorn" format="1">
  <advance width="361"/>
  <unicode hex="00DE"/>
  <outline>
    <contour>
      <point x="349" y="289" type="curve" smooth="yes"/>
      <point x="349" y="435" type="line" smooth="yes"/>
      <point x="346" y="479"/>
      <point x="340" y="510"/>
      <point x="321" y="542" type="curve" smooth="yes"/>
      <point x="296" y="586"/>
      <point x="256" y="610"/>
      <point x="212" y="620" type="curve" smooth="yes"/>
      <point x="158" y="631"/>
      <point x="96" y="621"/>
      <point x="41" y="597" type="curve"/>
      <point x="41" y="698" type="line"/>
      <point x="22" y="698" type="line"/>
      <point x="22" y="0" type="line"/>
      <point x="41" y="0" type="line"/>
      <point x="41" y="119" type="line"/>
      <point x="105" y="102"/>
      <point x="182" y="100"/>
      <point x="238" y="118" type="curve" smooth="yes"/>
      <point x="305" y="140"/>
      <point x="349" y="191"/>
    </contour>
    <contour>
      <point x="205" y="602" type="curve" smooth="yes"/>
      <point x="246" y="593"/>
      <point x="282" y="570"/>
      <point x="305" y="532" type="curve" smooth="yes"/>
      <point x="321" y="506"/>
      <point x="330" y="471"/>
      <point x="330" y="429" type="curve" smooth="yes"/>
      <point x="330" y="291" type="line" smooth="yes"/>
      <point x="330" y="215"/>
      <point x="307" y="161"/>
      <point x="235" y="137" type="curve" smooth="yes"/>
      <point x="159" y="112"/>
      <point x="66" y="131"/>
      <point x="41" y="137" type="curve"/>
      <point x="41" y="574" type="line"/>
      <point x="97" y="603"/>
      <point x="155" y="612"/>
    </contour>
  </outline>
</glyph>
<glyph name="germandbls" format="1">
  <advance width="428"/>
  <unicode hex="00DF"/>
  <outline>
    <contour>
      <point x="40" y="0" type="curve"/>
      <point x="40" y="539" type="line" smooth="yes"/>
      <point x="40" y="634"/>
      <point x="76" y="680"/>
      <point x="147" y="680" type="curve" smooth="yes"/>
      <point x="211" y="680"/>
      <point x="246" y="628"/>
      <point x="248" y="582" type="curve" smooth="yes"/>
      <point x="249" y="542"/>
      <point x="224" y="505"/>
      <point x="170" y="505" type="curve"/>
      <point x="159" y="483"/>
      <point x="155" y="463"/>
      <point x="155" y="446" type="curve" smooth="yes"/>
      <point x="155" y="380"/>
      <point x="221" y="339"/>
      <point x="285" y="294" type="curve" smooth="yes"/>
      <point x="342" y="253"/>
      <point x="398" y="220"/>
      <point x="398" y="137" type="curve" smooth="yes"/>
      <point x="398" y="85"/>
      <point x="372" y="9"/>
      <point x="256" y="9" type="curve" smooth="yes"/>
      <point x="178" y="9"/>
      <point x="129" y="55"/>
      <point x="129" y="55" type="curve"/>
      <point x="124" y="50"/>
      <point x="119" y="43"/>
      <point x="114" y="36" type="curve"/>
      <point x="114" y="36"/>
      <point x="162" y="-11"/>
      <point x="263" y="-11" type="curve" smooth="yes"/>
      <point x="363" y="-11"/>
      <point x="419" y="58"/>
      <point x="418" y="135" type="curve" smooth="yes"/>
      <point x="417" y="183"/>
      <point x="395" y="233"/>
      <point x="348" y="272" type="curve" smooth="yes"/>
      <point x="266" y="333"/>
      <point x="177" y="377"/>
      <point x="173" y="443" type="curve" smooth="yes"/>
      <point x="172" y="458"/>
      <point x="175" y="474"/>
      <point x="184" y="492" type="curve"/>
      <point x="187" y="492"/>
      <point x="191" y="492"/>
      <point x="195" y="492" type="curve"/>
      <point x="243" y="499"/>
      <point x="265" y="540"/>
      <point x="265" y="583" type="curve" smooth="yes"/>
      <point x="265" y="636"/>
      <point x="219" y="698"/>
      <point x="146" y="698" type="curve" smooth="yes"/>
      <point x="86" y="698"/>
      <point x="20" y="665"/>
      <point x="20" y="541" type="curve" smooth="yes"/>
      <point x="20" y="343"/>
      <point x="20" y="170"/>
      <point x="20" y="0" type="curve"/>
      <point x="26" y="0"/>
      <point x="33" y="0"/>
    </contour>
  </outline>
</glyph>
<glyph name="agrave" format="1">
  <advance width="408"/>
  <unicode hex="00E0"/>
  <outline>
    <contour>
      <point x="374" y="345" type="curve"/>
      <point x="315" y="374"/>
      <point x="243" y="403"/>
      <point x="170" y="403" type="curve" smooth="yes"/>
      <point x="36" y="403"/>
      <point x="9" y="315"/>
      <point x="9" y="251" type="curve"/>
      <point x="9" y="251"/>
      <point x="9" y="168"/>
      <point x="9" y="168" type="curve"/>
      <point x="9" y="50"/>
      <point x="68" y="-10"/>
      <point x="213" y="-10" type="curve" smooth="yes"/>
      <point x="254" y="-10"/>
      <point x="393" y="0"/>
      <point x="393" y="0" type="curve"/>
      <point x="393" y="0"/>
      <point x="393" y="212"/>
      <point x="393" y="335" type="curve" smooth="yes"/>
      <point x="393" y="395"/>
      <point x="373" y="441"/>
      <point x="332" y="470" type="curve" smooth="yes"/>
      <point x="298" y="495"/>
      <point x="250" y="507"/>
      <point x="185" y="507" type="curve"/>
      <point x="184" y="488" type="line"/>
      <point x="252" y="488"/>
      <point x="289" y="477"/>
      <point x="319" y="457" type="curve" smooth="yes"/>
      <point x="355" y="431"/>
      <point x="374" y="392"/>
    </contour>
    <contour>
      <point x="374" y="322" type="curve"/>
      <point x="374" y="322"/>
      <point x="374" y="18"/>
      <point x="374" y="18" type="curve"/>
      <point x="374" y="18"/>
      <point x="260" y="8"/>
      <point x="213" y="8" type="curve" smooth="yes"/>
      <point x="57" y="4"/>
      <point x="28" y="90"/>
      <point x="28" y="162" type="curve" smooth="yes"/>
      <point x="28" y="185"/>
      <point x="28" y="221"/>
      <point x="28" y="249" type="curve" smooth="yes"/>
      <point x="28" y="323"/>
      <point x="66" y="383"/>
      <point x="169" y="383" type="curve" smooth="yes"/>
      <point x="242" y="383"/>
      <point x="304" y="358"/>
    </contour>
    <contour>
      <point x="133" y="650" type="curve" smooth="yes"/>
      <point x="188" y="550" type="line"/>
      <point x="210" y="550" type="line"/>
      <point x="158" y="663" type="line"/>
      <point x="155" y="672"/>
      <point x="145" y="678"/>
      <point x="136" y="673" type="curve"/>
      <point x="129" y="669"/>
      <point x="129" y="658"/>
    </contour>
  </outline>
</glyph>
<glyph name="atilde" format="1">
  <advance width="408"/>
  <unicode hex="00E3"/>
  <outline>
    <contour>
      <point x="373" y="345" type="curve"/>
      <point x="313" y="374"/>
      <point x="242" y="403"/>
      <point x="169" y="403" type="curve" smooth="yes"/>
      <point x="35" y="403"/>
      <point x="8" y="315"/>
      <point x="8" y="251" type="curve"/>
      <point x="8" y="251"/>
      <point x="8" y="168"/>
      <point x="8" y="168" type="curve"/>
      <point x="8" y="50"/>
      <point x="67" y="-10"/>
      <point x="212" y="-10" type="curve" smooth="yes"/>
      <point x="253" y="-10"/>
      <point x="392" y="0"/>
      <point x="392" y="0" type="curve"/>
      <point x="392" y="0"/>
      <point x="392" y="212"/>
      <point x="392" y="335" type="curve" smooth="yes"/>
      <point x="392" y="395"/>
      <point x="372" y="441"/>
      <point x="331" y="470" type="curve" smooth="yes"/>
      <point x="297" y="495"/>
      <point x="249" y="507"/>
      <point x="184" y="507" type="curve"/>
      <point x="183" y="488" type="line"/>
      <point x="251" y="488"/>
      <point x="288" y="477"/>
      <point x="318" y="457" type="curve" smooth="yes"/>
      <point x="354" y="431"/>
      <point x="373" y="392"/>
    </contour>
    <contour>
      <point x="373" y="322" type="curve"/>
      <point x="373" y="322"/>
      <point x="373" y="18"/>
      <point x="373" y="18" type="curve"/>
      <point x="373" y="18"/>
      <point x="258" y="8"/>
      <point x="212" y="8" type="curve" smooth="yes"/>
      <point x="56" y="4"/>
      <point x="26" y="90"/>
      <point x="26" y="162" type="curve" smooth="yes"/>
      <point x="26" y="185"/>
      <point x="26" y="221"/>
      <point x="26" y="249" type="curve" smooth="yes"/>
      <point x="26" y="323"/>
      <point x="65" y="383"/>
      <point x="168" y="383" type="curve" smooth="yes"/>
      <point x="241" y="383"/>
      <point x="302" y="358"/>
    </contour>
    <contour>
      <point x="318" y="595" type="curve"/>
      <point x="308" y="613" type="line"/>
      <point x="286" y="594"/>
      <point x="269" y="590"/>
      <point x="260" y="590" type="curve" smooth="yes"/>
      <point x="226" y="588"/>
      <point x="186" y="623"/>
      <point x="144" y="621" type="curve" smooth="yes"/>
      <point x="123" y="620"/>
      <point x="102" y="614"/>
      <point x="82" y="592" type="curve"/>
      <point x="94" y="574" type="line"/>
      <point x="98" y="580"/>
      <point x="117" y="598"/>
      <point x="142" y="599" type="curve" smooth="yes"/>
      <point x="180" y="599"/>
      <point x="217" y="568"/>
      <point x="257" y="568" type="curve"/>
      <point x="276" y="569"/>
      <point x="296" y="575"/>
    </contour>
  </outline>
</glyph>
<glyph name="aring" format="1">
  <advance width="410"/>
  <unicode hex="00E5"/>
  <outline>
    <contour>
      <point x="375" y="345" type="curve"/>
      <point x="316" y="374"/>
      <point x="244" y="403"/>
      <point x="172" y="403" type="curve" smooth="yes"/>
      <point x="37" y="403"/>
      <point x="10" y="315"/>
      <point x="10" y="251" type="curve"/>
      <point x="10" y="251"/>
      <point x="10" y="168"/>
      <point x="10" y="168" type="curve"/>
      <point x="10" y="50"/>
      <point x="69" y="-10"/>
      <point x="215" y="-10" type="curve" smooth="yes"/>
      <point x="255" y="-10"/>
      <point x="394" y="0"/>
      <point x="394" y="0" type="curve"/>
      <point x="394" y="0"/>
      <point x="394" y="212"/>
      <point x="394" y="335" type="curve" smooth="yes"/>
      <point x="394" y="395"/>
      <point x="374" y="441"/>
      <point x="333" y="470" type="curve" smooth="yes"/>
      <point x="299" y="495"/>
      <point x="251" y="507"/>
      <point x="186" y="507" type="curve"/>
      <point x="185" y="488" type="line"/>
      <point x="253" y="488"/>
      <point x="290" y="477"/>
      <point x="320" y="457" type="curve" smooth="yes"/>
      <point x="356" y="431"/>
      <point x="375" y="392"/>
    </contour>
    <contour>
      <point x="375" y="322" type="curve"/>
      <point x="375" y="322"/>
      <point x="375" y="18"/>
      <point x="375" y="18" type="curve"/>
      <point x="375" y="18"/>
      <point x="261" y="8"/>
      <point x="215" y="8" type="curve" smooth="yes"/>
      <point x="58" y="4"/>
      <point x="29" y="90"/>
      <point x="29" y="162" type="curve" smooth="yes"/>
      <point x="29" y="185"/>
      <point x="29" y="221"/>
      <point x="29" y="249" type="curve" smooth="yes"/>
      <point x="29" y="323"/>
      <point x="67" y="383"/>
      <point x="170" y="383" type="curve" smooth="yes"/>
      <point x="243" y="383"/>
      <point x="305" y="358"/>
    </contour>
    <contour>
      <point x="189" y="490" type="curve" smooth="yes"/>
      <point x="252" y="490"/>
      <point x="302" y="540"/>
      <point x="302" y="603" type="curve" smooth="yes"/>
      <point x="302" y="665"/>
      <point x="252" y="716"/>
      <point x="189" y="716" type="curve" smooth="yes"/>
      <point x="127" y="716"/>
      <point x="76" y="665"/>
      <point x="76" y="603" type="curve" smooth="yes"/>
      <point x="76" y="540"/>
      <point x="127" y="490"/>
    </contour>
    <contour>
      <point x="284" y="603" type="curve" smooth="yes"/>
      <point x="284" y="551"/>
      <point x="241" y="509"/>
      <point x="189" y="509" type="curve" smooth="yes"/>
      <point x="137" y="509"/>
      <point x="95" y="551"/>
      <point x="95" y="603" type="curve" smooth="yes"/>
      <point x="95" y="654"/>
      <point x="137" y="697"/>
      <point x="189" y="697" type="curve" smooth="yes"/>
      <point x="241" y="697"/>
      <point x="284" y="654"/>
    </contour>
  </outline>
</glyph>
<glyph name="ae" format="1">
  <advance width="751"/>
  <unicode hex="00E6"/>
  <outline>
    <contour>
      <point x="397" y="132" type="curve" smooth="yes"/>
      <point x="397" y="229" type="line"/>
      <point x="738" y="246" type="line"/>
      <point x="738" y="341" type="line" smooth="yes"/>
      <point x="738" y="448"/>
      <point x="672" y="508"/>
      <point x="562" y="508" type="curve" smooth="yes"/>
      <point x="472" y="508"/>
      <point x="405" y="465"/>
      <point x="385" y="391" type="curve"/>
      <point x="365" y="465"/>
      <point x="299" y="507"/>
      <point x="184" y="507" type="curve"/>
      <point x="184" y="501"/>
      <point x="183" y="495"/>
      <point x="183" y="488" type="curve"/>
      <point x="326" y="488"/>
      <point x="373" y="426"/>
      <point x="373" y="345" type="curve"/>
      <point x="313" y="374"/>
      <point x="242" y="403"/>
      <point x="169" y="403" type="curve" smooth="yes"/>
      <point x="35" y="403"/>
      <point x="8" y="315"/>
      <point x="8" y="251" type="curve" smooth="yes"/>
      <point x="8" y="168" type="line" smooth="yes"/>
      <point x="8" y="50"/>
      <point x="67" y="-10"/>
      <point x="212" y="-10" type="curve" smooth="yes"/>
      <point x="252" y="-10"/>
      <point x="392" y="0"/>
      <point x="392" y="0" type="curve"/>
      <point x="392" y="64" type="line"/>
      <point x="416" y="13"/>
      <point x="470" y="-12"/>
      <point x="552" y="-12" type="curve" smooth="yes"/>
      <point x="608" y="-12"/>
      <point x="662" y="4"/>
      <point x="713" y="35" type="curve"/>
      <point x="704" y="52" type="line"/>
      <point x="647" y="20"/>
      <point x="604" y="7"/>
      <point x="550" y="7" type="curve" smooth="yes"/>
      <point x="462" y="7"/>
      <point x="397" y="41"/>
    </contour>
    <contour>
      <point x="373" y="322" type="curve"/>
      <point x="373" y="18" type="line"/>
      <point x="373" y="18"/>
      <point x="258" y="8"/>
      <point x="212" y="8" type="curve" smooth="yes"/>
      <point x="56" y="4"/>
      <point x="26" y="90"/>
      <point x="26" y="162" type="curve" smooth="yes"/>
      <point x="26" y="249" type="line" smooth="yes"/>
      <point x="26" y="323"/>
      <point x="65" y="383"/>
      <point x="168" y="383" type="curve" smooth="yes"/>
      <point x="241" y="383"/>
      <point x="302" y="358"/>
    </contour>
    <contour>
      <point x="718" y="342" type="curve" smooth="yes"/>
      <point x="718" y="264" type="line"/>
      <point x="397" y="248" type="line"/>
      <point x="397" y="332" type="line" smooth="yes"/>
      <point x="397" y="462"/>
      <point x="491" y="491"/>
      <point x="559" y="491" type="curve" smooth="yes"/>
      <point x="630" y="491"/>
      <point x="718" y="462"/>
    </contour>
  </outline>
</glyph>
<glyph name="ccedilla" format="1">
  <advance width="342"/>
  <unicode hex="00E7"/>
  <outline>
    <contour>
      <point x="322" y="457" type="curve"/>
      <point x="329" y="476" type="line"/>
      <point x="271" y="504"/>
      <point x="205" y="516"/>
      <point x="147" y="504" type="curve" smooth="yes"/>
      <point x="102" y="494"/>
      <point x="64" y="470"/>
      <point x="37" y="426" type="curve" smooth="yes"/>
      <point x="19" y="394"/>
      <point x="12" y="362"/>
      <point x="10" y="318" type="curve"/>
      <point x="10" y="173" type="line" smooth="yes"/>
      <point x="10" y="75"/>
      <point x="54" y="23"/>
      <point x="122" y="1" type="curve" smooth="yes"/>
      <point x="182" y="-18"/>
      <point x="264" y="-13"/>
      <point x="331" y="5" type="curve"/>
      <point x="327" y="25" type="line"/>
      <point x="327" y="25"/>
      <point x="212" y="-9"/>
      <point x="123" y="21" type="curve" smooth="yes"/>
      <point x="52" y="45"/>
      <point x="29" y="98"/>
      <point x="29" y="175" type="curve" smooth="yes"/>
      <point x="29" y="312" type="line" smooth="yes"/>
      <point x="29" y="355"/>
      <point x="38" y="389"/>
      <point x="55" y="416" type="curve" smooth="yes"/>
      <point x="77" y="453"/>
      <point x="112" y="476"/>
      <point x="154" y="485" type="curve" smooth="yes"/>
      <point x="205" y="496"/>
      <point x="264" y="486"/>
    </contour>
    <contour>
      <point x="180" y="-47" type="curve" smooth="yes"/>
      <point x="176" y="-47"/>
      <point x="172" y="-47"/>
      <point x="146" y="-47" type="curve"/>
      <point x="173" y="0" type="line"/>
      <point x="152" y="0" type="line"/>
      <point x="123" y="-47" type="line"/>
      <point x="123" y="-67" type="line"/>
      <point x="144" y="-67"/>
      <point x="164" y="-67"/>
      <point x="180" y="-67" type="curve" smooth="yes"/>
      <point x="222" y="-67"/>
      <point x="252" y="-96"/>
      <point x="252" y="-136" type="curve" smooth="yes"/>
      <point x="252" y="-199"/>
      <point x="198" y="-207"/>
      <point x="180" y="-207" type="curve"/>
      <point x="130" y="-210"/>
      <point x="87" y="-196"/>
      <point x="86" y="-196" type="curve"/>
      <point x="84" y="-204"/>
      <point x="82" y="-206"/>
      <point x="80" y="-213" type="curve"/>
      <point x="113" y="-221"/>
      <point x="136" y="-227"/>
      <point x="182" y="-226" type="curve" smooth="yes"/>
      <point x="224" y="-223"/>
      <point x="271" y="-198"/>
      <point x="271" y="-136" type="curve" smooth="yes"/>
      <point x="271" y="-86"/>
      <point x="232" y="-47"/>
    </contour>
  </outline>
</glyph>
<glyph name="ecircumflex" format="1">
  <advance width="385"/>
  <unicode hex="00EA"/>
  <outline>
    <contour>
      <point x="31" y="132" type="curve" smooth="yes"/>
      <point x="31" y="229" type="line"/>
      <point x="372" y="246" type="line"/>
      <point x="372" y="341" type="line" smooth="yes"/>
      <point x="372" y="402"/>
      <point x="350" y="448"/>
      <point x="311" y="476" type="curve" smooth="yes"/>
      <point x="282" y="497"/>
      <point x="243" y="508"/>
      <point x="196" y="508" type="curve" smooth="yes"/>
      <point x="141" y="508"/>
      <point x="95" y="493"/>
      <point x="63" y="463" type="curve" smooth="yes"/>
      <point x="31" y="435"/>
      <point x="12" y="392"/>
      <point x="12" y="338" type="curve" smooth="yes"/>
      <point x="12" y="133" type="line" smooth="yes"/>
      <point x="12" y="80"/>
      <point x="30" y="42"/>
      <point x="64" y="19" type="curve" smooth="yes"/>
      <point x="92" y="-2"/>
      <point x="133" y="-12"/>
      <point x="186" y="-12" type="curve" smooth="yes"/>
      <point x="242" y="-12"/>
      <point x="296" y="4"/>
      <point x="346" y="35" type="curve"/>
      <point x="338" y="52" type="line"/>
      <point x="280" y="20"/>
      <point x="238" y="7"/>
      <point x="184" y="7" type="curve" smooth="yes"/>
      <point x="139" y="7"/>
      <point x="103" y="14"/>
      <point x="74" y="35" type="curve" smooth="yes"/>
      <point x="45" y="56"/>
      <point x="31" y="88"/>
    </contour>
    <contour>
      <point x="352" y="342" type="curve" smooth="yes"/>
      <point x="352" y="322"/>
      <point x="352" y="282"/>
      <point x="352" y="264" type="curve"/>
      <point x="31" y="248" type="line"/>
      <point x="31" y="268"/>
      <point x="31" y="311"/>
      <point x="31" y="332" type="curve" smooth="yes"/>
      <point x="31" y="391"/>
      <point x="50" y="428"/>
      <point x="76" y="452" type="curve" smooth="yes"/>
      <point x="109" y="482"/>
      <point x="155" y="491"/>
      <point x="193" y="491" type="curve" smooth="yes"/>
      <point x="229" y="491"/>
      <point x="268" y="484"/>
      <point x="299" y="461" type="curve" smooth="yes"/>
      <point x="330" y="439"/>
      <point x="352" y="402"/>
    </contour>
    <contour>
      <point x="193" y="652" type="line"/>
      <point x="297" y="548" type="line"/>
      <point x="312" y="563" type="line"/>
      <point x="193" y="681" type="line"/>
      <point x="69" y="562" type="line"/>
      <point x="84" y="548" type="line"/>
    </contour>
  </outline>
</glyph>
<glyph name="edieresis" format="1">
  <advance width="384"/>
  <unicode hex="00EB"/>
  <outline>
    <contour>
      <point x="30" y="132" type="curve" smooth="yes"/>
      <point x="30" y="229" type="line"/>
      <point x="371" y="246" type="line"/>
      <point x="371" y="341" type="line" smooth="yes"/>
      <point x="371" y="402"/>
      <point x="349" y="448"/>
      <point x="310" y="476" type="curve" smooth="yes"/>
      <point x="280" y="497"/>
      <point x="242" y="508"/>
      <point x="195" y="508" type="curve" smooth="yes"/>
      <point x="140" y="508"/>
      <point x="94" y="493"/>
      <point x="62" y="463" type="curve" smooth="yes"/>
      <point x="30" y="435"/>
      <point x="11" y="392"/>
      <point x="11" y="338" type="curve" smooth="yes"/>
      <point x="11" y="133" type="line" smooth="yes"/>
      <point x="11" y="80"/>
      <point x="29" y="42"/>
      <point x="63" y="19" type="curve" smooth="yes"/>
      <point x="91" y="-2"/>
      <point x="132" y="-12"/>
      <point x="185" y="-12" type="curve" smooth="yes"/>
      <point x="241" y="-12"/>
      <point x="295" y="4"/>
      <point x="345" y="35" type="curve"/>
      <point x="337" y="52" type="line"/>
      <point x="279" y="20"/>
      <point x="237" y="7"/>
      <point x="183" y="7" type="curve" smooth="yes"/>
      <point x="137" y="7"/>
      <point x="102" y="14"/>
      <point x="73" y="35" type="curve" smooth="yes"/>
      <point x="44" y="56"/>
      <point x="30" y="88"/>
    </contour>
    <contour>
      <point x="351" y="342" type="curve" smooth="yes"/>
      <point x="351" y="322"/>
      <point x="351" y="282"/>
      <point x="351" y="264" type="curve"/>
      <point x="30" y="248" type="line"/>
      <point x="30" y="268"/>
      <point x="30" y="311"/>
      <point x="30" y="332" type="curve" smooth="yes"/>
      <point x="30" y="391"/>
      <point x="48" y="428"/>
      <point x="75" y="452" type="curve" smooth="yes"/>
      <point x="108" y="482"/>
      <point x="154" y="491"/>
      <point x="191" y="491" type="curve" smooth="yes"/>
      <point x="228" y="491"/>
      <point x="267" y="484"/>
      <point x="298" y="461" type="curve" smooth="yes"/>
      <point x="329" y="439"/>
      <point x="351" y="402"/>
    </contour>
    <contour>
      <point x="269" y="625" type="curve" smooth="yes"/>
      <point x="261" y="625"/>
      <point x="253" y="617"/>
      <point x="253" y="607" type="curve" smooth="yes"/>
      <point x="253" y="598"/>
      <point x="261" y="591"/>
      <point x="269" y="591" type="curve" smooth="yes"/>
      <point x="279" y="591"/>
      <point x="286" y="598"/>
      <point x="286" y="607" type="curve" smooth="yes"/>
      <point x="286" y="617"/>
      <point x="279" y="625"/>
    </contour>
    <contour>
      <point x="112" y="625" type="curve" smooth="yes"/>
      <point x="102" y="625"/>
      <point x="95" y="617"/>
      <point x="95" y="607" type="curve" smooth="yes"/>
      <point x="95" y="598"/>
      <point x="102" y="591"/>
      <point x="112" y="591" type="curve" smooth="yes"/>
      <point x="121" y="591"/>
      <point x="129" y="598"/>
      <point x="129" y="607" type="curve" smooth="yes"/>
      <point x="129" y="617"/>
      <point x="121" y="625"/>
    </contour>
  </outline>
</glyph>
<glyph name="igrave" format="1">
  <advance width="110"/>
  <unicode hex="00EC"/>
  <outline>
    <contour>
      <point x="90" y="499" type="line"/>
      <point x="70" y="499" type="line"/>
      <point x="70" y="0" type="line"/>
      <point x="90" y="0" type="line"/>
    </contour>
    <contour>
      <point x="7" y="645" type="curve"/>
      <point x="62" y="543" type="line"/>
      <point x="82" y="543" type="line"/>
      <point x="32" y="658" type="line"/>
      <point x="29" y="667"/>
      <point x="19" y="672"/>
      <point x="10" y="668" type="curve"/>
      <point x="2" y="662"/>
      <point x="1" y="652"/>
    </contour>
  </outline>
</glyph>
<glyph name="icircumflex" format="1">
  <advance width="237"/>
  <unicode hex="00EE"/>
  <outline>
    <contour>
      <point x="124" y="499" type="line"/>
      <point x="106" y="499" type="line"/>
      <point x="106" y="0" type="line"/>
      <point x="124" y="0" type="line"/>
    </contour>
    <contour>
      <point x="116" y="648" type="line"/>
      <point x="221" y="543" type="line"/>
      <point x="237" y="559" type="line"/>
      <point x="116" y="676" type="line"/>
      <point x="-7" y="559" type="line"/>
      <point x="8" y="544" type="line"/>
    </contour>
  </outline>
</glyph>
<glyph name="idieresis" format="1">
  <advance width="191"/>
  <unicode hex="00EF"/>
  <outline>
    <contour>
      <point x="102" y="499" type="line"/>
      <point x="84" y="499" type="line"/>
      <point x="84" y="0" type="line"/>
      <point x="102" y="0" type="line"/>
    </contour>
    <contour>
      <point x="189" y="603" type="curve" smooth="yes"/>
      <point x="189" y="612"/>
      <point x="182" y="619"/>
      <point x="172" y="619" type="curve" smooth="yes"/>
      <point x="163" y="619"/>
      <point x="155" y="612"/>
      <point x="155" y="603" type="curve" smooth="yes"/>
      <point x="155" y="593"/>
      <point x="163" y="585"/>
      <point x="172" y="585" type="curve" smooth="yes"/>
      <point x="182" y="585"/>
      <point x="189" y="593"/>
    </contour>
    <contour>
      <point x="31" y="603" type="curve" smooth="yes"/>
      <point x="31" y="612"/>
      <point x="23" y="619"/>
      <point x="14" y="619" type="curve" smooth="yes"/>
      <point x="4" y="619"/>
      <point x="-3" y="612"/>
      <point x="-3" y="603" type="curve" smooth="yes"/>
      <point x="-3" y="593"/>
      <point x="4" y="585"/>
      <point x="14" y="585" type="curve" smooth="yes"/>
      <point x="23" y="585"/>
      <point x="31" y="593"/>
    </contour>
  </outline>
</glyph>
<glyph name="ntilde" format="1">
  <advance width="404"/>
  <unicode hex="00F1"/>
  <outline>
    <contour>
      <point x="367" y="346" type="curve" smooth="yes"/>
      <point x="367" y="0" type="line"/>
      <point x="387" y="0" type="line"/>
      <point x="387" y="345" type="line" smooth="yes"/>
      <point x="387" y="501"/>
      <point x="271" y="514"/>
      <point x="184" y="508" type="curve" smooth="yes"/>
      <point x="132" y="505"/>
      <point x="70" y="486"/>
      <point x="37" y="471" type="curve"/>
      <point x="37" y="499" type="line"/>
      <point x="19" y="499" type="line"/>
      <point x="19" y="0" type="line"/>
      <point x="37" y="0" type="line"/>
      <point x="37" y="453" type="line"/>
      <point x="74" y="471"/>
      <point x="139" y="490"/>
      <point x="197" y="493" type="curve" smooth="yes"/>
      <point x="305" y="498"/>
      <point x="367" y="459"/>
    </contour>
    <contour>
      <point x="320" y="593" type="curve"/>
      <point x="311" y="610" type="line"/>
      <point x="288" y="592"/>
      <point x="273" y="587"/>
      <point x="262" y="587" type="curve" smooth="yes"/>
      <point x="228" y="586"/>
      <point x="189" y="619"/>
      <point x="147" y="618" type="curve" smooth="yes"/>
      <point x="127" y="618"/>
      <point x="106" y="612"/>
      <point x="85" y="590" type="curve"/>
      <point x="96" y="571" type="line"/>
      <point x="101" y="577"/>
      <point x="119" y="596"/>
      <point x="144" y="596" type="curve" smooth="yes"/>
      <point x="183" y="597"/>
      <point x="219" y="564"/>
      <point x="261" y="565" type="curve" smooth="yes"/>
      <point x="279" y="565"/>
      <point x="299" y="572"/>
    </contour>
  </outline>
</glyph>
<glyph name="ograve" format="1">
  <advance width="391"/>
  <unicode hex="00F2"/>
  <outline>
    <contour>
      <point x="378" y="184" type="curve" smooth="yes"/>
      <point x="378" y="315" type="line" smooth="yes"/>
      <point x="378" y="436"/>
      <point x="315" y="510"/>
      <point x="196" y="510" type="curve" smooth="yes"/>
      <point x="78" y="510"/>
      <point x="10" y="442"/>
      <point x="10" y="315" type="curve" smooth="yes"/>
      <point x="10" y="184" type="line" smooth="yes"/>
      <point x="10" y="77"/>
      <point x="69" y="-10"/>
      <point x="196" y="-10" type="curve" smooth="yes"/>
      <point x="320" y="-10"/>
      <point x="378" y="71"/>
    </contour>
    <contour>
      <point x="360" y="319" type="curve" smooth="yes"/>
      <point x="360" y="184" type="line" smooth="yes"/>
      <point x="360" y="84"/>
      <point x="311" y="8"/>
      <point x="196" y="8" type="curve" smooth="yes"/>
      <point x="86" y="8"/>
      <point x="29" y="85"/>
      <point x="29" y="184" type="curve" smooth="yes"/>
      <point x="29" y="319" type="line" smooth="yes"/>
      <point x="29" y="442"/>
      <point x="100" y="492"/>
      <point x="196" y="492" type="curve" smooth="yes"/>
      <point x="291" y="492"/>
      <point x="360" y="433"/>
    </contour>
    <contour>
      <point x="125" y="648" type="curve"/>
      <point x="180" y="548" type="line"/>
      <point x="201" y="548" type="line"/>
      <point x="151" y="662" type="line" smooth="yes"/>
      <point x="147" y="670"/>
      <point x="137" y="675"/>
      <point x="129" y="671" type="curve"/>
      <point x="121" y="667"/>
      <point x="120" y="656"/>
    </contour>
  </outline>
</glyph>
<glyph name="oacute" format="1">
  <advance width="391"/>
  <unicode hex="00F3"/>
  <outline>
    <contour>
      <point x="377" y="184" type="curve" smooth="yes"/>
      <point x="377" y="315" type="line" smooth="yes"/>
      <point x="377" y="436"/>
      <point x="313" y="510"/>
      <point x="195" y="510" type="curve" smooth="yes"/>
      <point x="77" y="510"/>
      <point x="9" y="442"/>
      <point x="9" y="315" type="curve" smooth="yes"/>
      <point x="9" y="184" type="line" smooth="yes"/>
      <point x="9" y="77"/>
      <point x="68" y="-10"/>
      <point x="195" y="-10" type="curve" smooth="yes"/>
      <point x="319" y="-10"/>
      <point x="377" y="71"/>
    </contour>
    <contour>
      <point x="359" y="319" type="curve" smooth="yes"/>
      <point x="359" y="184" type="line" smooth="yes"/>
      <point x="359" y="84"/>
      <point x="310" y="8"/>
      <point x="195" y="8" type="curve" smooth="yes"/>
      <point x="85" y="8"/>
      <point x="28" y="85"/>
      <point x="28" y="184" type="curve" smooth="yes"/>
      <point x="28" y="319" type="line" smooth="yes"/>
      <point x="28" y="442"/>
      <point x="99" y="492"/>
      <point x="195" y="492" type="curve" smooth="yes"/>
      <point x="290" y="492"/>
      <point x="359" y="433"/>
    </contour>
    <contour>
      <point x="235" y="662" type="curve" smooth="yes"/>
      <point x="184" y="548" type="line"/>
      <point x="206" y="548" type="line"/>
      <point x="261" y="648" type="line" smooth="yes"/>
      <point x="265" y="656"/>
      <point x="265" y="667"/>
      <point x="256" y="671" type="curve"/>
      <point x="249" y="675"/>
      <point x="239" y="670"/>
    </contour>
  </outline>
</glyph>
<glyph name="ocircumflex" format="1">
  <advance width="393"/>
  <unicode hex="00F4"/>
  <outline>
    <contour>
      <point x="380" y="184" type="curve" smooth="yes"/>
      <point x="380" y="315" type="line" smooth="yes"/>
      <point x="380" y="436"/>
      <point x="316" y="510"/>
      <point x="197" y="510" type="curve" smooth="yes"/>
      <point x="79" y="510"/>
      <point x="11" y="442"/>
      <point x="11" y="315" type="curve" smooth="yes"/>
      <point x="11" y="184" type="line" smooth="yes"/>
      <point x="11" y="77"/>
      <point x="70" y="-10"/>
      <point x="197" y="-10" type="curve" smooth="yes"/>
      <point x="321" y="-10"/>
      <point x="380" y="71"/>
    </contour>
    <contour>
      <point x="361" y="319" type="curve" smooth="yes"/>
      <point x="361" y="184" type="line" smooth="yes"/>
      <point x="361" y="84"/>
      <point x="312" y="8"/>
      <point x="197" y="8" type="curve" smooth="yes"/>
      <point x="87" y="8"/>
      <point x="30" y="85"/>
      <point x="30" y="184" type="curve" smooth="yes"/>
      <point x="30" y="319" type="line" smooth="yes"/>
      <point x="30" y="442"/>
      <point x="101" y="492"/>
      <point x="197" y="492" type="curve" smooth="yes"/>
      <point x="293" y="492"/>
      <point x="361" y="433"/>
    </contour>
    <contour>
      <point x="199" y="687" type="line"/>
      <point x="324" y="561" type="line"/>
      <point x="341" y="577" type="line"/>
      <point x="199" y="718" type="line"/>
      <point x="52" y="577" type="line"/>
      <point x="68" y="561" type="line"/>
    </contour>
  </outline>
</glyph>
<glyph name="otilde" format="1">
  <advance width="392"/>
  <unicode hex="00F5"/>
  <outline>
    <contour>
      <point x="378" y="184" type="curve" smooth="yes"/>
      <point x="378" y="315" type="line" smooth="yes"/>
      <point x="378" y="436"/>
      <point x="315" y="510"/>
      <point x="196" y="510" type="curve" smooth="yes"/>
      <point x="78" y="510"/>
      <point x="10" y="442"/>
      <point x="10" y="315" type="curve" smooth="yes"/>
      <point x="10" y="184" type="line" smooth="yes"/>
      <point x="10" y="77"/>
      <point x="69" y="-10"/>
      <point x="196" y="-10" type="curve" smooth="yes"/>
      <point x="320" y="-10"/>
      <point x="378" y="71"/>
    </contour>
    <contour>
      <point x="360" y="319" type="curve" smooth="yes"/>
      <point x="360" y="184" type="line" smooth="yes"/>
      <point x="360" y="84"/>
      <point x="311" y="8"/>
      <point x="196" y="8" type="curve" smooth="yes"/>
      <point x="86" y="8"/>
      <point x="29" y="85"/>
      <point x="29" y="184" type="curve" smooth="yes"/>
      <point x="29" y="319" type="line" smooth="yes"/>
      <point x="29" y="442"/>
      <point x="100" y="492"/>
      <point x="196" y="492" type="curve" smooth="yes"/>
      <point x="291" y="492"/>
      <point x="360" y="433"/>
    </contour>
    <contour>
      <point x="312" y="593" type="curve"/>
      <point x="304" y="610" type="line"/>
      <point x="280" y="592"/>
      <point x="264" y="587"/>
      <point x="254" y="587" type="curve" smooth="yes"/>
      <point x="220" y="586"/>
      <point x="180" y="619"/>
      <point x="139" y="619" type="curve"/>
      <point x="118" y="618"/>
      <point x="97" y="612"/>
      <point x="77" y="590" type="curve"/>
      <point x="88" y="572" type="line"/>
      <point x="94" y="577"/>
      <point x="111" y="596"/>
      <point x="136" y="597" type="curve" smooth="yes"/>
      <point x="175" y="597"/>
      <point x="211" y="565"/>
      <point x="252" y="565" type="curve"/>
      <point x="271" y="566"/>
      <point x="290" y="572"/>
    </contour>
  </outline>
</glyph>
<glyph name="odieresis" format="1">
  <advance width="391"/>
  <unicode hex="00F6"/>
  <outline>
    <contour>
      <point x="378" y="184" type="curve" smooth="yes"/>
      <point x="378" y="315" type="line" smooth="yes"/>
      <point x="378" y="436"/>
      <point x="315" y="510"/>
      <point x="196" y="510" type="curve" smooth="yes"/>
      <point x="78" y="510"/>
      <point x="10" y="442"/>
      <point x="10" y="315" type="curve" smooth="yes"/>
      <point x="10" y="184" type="line" smooth="yes"/>
      <point x="10" y="77"/>
      <point x="69" y="-10"/>
      <point x="196" y="-10" type="curve" smooth="yes"/>
      <point x="320" y="-10"/>
      <point x="378" y="71"/>
    </contour>
    <contour>
      <point x="360" y="319" type="curve" smooth="yes"/>
      <point x="360" y="184" type="line" smooth="yes"/>
      <point x="360" y="84"/>
      <point x="311" y="8"/>
      <point x="196" y="8" type="curve" smooth="yes"/>
      <point x="86" y="8"/>
      <point x="29" y="85"/>
      <point x="29" y="184" type="curve" smooth="yes"/>
      <point x="29" y="319" type="line" smooth="yes"/>
      <point x="29" y="442"/>
      <point x="100" y="492"/>
      <point x="196" y="492" type="curve" smooth="yes"/>
      <point x="291" y="492"/>
      <point x="360" y="433"/>
    </contour>
    <contour>
      <point x="269" y="623" type="curve" smooth="yes"/>
      <point x="260" y="623"/>
      <point x="253" y="615"/>
      <point x="253" y="606" type="curve" smooth="yes"/>
      <point x="253" y="596"/>
      <point x="260" y="588"/>
      <point x="269" y="588" type="curve" smooth="yes"/>
      <point x="278" y="588"/>
      <point x="286" y="596"/>
      <point x="286" y="606" type="curve" smooth="yes"/>
      <point x="286" y="615"/>
      <point x="278" y="623"/>
    </contour>
    <contour>
      <point x="129" y="606" type="curve" smooth="yes"/>
      <point x="129" y="615"/>
      <point x="121" y="623"/>
      <point x="111" y="623" type="curve" smooth="yes"/>
      <point x="102" y="623"/>
      <point x="95" y="615"/>
      <point x="95" y="606" type="curve" smooth="yes"/>
      <point x="95" y="596"/>
      <point x="102" y="588"/>
      <point x="111" y="588" type="curve" smooth="yes"/>
      <point x="121" y="588"/>
      <point x="129" y="596"/>
    </contour>
  </outline>
</glyph>
<glyph name="divide" format="1">
  <advance width="361"/>
  <unicode hex="00F7"/>
  <outline>
    <contour>
      <point x="339" y="393" type="line"/>
      <point x="20" y="393" type="line"/>
      <point x="20" y="372" type="line"/>
      <point x="339" y="372" type="line"/>
    </contour>
    <contour>
      <point x="180" y="528" type="curve" smooth="yes"/>
      <point x="172" y="528"/>
      <point x="164" y="520"/>
      <point x="164" y="510" type="curve" smooth="yes"/>
      <point x="164" y="502"/>
      <point x="172" y="494"/>
      <point x="180" y="494" type="curve" smooth="yes"/>
      <point x="190" y="494"/>
      <point x="198" y="502"/>
      <point x="198" y="510" type="curve" smooth="yes"/>
      <point x="198" y="520"/>
      <point x="190" y="528"/>
    </contour>
    <contour>
      <point x="180" y="271" type="curve" smooth="yes"/>
      <point x="172" y="271"/>
      <point x="164" y="264"/>
      <point x="164" y="254" type="curve" smooth="yes"/>
      <point x="164" y="245"/>
      <point x="172" y="238"/>
      <point x="180" y="238" type="curve" smooth="yes"/>
      <point x="190" y="238"/>
      <point x="198" y="245"/>
      <point x="198" y="254" type="curve" smooth="yes"/>
      <point x="198" y="264"/>
      <point x="190" y="271"/>
    </contour>
  </outline>
</glyph>
<glyph name="oslash" format="1">
  <advance width="392"/>
  <unicode hex="00F8"/>
  <outline>
    <contour>
      <point x="377" y="184" type="curve" smooth="yes"/>
      <point x="377" y="315" type="line" smooth="yes"/>
      <point x="377" y="387"/>
      <point x="354" y="443"/>
      <point x="310" y="476" type="curve"/>
      <point x="359" y="585" type="line"/>
      <point x="338" y="585" type="line"/>
      <point x="294" y="486" type="line"/>
      <point x="267" y="502"/>
      <point x="234" y="510"/>
      <point x="195" y="510" type="curve" smooth="yes"/>
      <point x="77" y="510"/>
      <point x="9" y="442"/>
      <point x="9" y="315" type="curve" smooth="yes"/>
      <point x="9" y="184" type="line" smooth="yes"/>
      <point x="9" y="114"/>
      <point x="34" y="54"/>
      <point x="86" y="20" type="curve"/>
      <point x="47" y="-66" type="line"/>
      <point x="68" y="-66" type="line"/>
      <point x="102" y="10" type="line"/>
      <point x="128" y="-2"/>
      <point x="158" y="-10"/>
      <point x="195" y="-10" type="curve" smooth="yes"/>
      <point x="319" y="-10"/>
      <point x="377" y="71"/>
    </contour>
    <contour>
      <point x="28" y="184" type="curve" smooth="yes"/>
      <point x="28" y="319" type="line" smooth="yes"/>
      <point x="28" y="442"/>
      <point x="99" y="492"/>
      <point x="195" y="492" type="curve" smooth="yes"/>
      <point x="229" y="492"/>
      <point x="261" y="484"/>
      <point x="286" y="469" type="curve"/>
      <point x="94" y="37" type="line"/>
      <point x="50" y="68"/>
      <point x="28" y="121"/>
    </contour>
    <contour>
      <point x="359" y="319" type="curve" smooth="yes"/>
      <point x="359" y="184" type="line" smooth="yes"/>
      <point x="359" y="84"/>
      <point x="310" y="8"/>
      <point x="195" y="8" type="curve" smooth="yes"/>
      <point x="162" y="8"/>
      <point x="133" y="14"/>
      <point x="110" y="26" type="curve"/>
      <point x="301" y="458" type="line"/>
      <point x="337" y="429"/>
      <point x="359" y="383"/>
    </contour>
  </outline>
</glyph>
<glyph name="ugrave" format="1">
  <advance width="402"/>
  <unicode hex="00F9"/>
  <outline>
    <contour>
      <point x="363" y="97" type="curve"/>
      <point x="363" y="0" type="line"/>
      <point x="384" y="0" type="line"/>
      <point x="384" y="499" type="line"/>
      <point x="363" y="499" type="line"/>
      <point x="363" y="168" type="line" smooth="yes"/>
      <point x="363" y="87"/>
      <point x="304" y="15"/>
      <point x="208" y="9" type="curve" smooth="yes"/>
      <point x="100" y="1"/>
      <point x="34" y="43"/>
      <point x="34" y="155" type="curve" smooth="yes"/>
      <point x="34" y="499" type="line"/>
      <point x="14" y="499" type="line"/>
      <point x="14" y="156" type="line" smooth="yes"/>
      <point x="14" y="0"/>
      <point x="134" y="-13"/>
      <point x="208" y="-9" type="curve" smooth="yes"/>
      <point x="269" y="-4"/>
      <point x="337" y="29"/>
    </contour>
    <contour>
      <point x="127" y="643" type="curve" smooth="yes"/>
      <point x="182" y="543" type="line"/>
      <point x="204" y="543" type="line"/>
      <point x="152" y="657" type="line"/>
      <point x="148" y="665"/>
      <point x="139" y="671"/>
      <point x="131" y="667" type="curve"/>
      <point x="122" y="662"/>
      <point x="122" y="651"/>
    </contour>
  </outline>
</glyph>
<glyph name="uacute" format="1">
  <advance width="400"/>
  <unicode hex="00FA"/>
  <outline>
    <contour>
      <point x="362" y="97" type="curve"/>
      <point x="362" y="0" type="line"/>
      <point x="383" y="0" type="line"/>
      <point x="383" y="499" type="line"/>
      <point x="362" y="499" type="line"/>
      <point x="362" y="168" type="line" smooth="yes"/>
      <point x="362" y="87"/>
      <point x="302" y="15"/>
      <point x="207" y="9" type="curve" smooth="yes"/>
      <point x="99" y="1"/>
      <point x="33" y="43"/>
      <point x="33" y="155" type="curve" smooth="yes"/>
      <point x="33" y="499" type="line"/>
      <point x="13" y="499" type="line"/>
      <point x="13" y="156" type="line" smooth="yes"/>
      <point x="13" y="0"/>
      <point x="133" y="-13"/>
      <point x="207" y="-9" type="curve" smooth="yes"/>
      <point x="268" y="-4"/>
      <point x="335" y="29"/>
    </contour>
    <contour>
      <point x="244" y="657" type="curve"/>
      <point x="193" y="542" type="line"/>
      <point x="215" y="542" type="line"/>
      <point x="269" y="642" type="line" smooth="yes"/>
      <point x="274" y="650"/>
      <point x="274" y="661"/>
      <point x="265" y="665" type="curve"/>
      <point x="257" y="670"/>
      <point x="248" y="665"/>
    </contour>
  </outline>
</glyph>
<glyph name="udieresis" format="1">
  <advance width="403"/>
  <unicode hex="00FC"/>
  <outline>
    <contour>
      <point x="363" y="97" type="curve"/>
      <point x="363" y="0" type="line"/>
      <point x="384" y="0" type="line"/>
      <point x="384" y="499" type="line"/>
      <point x="363" y="499" type="line"/>
      <point x="363" y="168" type="line" smooth="yes"/>
      <point x="363" y="87"/>
      <point x="304" y="15"/>
      <point x="208" y="9" type="curve" smooth="yes"/>
      <point x="100" y="1"/>
      <point x="34" y="43"/>
      <point x="34" y="155" type="curve" smooth="yes"/>
      <point x="34" y="499" type="line"/>
      <point x="14" y="499" type="line"/>
      <point x="14" y="156" type="line" smooth="yes"/>
      <point x="14" y="0"/>
      <point x="134" y="-13"/>
      <point x="208" y="-9" type="curve" smooth="yes"/>
      <point x="269" y="-4"/>
      <point x="337" y="29"/>
    </contour>
    <contour>
      <point x="278" y="619" type="curve" smooth="yes"/>
      <point x="268" y="619"/>
      <point x="261" y="612"/>
      <point x="261" y="602" type="curve" smooth="yes"/>
      <point x="261" y="593"/>
      <point x="268" y="585"/>
      <point x="278" y="585" type="curve" smooth="yes"/>
      <point x="287" y="585"/>
      <point x="295" y="593"/>
      <point x="295" y="602" type="curve" smooth="yes"/>
      <point x="295" y="612"/>
      <point x="287" y="619"/>
    </contour>
    <contour>
      <point x="120" y="619" type="curve" smooth="yes"/>
      <point x="111" y="619"/>
      <point x="103" y="612"/>
      <point x="103" y="602" type="curve" smooth="yes"/>
      <point x="103" y="593"/>
      <point x="111" y="585"/>
      <point x="120" y="585" type="curve" smooth="yes"/>
      <point x="130" y="585"/>
      <point x="136" y="593"/>
      <point x="136" y="602" type="curve" smooth="yes"/>
      <point x="136" y="612"/>
      <point x="130" y="619"/>
    </contour>
  </outline>
</glyph>
<glyph name="yacute" format="1">
  <advance width="420"/>
  <unicode hex="00FD"/>
  <outline>
    <contour>
      <point x="408" y="499" type="curve"/>
      <point x="395" y="510" type="line"/>
      <point x="371" y="485"/>
      <point x="365" y="465"/>
      <point x="365" y="418" type="curve" smooth="yes"/>
      <point x="365" y="169" type="line" smooth="yes"/>
      <point x="365" y="88"/>
      <point x="302" y="16"/>
      <point x="207" y="10" type="curve" smooth="yes"/>
      <point x="100" y="2"/>
      <point x="33" y="44"/>
      <point x="33" y="156" type="curve" smooth="yes"/>
      <point x="33" y="499" type="line"/>
      <point x="13" y="499" type="line"/>
      <point x="13" y="157" type="line" smooth="yes"/>
      <point x="13" y="1"/>
      <point x="134" y="-12"/>
      <point x="208" y="-8" type="curve" smooth="yes"/>
      <point x="269" y="-3"/>
      <point x="339" y="30"/>
      <point x="365" y="99" type="curve"/>
      <point x="365" y="-66" type="line" smooth="yes"/>
      <point x="365" y="-110"/>
      <point x="354" y="-142"/>
      <point x="333" y="-160" type="curve" smooth="yes"/>
      <point x="310" y="-178"/>
      <point x="301" y="-183"/>
      <point x="271" y="-195" type="curve"/>
      <point x="277" y="-212" type="line"/>
      <point x="307" y="-202"/>
      <point x="330" y="-190"/>
      <point x="346" y="-174" type="curve" smooth="yes"/>
      <point x="372" y="-149"/>
      <point x="382" y="-114"/>
      <point x="382" y="-67" type="curve" smooth="yes"/>
      <point x="382" y="417" type="line" smooth="yes"/>
      <point x="382" y="461"/>
      <point x="387" y="482"/>
    </contour>
    <contour>
      <point x="261" y="657" type="curve"/>
      <point x="209" y="543" type="line"/>
      <point x="230" y="543" type="line"/>
      <point x="286" y="643" type="line" smooth="yes"/>
      <point x="290" y="651"/>
      <point x="290" y="662"/>
      <point x="282" y="667" type="curve" smooth="yes"/>
      <point x="273" y="671"/>
      <point x="264" y="665"/>
    </contour>
  </outline>
</glyph>
<glyph name="thorn" format="1">
  <advance width="409"/>
  <unicode hex="00FE"/>
  <outline>
    <contour>
      <point x="42" y="399" type="curve"/>
      <point x="42" y="698" type="line"/>
      <point x="22" y="698" type="line"/>
      <point x="22" y="0" type="line"/>
      <point x="42" y="0" type="line"/>
      <point x="42" y="234" type="line"/>
      <point x="71" y="155"/>
      <point x="136" y="116"/>
      <point x="212" y="116" type="curve" smooth="yes"/>
      <point x="323" y="116"/>
      <point x="400" y="205"/>
      <point x="400" y="309" type="curve" smooth="yes"/>
      <point x="400" y="426"/>
      <point x="324" y="509"/>
      <point x="211" y="509" type="curve" smooth="yes"/>
      <point x="139" y="509"/>
      <point x="76" y="472"/>
    </contour>
    <contour>
      <point x="213" y="493" type="curve" smooth="yes"/>
      <point x="315" y="490"/>
      <point x="382" y="410"/>
      <point x="382" y="315" type="curve" smooth="yes"/>
      <point x="382" y="212"/>
      <point x="311" y="133"/>
      <point x="211" y="133" type="curve" smooth="yes"/>
      <point x="96" y="133"/>
      <point x="44" y="226"/>
      <point x="44" y="319" type="curve" smooth="yes"/>
      <point x="44" y="417"/>
      <point x="119" y="493"/>
    </contour>
  </outline>
</glyph>
<glyph name="ydieresis" format="1">
  <advance width="421"/>
  <unicode hex="00FF"/>
  <outline>
    <contour>
      <point x="409" y="499" type="curve"/>
      <point x="396" y="510" type="line"/>
      <point x="372" y="485"/>
      <point x="366" y="465"/>
      <point x="366" y="418" type="curve" smooth="yes"/>
      <point x="366" y="169" type="line" smooth="yes"/>
      <point x="366" y="88"/>
      <point x="304" y="16"/>
      <point x="208" y="10" type="curve" smooth="yes"/>
      <point x="101" y="2"/>
      <point x="34" y="44"/>
      <point x="34" y="156" type="curve" smooth="yes"/>
      <point x="34" y="499" type="line"/>
      <point x="14" y="499" type="line"/>
      <point x="14" y="157" type="line" smooth="yes"/>
      <point x="14" y="1"/>
      <point x="135" y="-12"/>
      <point x="209" y="-8" type="curve" smooth="yes"/>
      <point x="271" y="-3"/>
      <point x="340" y="30"/>
      <point x="366" y="99" type="curve"/>
      <point x="366" y="-66" type="line" smooth="yes"/>
      <point x="366" y="-110"/>
      <point x="355" y="-142"/>
      <point x="334" y="-160" type="curve" smooth="yes"/>
      <point x="311" y="-178"/>
      <point x="302" y="-183"/>
      <point x="272" y="-195" type="curve"/>
      <point x="278" y="-212" type="line"/>
      <point x="308" y="-202"/>
      <point x="331" y="-190"/>
      <point x="348" y="-174" type="curve" smooth="yes"/>
      <point x="373" y="-149"/>
      <point x="383" y="-114"/>
      <point x="383" y="-67" type="curve" smooth="yes"/>
      <point x="383" y="417" type="line" smooth="yes"/>
      <point x="383" y="461"/>
      <point x="388" y="482"/>
    </contour>
    <contour>
      <point x="291" y="619" type="curve" smooth="yes"/>
      <point x="283" y="619"/>
      <point x="275" y="612"/>
      <point x="275" y="602" type="curve" smooth="yes"/>
      <point x="275" y="593"/>
      <point x="283" y="585"/>
      <point x="291" y="585" type="curve" smooth="yes"/>
      <point x="301" y="585"/>
      <point x="309" y="593"/>
      <point x="309" y="602" type="curve" smooth="yes"/>
      <point x="309" y="612"/>
      <point x="301" y="619"/>
    </contour>
    <contour>
      <point x="134" y="619" type="curve" smooth="yes"/>
      <point x="124" y="619"/>
      <point x="117" y="612"/>
      <point x="117" y="602" type="curve" smooth="yes"/>
      <point x="117" y="593"/>
      <point x="124" y="585"/>
      <point x="134" y="585" type="curve" smooth="yes"/>
      <point x="143" y="585"/>
      <point x="151" y="593"/>
      <point x="151" y="602" type="curve" smooth="yes"/>
      <point x="151" y="612"/>
      <point x="143" y="619"/>
    </contour>
  </outline>
</glyph>
<glyph name="Abreve" format="1">
  <advance width="512"/>
  <unicode hex="0102"/>
  <outline>
    <contour>
      <point x="249" y="698" type="line"/>
      <point x="4" y="0" type="line"/>
      <point x="24" y="0" type="line"/>
      <point x="122" y="280" type="line"/>
      <point x="389" y="280" type="line"/>
      <point x="487" y="0" type="line"/>
      <point x="508" y="0" type="line"/>
      <point x="263" y="698" type="line"/>
    </contour>
    <contour>
      <point x="383" y="299" type="line"/>
      <point x="130" y="299" type="line"/>
      <point x="256" y="658" type="line"/>
    </contour>
    <contour>
      <point x="167" y="855" type="curve" smooth="yes"/>
      <point x="167" y="861" type="line"/>
      <point x="144" y="861" type="line"/>
      <point x="144" y="855" type="line" smooth="yes"/>
      <point x="144" y="792"/>
      <point x="195" y="741"/>
      <point x="257" y="741" type="curve" smooth="yes"/>
      <point x="320" y="741"/>
      <point x="371" y="792"/>
      <point x="371" y="855" type="curve" smooth="yes"/>
      <point x="371" y="861" type="line"/>
      <point x="349" y="861" type="line"/>
      <point x="349" y="855" type="line" smooth="yes"/>
      <point x="349" y="804"/>
      <point x="308" y="763"/>
      <point x="257" y="763" type="curve" smooth="yes"/>
      <point x="208" y="763"/>
      <point x="167" y="804"/>
    </contour>
  </outline>
</glyph>
<glyph name="abreve" format="1">
  <advance width="409"/>
  <unicode hex="0103"/>
  <outline>
    <contour>
      <point x="374" y="345" type="curve"/>
      <point x="315" y="374"/>
      <point x="243" y="403"/>
      <point x="170" y="403" type="curve" smooth="yes"/>
      <point x="36" y="403"/>
      <point x="9" y="315"/>
      <point x="9" y="251" type="curve"/>
      <point x="9" y="251"/>
      <point x="9" y="168"/>
      <point x="9" y="168" type="curve"/>
      <point x="9" y="50"/>
      <point x="68" y="-10"/>
      <point x="213" y="-10" type="curve" smooth="yes"/>
      <point x="254" y="-10"/>
      <point x="393" y="0"/>
      <point x="393" y="0" type="curve"/>
      <point x="393" y="0"/>
      <point x="393" y="212"/>
      <point x="393" y="335" type="curve" smooth="yes"/>
      <point x="393" y="395"/>
      <point x="373" y="441"/>
      <point x="332" y="470" type="curve" smooth="yes"/>
      <point x="298" y="495"/>
      <point x="250" y="507"/>
      <point x="185" y="507" type="curve"/>
      <point x="184" y="488" type="line"/>
      <point x="252" y="488"/>
      <point x="289" y="477"/>
      <point x="319" y="457" type="curve" smooth="yes"/>
      <point x="355" y="431"/>
      <point x="374" y="392"/>
    </contour>
    <contour>
      <point x="374" y="322" type="curve"/>
      <point x="374" y="322"/>
      <point x="374" y="18"/>
      <point x="374" y="18" type="curve"/>
      <point x="374" y="18"/>
      <point x="260" y="8"/>
      <point x="213" y="8" type="curve" smooth="yes"/>
      <point x="57" y="4"/>
      <point x="28" y="90"/>
      <point x="28" y="162" type="curve" smooth="yes"/>
      <point x="28" y="185"/>
      <point x="28" y="221"/>
      <point x="28" y="249" type="curve" smooth="yes"/>
      <point x="28" y="323"/>
      <point x="66" y="383"/>
      <point x="169" y="383" type="curve" smooth="yes"/>
      <point x="242" y="383"/>
      <point x="304" y="358"/>
    </contour>
    <contour>
      <point x="315" y="661" type="curve" smooth="yes"/>
      <point x="315" y="668" type="line"/>
      <point x="293" y="668" type="line"/>
      <point x="293" y="661" type="line" smooth="yes"/>
      <point x="293" y="610"/>
      <point x="252" y="570"/>
      <point x="201" y="570" type="curve" smooth="yes"/>
      <point x="151" y="570"/>
      <point x="110" y="610"/>
      <point x="110" y="661" type="curve" smooth="yes"/>
      <point x="110" y="668" type="line"/>
      <point x="88" y="668" type="line"/>
      <point x="88" y="661" type="line" smooth="yes"/>
      <point x="88" y="598"/>
      <point x="139" y="548"/>
      <point x="201" y="548" type="curve" smooth="yes"/>
      <point x="263" y="548"/>
      <point x="315" y="598"/>
    </contour>
  </outline>
</glyph>
<glyph name="Aogonek" format="1">
  <advance width="561"/>
  <unicode hex="0104"/>
  <outline>
    <contour>
      <point x="249" y="698" type="line"/>
      <point x="4" y="0" type="line"/>
      <point x="24" y="0" type="line"/>
      <point x="122" y="280" type="line"/>
      <point x="389" y="280" type="line"/>
      <point x="487" y="0" type="line"/>
      <point x="508" y="0" type="line"/>
      <point x="263" y="698" type="line"/>
    </contour>
    <contour>
      <point x="383" y="299" type="line"/>
      <point x="130" y="299" type="line"/>
      <point x="256" y="658" type="line"/>
    </contour>
    <contour>
      <point x="431" y="-128" type="curve" smooth="yes"/>
      <point x="505" y="-2" type="line"/>
      <point x="505" y="7" type="line"/>
      <point x="488" y="4" type="line"/>
      <point x="488" y="-1" type="line"/>
      <point x="416" y="-119" type="line" smooth="yes"/>
      <point x="380" y="-182"/>
      <point x="426" y="-243"/>
      <point x="498" y="-232" type="curve" smooth="yes"/>
      <point x="512" y="-230"/>
      <point x="588" y="-202"/>
      <point x="588" y="-202" type="curve"/>
      <point x="582" y="-184" type="line"/>
      <point x="582" y="-184"/>
      <point x="544" y="-197"/>
      <point x="510" y="-208" type="curve" smooth="yes"/>
      <point x="446" y="-230"/>
      <point x="400" y="-183"/>
    </contour>
  </outline>
</glyph>
<glyph name="aogonek" format="1">
  <advance width="457"/>
  <unicode hex="0105"/>
  <outline>
    <contour>
      <point x="373" y="345" type="curve"/>
      <point x="313" y="374"/>
      <point x="242" y="403"/>
      <point x="169" y="403" type="curve" smooth="yes"/>
      <point x="35" y="403"/>
      <point x="8" y="315"/>
      <point x="8" y="251" type="curve"/>
      <point x="8" y="251"/>
      <point x="8" y="168"/>
      <point x="8" y="168" type="curve"/>
      <point x="8" y="50"/>
      <point x="67" y="-10"/>
      <point x="212" y="-10" type="curve" smooth="yes"/>
      <point x="253" y="-10"/>
      <point x="392" y="0"/>
      <point x="392" y="0" type="curve"/>
      <point x="392" y="0"/>
      <point x="392" y="212"/>
      <point x="392" y="335" type="curve" smooth="yes"/>
      <point x="392" y="395"/>
      <point x="372" y="441"/>
      <point x="331" y="470" type="curve" smooth="yes"/>
      <point x="297" y="495"/>
      <point x="249" y="507"/>
      <point x="184" y="507" type="curve"/>
      <point x="183" y="488" type="line"/>
      <point x="251" y="488"/>
      <point x="288" y="477"/>
      <point x="318" y="457" type="curve" smooth="yes"/>
      <point x="354" y="431"/>
      <point x="373" y="392"/>
    </contour>
    <contour>
      <point x="373" y="322" type="curve"/>
      <point x="373" y="322"/>
      <point x="373" y="18"/>
      <point x="373" y="18" type="curve"/>
      <point x="373" y="18"/>
      <point x="258" y="8"/>
      <point x="212" y="8" type="curve" smooth="yes"/>
      <point x="56" y="4"/>
      <point x="26" y="90"/>
      <point x="26" y="162" type="curve" smooth="yes"/>
      <point x="26" y="185"/>
      <point x="26" y="221"/>
      <point x="26" y="249" type="curve" smooth="yes"/>
      <point x="26" y="323"/>
      <point x="65" y="383"/>
      <point x="168" y="383" type="curve" smooth="yes"/>
      <point x="241" y="383"/>
      <point x="302" y="358"/>
    </contour>
    <contour>
      <point x="317" y="-132" type="curve" smooth="yes"/>
      <point x="332" y="-107"/>
      <point x="388" y="-8"/>
      <point x="389" y="-7" type="curve"/>
      <point x="389" y="2" type="line"/>
      <point x="389" y="2"/>
      <point x="377" y="1"/>
      <point x="373" y="1" type="curve"/>
      <point x="373" y="-1"/>
      <point x="373" y="-3"/>
      <point x="373" y="-6" type="curve"/>
      <point x="300" y="-123" type="line" smooth="yes"/>
      <point x="265" y="-186"/>
      <point x="310" y="-248"/>
      <point x="383" y="-235" type="curve" smooth="yes"/>
      <point x="397" y="-233"/>
      <point x="474" y="-207"/>
      <point x="474" y="-207" type="curve"/>
      <point x="468" y="-187" type="line"/>
      <point x="468" y="-187"/>
      <point x="429" y="-200"/>
      <point x="396" y="-212" type="curve" smooth="yes"/>
      <point x="330" y="-233"/>
      <point x="286" y="-186"/>
    </contour>
  </outline>
</glyph>
<glyph name="Cacute" format="1">
  <advance width="383"/>
  <unicode hex="0106"/>
  <outline>
    <contour>
      <point x="342" y="658" type="curve"/>
      <point x="350" y="675" type="line"/>
      <point x="309" y="697"/>
      <point x="262" y="708"/>
      <point x="208" y="708" type="curve" smooth="yes"/>
      <point x="166" y="708"/>
      <point x="130" y="700"/>
      <point x="101" y="683" type="curve" smooth="yes"/>
      <point x="43" y="647"/>
      <point x="14" y="603"/>
      <point x="14" y="503" type="curve" smooth="yes"/>
      <point x="14" y="183" type="line" smooth="yes"/>
      <point x="14" y="99"/>
      <point x="47" y="42"/>
      <point x="96" y="15" type="curve" smooth="yes"/>
      <point x="144" y="-10"/>
      <point x="193" y="-10"/>
      <point x="213" y="-10" type="curve" smooth="yes"/>
      <point x="264" y="-10"/>
      <point x="318" y="1"/>
      <point x="375" y="23" type="curve"/>
      <point x="369" y="41" type="line"/>
      <point x="310" y="18"/>
      <point x="258" y="7"/>
      <point x="219" y="7" type="curve" smooth="yes"/>
      <point x="180" y="7"/>
      <point x="136" y="12"/>
      <point x="106" y="32" type="curve" smooth="yes"/>
      <point x="64" y="58"/>
      <point x="32" y="106"/>
      <point x="33" y="185" type="curve" smooth="yes"/>
      <point x="33" y="512" type="line" smooth="yes"/>
      <point x="33" y="572"/>
      <point x="55" y="619"/>
      <point x="79" y="643" type="curve" smooth="yes"/>
      <point x="105" y="668"/>
      <point x="151" y="689"/>
      <point x="211" y="689" type="curve" smooth="yes"/>
      <point x="252" y="689"/>
      <point x="295" y="679"/>
    </contour>
    <contour>
      <point x="246" y="856" type="curve"/>
      <point x="196" y="741" type="line"/>
      <point x="217" y="741" type="line"/>
      <point x="272" y="842" type="line"/>
      <point x="277" y="849"/>
      <point x="277" y="860"/>
      <point x="268" y="865" type="curve" smooth="yes"/>
      <point x="260" y="869"/>
      <point x="251" y="864"/>
    </contour>
  </outline>
</glyph>
<glyph name="Ccircumflex" format="1">
  <advance width="384"/>
  <unicode hex="0108"/>
  <outline>
    <contour>
      <point x="343" y="658" type="curve"/>
      <point x="351" y="675" type="line"/>
      <point x="310" y="697"/>
      <point x="263" y="708"/>
      <point x="209" y="708" type="curve" smooth="yes"/>
      <point x="167" y="708"/>
      <point x="131" y="700"/>
      <point x="102" y="683" type="curve" smooth="yes"/>
      <point x="44" y="647"/>
      <point x="15" y="603"/>
      <point x="15" y="503" type="curve" smooth="yes"/>
      <point x="15" y="183" type="line" smooth="yes"/>
      <point x="15" y="99"/>
      <point x="48" y="42"/>
      <point x="97" y="15" type="curve" smooth="yes"/>
      <point x="145" y="-10"/>
      <point x="194" y="-10"/>
      <point x="215" y="-10" type="curve" smooth="yes"/>
      <point x="265" y="-10"/>
      <point x="319" y="1"/>
      <point x="376" y="23" type="curve"/>
      <point x="370" y="41" type="line"/>
      <point x="311" y="18"/>
      <point x="260" y="7"/>
      <point x="220" y="7" type="curve" smooth="yes"/>
      <point x="182" y="7"/>
      <point x="137" y="12"/>
      <point x="107" y="32" type="curve" smooth="yes"/>
      <point x="65" y="58"/>
      <point x="33" y="106"/>
      <point x="34" y="185" type="curve" smooth="yes"/>
      <point x="34" y="512" type="line" smooth="yes"/>
      <point x="34" y="572"/>
      <point x="56" y="619"/>
      <point x="80" y="643" type="curve" smooth="yes"/>
      <point x="106" y="668"/>
      <point x="152" y="689"/>
      <point x="212" y="689" type="curve" smooth="yes"/>
      <point x="253" y="689"/>
      <point x="296" y="679"/>
    </contour>
    <contour>
      <point x="197" y="846" type="line"/>
      <point x="301" y="741" type="line"/>
      <point x="317" y="757" type="line"/>
      <point x="197" y="875" type="line"/>
      <point x="75" y="756" type="line"/>
      <point x="89" y="741" type="line"/>
    </contour>
  </outline>
</glyph>
<glyph name="ccircumflex" format="1">
  <advance width="344"/>
  <unicode hex="0109"/>
  <outline>
    <contour>
      <point x="322" y="457" type="curve"/>
      <point x="329" y="476" type="line"/>
      <point x="271" y="504"/>
      <point x="205" y="516"/>
      <point x="147" y="504" type="curve" smooth="yes"/>
      <point x="102" y="494"/>
      <point x="64" y="470"/>
      <point x="38" y="426" type="curve" smooth="yes"/>
      <point x="19" y="394"/>
      <point x="12" y="362"/>
      <point x="10" y="318" type="curve"/>
      <point x="10" y="173" type="line" smooth="yes"/>
      <point x="10" y="75"/>
      <point x="54" y="23"/>
      <point x="122" y="1" type="curve" smooth="yes"/>
      <point x="182" y="-18"/>
      <point x="264" y="-13"/>
      <point x="331" y="5" type="curve"/>
      <point x="327" y="25" type="line"/>
      <point x="327" y="25"/>
      <point x="212" y="-9"/>
      <point x="123" y="21" type="curve" smooth="yes"/>
      <point x="52" y="45"/>
      <point x="29" y="98"/>
      <point x="29" y="175" type="curve" smooth="yes"/>
      <point x="29" y="312" type="line" smooth="yes"/>
      <point x="29" y="355"/>
      <point x="38" y="389"/>
      <point x="55" y="416" type="curve" smooth="yes"/>
      <point x="77" y="453"/>
      <point x="112" y="476"/>
      <point x="155" y="485" type="curve" smooth="yes"/>
      <point x="205" y="496"/>
      <point x="264" y="486"/>
    </contour>
    <contour>
      <point x="202" y="651" type="line"/>
      <point x="307" y="547" type="line"/>
      <point x="322" y="562" type="line"/>
      <point x="202" y="680" type="line"/>
      <point x="80" y="562" type="line"/>
      <point x="95" y="548" type="line"/>
    </contour>
  </outline>
</glyph>
<glyph name="Ccaron" format="1">
  <advance width="385"/>
  <unicode hex="010C"/>
  <outline>
    <contour>
      <point x="343" y="658" type="curve"/>
      <point x="351" y="675" type="line"/>
      <point x="310" y="697"/>
      <point x="263" y="708"/>
      <point x="209" y="708" type="curve" smooth="yes"/>
      <point x="167" y="708"/>
      <point x="131" y="700"/>
      <point x="102" y="683" type="curve" smooth="yes"/>
      <point x="44" y="647"/>
      <point x="15" y="603"/>
      <point x="15" y="503" type="curve" smooth="yes"/>
      <point x="15" y="183" type="line" smooth="yes"/>
      <point x="15" y="99"/>
      <point x="48" y="42"/>
      <point x="97" y="15" type="curve" smooth="yes"/>
      <point x="145" y="-10"/>
      <point x="194" y="-10"/>
      <point x="215" y="-10" type="curve" smooth="yes"/>
      <point x="265" y="-10"/>
      <point x="319" y="1"/>
      <point x="376" y="23" type="curve"/>
      <point x="370" y="41" type="line"/>
      <point x="311" y="18"/>
      <point x="260" y="7"/>
      <point x="220" y="7" type="curve" smooth="yes"/>
      <point x="182" y="7"/>
      <point x="137" y="12"/>
      <point x="107" y="32" type="curve" smooth="yes"/>
      <point x="65" y="58"/>
      <point x="33" y="106"/>
      <point x="34" y="185" type="curve" smooth="yes"/>
      <point x="34" y="512" type="line" smooth="yes"/>
      <point x="34" y="572"/>
      <point x="56" y="619"/>
      <point x="80" y="643" type="curve" smooth="yes"/>
      <point x="106" y="668"/>
      <point x="152" y="689"/>
      <point x="212" y="689" type="curve" smooth="yes"/>
      <point x="253" y="689"/>
      <point x="296" y="679"/>
    </contour>
    <contour>
      <point x="75" y="857" type="line"/>
      <point x="195" y="739" type="line"/>
      <point x="317" y="858" type="line"/>
      <point x="302" y="872" type="line"/>
      <point x="195" y="768" type="line"/>
      <point x="90" y="872" type="line"/>
    </contour>
  </outline>
</glyph>
<glyph name="ccaron" format="1">
  <advance width="346"/>
  <unicode hex="010D"/>
  <outline>
    <contour>
      <point x="323" y="457" type="curve"/>
      <point x="330" y="476" type="line"/>
      <point x="272" y="504"/>
      <point x="206" y="516"/>
      <point x="148" y="504" type="curve" smooth="yes"/>
      <point x="103" y="494"/>
      <point x="65" y="470"/>
      <point x="40" y="426" type="curve" smooth="yes"/>
      <point x="20" y="394"/>
      <point x="13" y="362"/>
      <point x="11" y="318" type="curve"/>
      <point x="11" y="173" type="line" smooth="yes"/>
      <point x="11" y="75"/>
      <point x="55" y="23"/>
      <point x="123" y="1" type="curve" smooth="yes"/>
      <point x="183" y="-18"/>
      <point x="265" y="-13"/>
      <point x="332" y="5" type="curve"/>
      <point x="328" y="25" type="line"/>
      <point x="328" y="25"/>
      <point x="213" y="-9"/>
      <point x="124" y="21" type="curve" smooth="yes"/>
      <point x="53" y="45"/>
      <point x="30" y="98"/>
      <point x="30" y="175" type="curve" smooth="yes"/>
      <point x="30" y="312" type="line" smooth="yes"/>
      <point x="30" y="355"/>
      <point x="40" y="389"/>
      <point x="56" y="416" type="curve" smooth="yes"/>
      <point x="78" y="453"/>
      <point x="113" y="476"/>
      <point x="156" y="485" type="curve" smooth="yes"/>
      <point x="206" y="496"/>
      <point x="265" y="486"/>
    </contour>
    <contour>
      <point x="71" y="665" type="line"/>
      <point x="193" y="548" type="line"/>
      <point x="315" y="665" type="line"/>
      <point x="300" y="680" type="line"/>
      <point x="193" y="576" type="line"/>
      <point x="87" y="681" type="line"/>
    </contour>
  </outline>
</glyph>
<glyph name="dcaron" format="1">
  <advance width="488"/>
  <unicode hex="010F"/>
  <outline>
    <contour>
      <point x="394" y="-1" type="curve"/>
      <point x="394" y="698" type="line"/>
      <point x="375" y="698" type="line"/>
      <point x="375" y="470" type="line"/>
      <point x="323" y="492"/>
      <point x="261" y="508"/>
      <point x="188" y="508" type="curve" smooth="yes"/>
      <point x="54" y="508"/>
      <point x="10" y="421"/>
      <point x="10" y="358" type="curve"/>
      <point x="10" y="358"/>
      <point x="10" y="169"/>
      <point x="10" y="168" type="curve" smooth="yes"/>
      <point x="10" y="50"/>
      <point x="69" y="-11"/>
      <point x="215" y="-11" type="curve" smooth="yes"/>
      <point x="255" y="-11"/>
      <point x="394" y="-1"/>
    </contour>
    <contour>
      <point x="375" y="450" type="curve"/>
      <point x="375" y="450"/>
      <point x="375" y="18"/>
      <point x="375" y="18" type="curve"/>
      <point x="375" y="18"/>
      <point x="262" y="8"/>
      <point x="215" y="7" type="curve" smooth="yes"/>
      <point x="58" y="4"/>
      <point x="29" y="89"/>
      <point x="29" y="161" type="curve" smooth="yes"/>
      <point x="29" y="182"/>
      <point x="29" y="330"/>
      <point x="29" y="354" type="curve" smooth="yes"/>
      <point x="29" y="429"/>
      <point x="84" y="491"/>
      <point x="187" y="491" type="curve" smooth="yes"/>
      <point x="261" y="491"/>
      <point x="322" y="474"/>
    </contour>
    <contour>
      <point x="440" y="577" type="curve"/>
      <point x="449" y="571" type="line"/>
      <point x="449" y="571"/>
      <point x="487" y="595"/>
      <point x="487" y="648" type="curve" smooth="yes"/>
      <point x="487" y="658"/>
      <point x="481" y="665"/>
      <point x="471" y="665" type="curve" smooth="yes"/>
      <point x="462" y="665"/>
      <point x="454" y="658"/>
      <point x="454" y="648" type="curve" smooth="yes"/>
      <point x="454" y="640"/>
      <point x="459" y="635"/>
      <point x="465" y="632" type="curve"/>
      <point x="464" y="618"/>
      <point x="460" y="596"/>
    </contour>
  </outline>
</glyph>
